<svg id="Слой_1" data-name="Слой 1" xmlns="http://www.w3.org/2000/svg" viewBox="0 0 100 100"><title>Для тела</title><path d="M50.87,8v7L55,72.48V88.89A4.12,4.12,0,0,0,59.1,93H83.77a4.12,4.12,0,0,0,4.12-4.11V72.48L92,14.85V8ZM85.15,88.89a1.38,1.38,0,0,1-1.38,1.37H59.1a1.37,1.37,0,0,1-1.37-1.37V87.52H85.15ZM67.32,84.77V83.4a4.12,4.12,0,0,1,8.23,0v1.37ZM85.24,71.06H82.4v2.75h2.75v11H78.29V83.4a6.86,6.86,0,0,0-13.71,0v1.37H57.73v-11H79.66V71.06h-22L53.71,16.23H89.16ZM53.61,13.48V10.74H89.26v2.74Z"/><path d="M83.77,28.56H59.1V58.73H83.77ZM81,56H61.84V31.31H81Z"/><path d="M38.53,19V12.11A4.12,4.12,0,0,0,34.42,8H20.71a4.12,4.12,0,0,0-4.11,4.11V19A9.61,9.61,0,0,0,7,28.56V86.15A6.87,6.87,0,0,0,13.85,93H41.27a6.87,6.87,0,0,0,6.86-6.85V28.56A9.61,9.61,0,0,0,38.53,19ZM19.34,12.11a1.37,1.37,0,0,1,1.37-1.37H34.42a1.37,1.37,0,0,1,1.37,1.37v1.37H19.34Zm0,4.12H35.79V19H19.34ZM45.39,86.15a4.12,4.12,0,0,1-4.12,4.11H13.85a4.12,4.12,0,0,1-4.11-4.11V28.56a6.86,6.86,0,0,1,6.86-6.85H38.53a6.86,6.86,0,0,1,6.86,6.85Z"/><path d="M12.48,69.69H42.65V39.53H12.48Zm2.75-27.42H39.9V67H15.23Z"/><rect x="34.42" y="61.47" width="2.74" height="2.74"/><rect x="17.97" y="61.47" width="13.71" height="2.74"/></svg>