<svg id="Слой_1" data-name="Слой 1" xmlns="http://www.w3.org/2000/svg" viewBox="0 0 100 100"><title>Декоративная косметика</title><path d="M92,34.92a4.27,4.27,0,0,0-4.26-4.25h0a4.18,4.18,0,0,0-3,1.25l-4.82,4.82a15.29,15.29,0,0,0-3.5-.41V22.54L81.9,13s0,0,0-.08a1.14,1.14,0,0,0,.09-.26,1.4,1.4,0,0,0,.06-.28s0-.05,0-.08A2.56,2.56,0,0,0,82,12a.59.59,0,0,0,0-.13C81.37,8.12,71.87,8,70.75,8s-10.61.12-11.26,3.85a.3.3,0,0,0,0,.13,2.56,2.56,0,0,0,0,.27s0,.05,0,.08a1.4,1.4,0,0,0,.06.28,2,2,0,0,0,.08.26.41.41,0,0,1,0,.08l5.48,9.59V36.33H59.42V26.94a8.06,8.06,0,0,0,1.42-5.06c0-4-4.29-7.51-4.78-7.9a.67.67,0,0,0-.12-.06,1.48,1.48,0,0,0-.5-.21,1.38,1.38,0,0,0-1,.21.67.67,0,0,0-.12.06c-.49.39-4.78,3.93-4.78,7.9a8,8,0,0,0,1.42,5.06v9.39H46.68V23.58l0-.13v-.14l-1.47-7.5a2.84,2.84,0,0,0-5.52.07L38.2,23.31v.14a.59.59,0,0,0,0,.13V36.33H35.35V30.66a2.84,2.84,0,0,0-2.84-2.83V24.6a2.8,2.8,0,0,0,1.42-2.44V10.83A2.83,2.83,0,0,0,31.1,8H24a2.83,2.83,0,0,0-2.83,2.83V22.16A2.8,2.8,0,0,0,22.6,24.6v3.23a2.83,2.83,0,0,0-2.83,2.83v5.93A15.58,15.58,0,0,0,7,51.92l0,38.16A2.82,2.82,0,0,0,9.89,93H89.13A2.83,2.83,0,0,0,92,90.12l0-38.2a15.46,15.46,0,0,0-4.4-10.84l3.16-3.16A4.21,4.21,0,0,0,92,34.92ZM73.59,26.41H67.92V23.58h5.67ZM79,12.27l-4.85,8.48H67.33l-4.85-8.48c.92-.59,3.77-1.44,8.27-1.44s7.36.85,8.28,1.44Zm-11.11,17h5.67v7.08H67.92ZM56.59,30.66H53.76V27.83h2.83ZM55.17,17C56.38,18.18,58,20.15,58,21.88A6,6,0,0,1,57.33,25H53a6,6,0,0,1-.68-3.12C52.34,20.15,54,18.18,55.17,17Zm-1.41,16.5h2.83v2.84H53.76ZM43.54,22.16H41.31l1.1-5.73ZM41,25h2.83V36.33H41ZM24,10.83H31.1V22.16H24ZM22.6,30.66a2.83,2.83,0,0,0,2.83-2.83V25h4.25v2.83a2.83,2.83,0,0,0,2.83,2.83v5.67H22.6Zm66.53,59.5-79.24,0,0-38.2A12.75,12.75,0,0,1,22.61,39.16h53.8A12.75,12.75,0,0,1,89.16,51.92Zm-.38-54.24-3.31,3.31a15.58,15.58,0,0,0-2.53-1.47l3.84-3.84a1.35,1.35,0,0,1,1-.42h0a1.41,1.41,0,0,1,1,2.42Z"/><path d="M60.31,47.67h0a8.72,8.72,0,0,0-6.43,2.83l-4.36,4.66-4.36-4.67a8.78,8.78,0,0,0-6.43-2.82h0A8.73,8.73,0,0,0,32.3,50.5,10,10,0,0,0,32.3,64L48.47,81.21a1.42,1.42,0,0,0,1,.45,1.4,1.4,0,0,0,1-.45L66.72,64a10,10,0,0,0,0-13.45A8.75,8.75,0,0,0,60.31,47.67ZM64.65,62h0L49.51,78.17,34.37,62a7.1,7.1,0,0,1,0-9.58,5.92,5.92,0,0,1,4.34-1.93h0a6,6,0,0,1,4.36,1.93l5.39,5.77a1.5,1.5,0,0,0,1,.43,1.46,1.46,0,0,0,1-.43l5.39-5.76A6,6,0,0,1,60.3,50.5h0a6,6,0,0,1,4.35,1.93,7.1,7.1,0,0,1,0,9.58Z"/><path d="M14.1,51.92a1.42,1.42,0,0,0-1.42,1.41V71.75a1.42,1.42,0,0,0,2.84,0V53.33a1.42,1.42,0,0,0-1.42-1.41Z"/><path d="M14.1,76a1.42,1.42,0,0,0-1.42,1.41v5.67a1.42,1.42,0,0,0,2.84,0V77.41A1.42,1.42,0,0,0,14.1,76Z"/></svg>