<svg id="Слой_1" data-name="Слой 1" xmlns="http://www.w3.org/2000/svg" xmlns:xlink="http://www.w3.org/1999/xlink" viewBox="0 0 100 100"><defs><style>.cls-1{fill:none;}.cls-2{clip-path:url(#clip-path);}</style><clipPath id="clip-path"><rect class="cls-1" x="8" y="8" width="85" height="85"/></clipPath></defs><title>Экодом</title><g class="cls-2"><path d="M80.25,8H66.08a1.41,1.41,0,0,0-1.41,1.42v4.25a1.4,1.4,0,0,0,1.13,1.38l1.36.28a7.75,7.75,0,0,1,3.17,1.44v.29a8.09,8.09,0,0,1-3.62,6.76l1.58,2.35a10.9,10.9,0,0,0,4.5-6.29,7.54,7.54,0,0,1,.42,1.21,1.43,1.43,0,0,0,1.37,1.08h2.84v4L73.58,39l2.71.81,3.6-12h6.26l2.6,14.3V74.58a4.25,4.25,0,0,1-4.25,4.25H80.84v2.84H84.5a7.1,7.1,0,0,0,7.08-7.09V42a1,1,0,0,0,0-.25L88.75,26.29V22.17h2.83A1.42,1.42,0,0,0,93,20.75,12.76,12.76,0,0,0,80.25,8Zm5.67,17H80.25V22.17h5.67Zm1.41-5.67H75.63a10.7,10.7,0,0,0-7.91-6.78l-.22,0V10.83H80.25a9.94,9.94,0,0,1,9.82,8.5Zm0,0"/><path d="M15.08,81.67H25V78.83H15.08a4.25,4.25,0,0,1-4.25-4.25V54.3a15.85,15.85,0,0,1,.6-4.28l2.18-7.63a1.41,1.41,0,0,0,0-.84l-2.48-7.46a5.31,5.31,0,0,1,1.64-5.77l5.68-4.74H31.57L35.68,27l1.81-2.18-4-3.33V17.92a1.38,1.38,0,0,0-.42-1L30.67,14.5V9.42A1.42,1.42,0,0,0,29.25,8h-8.5a1.42,1.42,0,0,0-1.42,1.42V14.5l-2.41,2.42a1.38,1.38,0,0,0-.42,1V21.5l-5.57,4.64A8.18,8.18,0,0,0,8.42,35l2.35,7L8.71,49.24A18.4,18.4,0,0,0,8,54.3V74.58a7.1,7.1,0,0,0,7.08,7.09Zm7.09-70.84h5.66v2.84H22.17ZM19.33,18.5l2-2h7.32l2,2v2.25H19.33Zm0,0"/></g><path d="M33.5,32.08c0-3.17-3.73-5.66-8.5-5.66s-8.5,2.49-8.5,5.66,3.73,5.67,8.5,5.67,8.5-2.49,8.5-5.67Zm-14.17,0c0-1.33,2.43-2.83,5.67-2.83s5.67,1.5,5.67,2.83S28.24,34.92,25,34.92s-5.67-1.5-5.67-2.84Zm0,0"/><path d="M23.44,55l.95-2.67-8.83-3.15a1.41,1.41,0,0,0-1.89,1.33v17a7.08,7.08,0,0,0,7.08,7.08h2.83V71.75H20.75A4.25,4.25,0,0,1,16.5,67.5v-15Zm0,0"/><path d="M61.58,53.91A20.69,20.69,0,0,1,65,72.06a4.2,4.2,0,0,0,8,2.55,27.81,27.81,0,0,0-4.39-26.49l-.57-.72A4.54,4.54,0,0,0,60.86,53Zm1.22-4.1a1.7,1.7,0,0,1,1.3-1.29,1.73,1.73,0,0,1,1.72.62l.56.72a25,25,0,0,1,4,23.81,1.43,1.43,0,0,1-1.09.85A1.41,1.41,0,0,1,68,74a1.36,1.36,0,0,1-.22-1.2,23.59,23.59,0,0,0-3.9-20.65l-.73-1a1.68,1.68,0,0,1-.3-1.42Zm0,0"/><path d="M33.74,92.37a1.42,1.42,0,0,0,1.18.63h34a1.42,1.42,0,0,0,1.1-.53L73.56,88a37,37,0,0,0-6-52.16L61.83,31.4v-5A1.41,1.41,0,0,0,60.42,25H59V19.33a2.83,2.83,0,0,0-2.83-2.83H44.83A2.83,2.83,0,0,0,42,19.33V25H40.58a1.41,1.41,0,0,0-1.41,1.42v5.14l-1.89,2.2a48.79,48.79,0,0,0-3.54,58.61Zm11.09-73H56.17V25H44.83Zm-5.4,16.28L41.66,33a1.44,1.44,0,0,0,.34-.93V27.83H59v2.84H44.83V33.5h15.1l5.86,4.6a34.13,34.13,0,0,1,5.56,48.17l-3.11,3.9H35.68a45.94,45.94,0,0,1,3.75-54.56Zm0,0"/><path d="M48.37,81.67A16.29,16.29,0,0,0,62,74.37a1.47,1.47,0,0,0,.21-1c-1.72-10.2-5.57-18.21-11.46-23.8a1.43,1.43,0,0,0-.85-.39,14.56,14.56,0,0,0-1.49-.08,16.3,16.3,0,0,0,0,32.59Zm0-29.75.74,0C54.24,57,57.66,64.16,59.28,73.25A13.46,13.46,0,1,1,48.37,51.92Zm0,0"/></svg>