<svg id="Слой_1" data-name="Слой 1" xmlns="http://www.w3.org/2000/svg" xmlns:xlink="http://www.w3.org/1999/xlink" viewBox="0 0 100 100"><defs><style>.cls-1{fill:none;}.cls-2{clip-path:url(#clip-path);}</style><clipPath id="clip-path"><rect class="cls-1" x="8" y="8" width="85" height="85"/></clipPath></defs><title>Идеи подарков</title><g class="cls-2"><path d="M91.69,25.15H84.77a7.27,7.27,0,0,0,.54-.89,7.19,7.19,0,0,0,.34-5.78l-2.1-5.63a7.17,7.17,0,0,0-9.81-4l-16.6,7.88a5,5,0,0,0-2.91-.93H46.77a5,5,0,0,0-2.91.93L27.26,8.86a7.18,7.18,0,0,0-9.81,4l-2.1,5.64a7.19,7.19,0,0,0,.34,5.78,7.27,7.27,0,0,0,.54.89H9.31A1.31,1.31,0,0,0,8,26.46v9.45a1.31,1.31,0,0,0,2.62,0V27.77h9.12a3.22,3.22,0,0,0,.44.14l11,3a88.44,88.44,0,0,0-6.45,11.78H10.62V41.15a1.31,1.31,0,0,0-2.62,0V44a1.31,1.31,0,0,0,1.31,1.31H14V91.8a1.31,1.31,0,0,0,1.31,1.31H85.7A1.31,1.31,0,0,0,87,91.8V84.18a1.31,1.31,0,0,0-2.62,0v6.3h-26V46.16a70.21,70.21,0,0,1,7.39,22.6,1.32,1.32,0,0,0,1,1.08,1.24,1.24,0,0,0,.33,0,1.31,1.31,0,0,0,1-.52,74.11,74.11,0,0,0,5.23-8,75.08,75.08,0,0,1,7.66,6,1.32,1.32,0,0,0,2.18-1.17A88,88,0,0,0,77.4,45.35h7V78.93a1.31,1.31,0,1,0,2.62,0V45.35h4.68A1.31,1.31,0,0,0,93,44V26.46a1.31,1.31,0,0,0-1.31-1.31ZM74.86,11.23a4.55,4.55,0,0,1,6.23,2.53l2.1,5.64a4.56,4.56,0,0,1-3.07,6L59.24,31.13v-6.3c4.7-2.88,16.4-8.8,19.31-4.69a1.31,1.31,0,0,0,2.14-1.52c-2.25-3.17-7-3.33-14.08-.46a62.68,62.68,0,0,0-7.37,3.63v-1a4.87,4.87,0,0,0-.41-2Zm-28.09,7.2h7.46a2.39,2.39,0,0,1,2.39,2.39V31.66a2.39,2.39,0,0,1-2.39,2.39H46.77a2.39,2.39,0,0,1-2.39-2.39V20.82a2.39,2.39,0,0,1,2.39-2.39Zm-2.21,24.3a70.64,70.64,0,0,1,4.09-6.06h3.7a70.64,70.64,0,0,1,4.09,6.06ZM18,23.07a4.52,4.52,0,0,1-.22-3.67l2.1-5.64a4.55,4.55,0,0,1,6.23-2.53l16,7.61a4.87,4.87,0,0,0-.41,2v1a64,64,0,0,0-7.5-3.7c-7.1-2.87-11.83-2.71-14.08.46a1.31,1.31,0,0,0,2.14,1.52c2.94-4.15,14.83,1.93,19.44,4.77v6.22L20.88,25.38A4.49,4.49,0,0,1,18,23.07ZM42.35,34a5,5,0,0,0,3.16,2.49A73.06,73.06,0,0,0,33.17,65.25a74.28,74.28,0,0,1-3.89-6.38,1.28,1.28,0,0,0-.83-.64,1.32,1.32,0,0,0-1,.17A76,76,0,0,0,21,63.07,85.82,85.82,0,0,1,33.85,31.68ZM16.61,45.35h7a88,88,0,0,0-5.77,20.86,1.3,1.3,0,0,0,.68,1.34,1.33,1.33,0,0,0,1.5-.17,75.08,75.08,0,0,1,7.66-6,74.11,74.11,0,0,0,5.23,8,1.31,1.31,0,0,0,1,.52,1.24,1.24,0,0,0,.33,0,1.32,1.32,0,0,0,1-1.08,70.21,70.21,0,0,1,7.39-22.6V90.48h-26ZM45.25,90.48V45.35h10.5V90.48ZM73.59,58.4a1.32,1.32,0,0,0-1-.17,1.28,1.28,0,0,0-.83.64,74.28,74.28,0,0,1-3.89,6.38A73,73,0,0,0,55.49,36.52,5,5,0,0,0,58.65,34l8.5-2.34A85.82,85.82,0,0,1,80,63.07a76,76,0,0,0-6.39-4.67ZM90.38,42.73H76.26A87.32,87.32,0,0,0,69.81,31l11-3a3.22,3.22,0,0,0,.44-.14h9.12Zm0,0"/></g></svg>