<svg id="Слой_1" data-name="Слой 1" xmlns="http://www.w3.org/2000/svg" xmlns:xlink="http://www.w3.org/1999/xlink" viewBox="0 0 100 100"><defs><style>.cls-1{fill:none;}.cls-2{clip-path:url(#clip-path);}</style><clipPath id="clip-path"><rect class="cls-1" x="7" y="8" width="85" height="85"/></clipPath></defs><title>Для детей</title><path d="M15.5,90.17H12.67a1.42,1.42,0,1,0,0,2.83H15.5a1.42,1.42,0,1,0,0-2.83Zm0,0"/><g class="cls-2"><path d="M87.75,90.17H83.5a1.42,1.42,0,1,0,0,2.83h4.25a1.42,1.42,0,1,0,0-2.83Zm0,0"/><path d="M92,36.94a12,12,0,0,0-23.64-2.18A21.87,21.87,0,0,0,58,32.08H49a17.9,17.9,0,0,0,.51-4.25A18.44,18.44,0,0,0,31.56,9.44,8.47,8.47,0,0,0,26.83,8a1.41,1.41,0,0,0-1.41,1.42v5.66h-8.5a9.92,9.92,0,0,0,0,19.84h8.5V50.5a12.67,12.67,0,0,0,.38,2.94L14.67,64.57a5.66,5.66,0,1,0,8,8L32,63.23a12.59,12.59,0,0,0,5.85,1.44H45l6.7,2.83H37.46a2.12,2.12,0,0,0-.66,4.14L50.66,76h-13a2.13,2.13,0,0,0-1.18,3.89l.13.08L45.2,84.5H35.33a7.09,7.09,0,0,0-6.94,5.67H21.17a1.42,1.42,0,1,0,0,2.83H77.83a1.42,1.42,0,1,0,0-2.83H67.77a7.08,7.08,0,0,0-6.94-5.67H51.27L40.54,78.83H55.28a2.12,2.12,0,0,0,.66-4.14L42.08,70.33H55.17a2.13,2.13,0,0,0,2.07-1.63A2.15,2.15,0,0,0,56,66.27l-3.79-1.6H61a11.9,11.9,0,0,0,6.18,5,11,11,0,0,0,4.58.59,11.8,11.8,0,0,0,3-.71,12.36,12.36,0,0,0,1.38-.65l.25-.14,4.12,4.13a5.67,5.67,0,0,0,8-8l-6.5-6.49v-.84a26,26,0,0,0-6-16.37,9.13,9.13,0,0,1,13.46-3.13A1.42,1.42,0,0,0,92,37s0-.06,0-.09ZM64.84,90.17H31.33a4.26,4.26,0,0,1,4-2.84h25.5a4.27,4.27,0,0,1,4,2.84Zm-21-55.25H56.58v9.21a6.38,6.38,0,0,1-12.75,0Zm2.84-7.09a15.27,15.27,0,0,1-.61,4.25H43.83a16.88,16.88,0,0,0-5-12,17.07,17.07,0,0,0-3.57-2.71c0-.28,0-.56,0-.85a8.37,8.37,0,0,0-.95-3.89A15.61,15.61,0,0,1,46.67,27.83ZM9.83,25a7.07,7.07,0,0,1,4.56-6.6,9.87,9.87,0,0,1,0,13.2A7.09,7.09,0,0,1,9.83,25Zm6.84,45.58a2.85,2.85,0,0,1,0-4l.78-.78,4,4-.78.78a2.91,2.91,0,0,1-4,0ZM87.2,70a2.7,2.7,0,0,1-.62.94,2.83,2.83,0,0,1-4,0l-.24-.24,4-4,.25.25a2.66,2.66,0,0,1,.62.93,2.81,2.81,0,0,1,0,2.13Zm-8-11a1.38,1.38,0,0,0,.42,1l4.66,4.67-4,4L77.64,66a1.43,1.43,0,0,0-1.85-.13,10.34,10.34,0,0,1-1,.62,9.64,9.64,0,0,1-1,.48,8.38,8.38,0,0,1-1.11.34,7.56,7.56,0,0,1-1.16.18A8.07,8.07,0,0,1,68.16,67a9.13,9.13,0,0,1-5-4.45,7.87,7.87,0,0,1-.85-3.29,8.49,8.49,0,0,1,2.39-6.21,1.42,1.42,0,1,0-2-2,11.27,11.27,0,0,0-3.19,8.27,10.51,10.51,0,0,0,.37,2.44H37.88a9.71,9.71,0,0,1-3.72-.73l3.55-3.54a1.42,1.42,0,0,0-2-2L23.46,67.8l-4-4L31.7,51.55a1.41,1.41,0,0,0-.63-2.39,1.39,1.39,0,0,0-1.37.38L28.28,51c0-.15,0-.3,0-.45V34.81A9.75,9.75,0,0,0,33.84,32a1.41,1.41,0,1,0-2-2,7,7,0,0,1-5,2.07H17.6a12.72,12.72,0,0,0,0-14.16h9.23a1.42,1.42,0,0,0,1.42-1.42V11A5.68,5.68,0,0,1,32.5,16.5a5.35,5.35,0,0,1-.14,1.26.56.56,0,0,0,0,.13.88.88,0,0,0,0,.28,1.15,1.15,0,0,0,0,.26,1.34,1.34,0,0,0,.09.26l.13.23.18.19a1.24,1.24,0,0,0,.22.18l.11.08a14.63,14.63,0,0,1,3.75,2.69,14.09,14.09,0,0,1,4.14,10V44.13a9.21,9.21,0,0,0,18.42,0V35c10.71.84,19.83,11,19.83,22.59ZM74.1,39a26.69,26.69,0,0,0-3.22-2.69,9.2,9.2,0,0,1,17.63-2A11.86,11.86,0,0,0,74.1,39Zm0,0"/></g><path d="M26.83,23.59a1.42,1.42,0,1,1-1.41-1.42,1.41,1.41,0,0,1,1.41,1.42Zm0,0"/><path d="M67.92,60.42A1.42,1.42,0,1,1,66.5,59a1.42,1.42,0,0,1,1.42,1.42Zm0,0"/><path d="M73.58,57.58a1.42,1.42,0,1,1-1.41-1.41,1.41,1.41,0,0,1,1.41,1.41Zm0,0"/><path d="M73.58,63.25a1.42,1.42,0,1,1-1.41-1.42,1.42,1.42,0,0,1,1.41,1.42Zm0,0"/></svg>