<svg id="Слой_1" data-name="Слой 1" xmlns="http://www.w3.org/2000/svg" viewBox="0 0 100 100"><title>Для мужчин</title><path d="M80.37,52.63c-.31-4.3-.62-8.74-.62-12.55,0-18.84-4.51-21.47-5-21.71L63.61,14.09a25,25,0,0,0-6.23-5.91A1,1,0,0,0,56.8,8H44.6a1,1,0,0,0-.58.18,24.84,24.84,0,0,0-6.23,5.91L26.67,18.37c-.52.24-5,2.87-5,21.71,0,3.81-.31,8.25-.61,12.55s-.59,8.41-.59,11.94c0,7,.6,27.19.6,27.39a1.06,1.06,0,0,0,1.06,1l9.27-.48a1.06,1.06,0,0,0,1-1.05v-1a69.75,69.75,0,0,0,10.73,2.46,10.1,10.1,0,0,0,1.07.07c3.7,0,5.3-2.42,5.64-3.82,0,0,.88-5,.88-5l.86,4.95c.25,1.46,1.69,3.93,5.35,3.93a10.5,10.5,0,0,0,1.42-.11A98,98,0,0,0,69,90.36v1.1a1.06,1.06,0,0,0,1,1.05L79.3,93a1,1,0,0,0,.71-.28,1,1,0,0,0,.34-.75c0-.2.6-20.35.6-27.39,0-3.53-.28-7.61-.58-11.94Zm-22.54-28c1.26-6.17,1.55-10,1.34-12.34,1.75,1.6,3.52,3.67,3.85,5.58l-3,.63a1,1,0,0,0-.81.82,1.06,1.06,0,0,0,.42,1.08l3.3,2.33c-.8,3.5-4.71,19.71-10.62,28.92.72-3.52,4.59-22.5,5.51-27ZM45.05,10.12h11.3c.33.35.74,1.24.77,3.51H44.28c0-2.26.44-3.16.77-3.51Zm-5.69,5.44h0a17.93,17.93,0,0,1,2.86-3.26c-.21,2.39.08,6.17,1.34,12.34.93,4.56,4.79,23.53,5.51,27-5.91-9.2-9.82-25.42-10.62-28.93l3.3-2.33a1.06,1.06,0,0,0,.42-1.08,1,1,0,0,0-.82-.82l-3-.63a6.46,6.46,0,0,1,1-2.31Zm-9.1,74.89-7.13.37c-.13-4.29-.57-20.19-.57-26.25,0-3.46.28-7.5.58-11.79s.62-8.82.62-12.7c0-11.53,1.7-16.49,2.84-18.52,0,0,5.7,21.11,6.36,26.26-3.47,7.54-2.11,21.28-1.9,23.2a154,154,0,0,0-3.32,17,1.05,1.05,0,0,0,.71,1.14l1.81.59ZM33.64,52.6c.65,6.12,0,9.48-.85,12.55a54.37,54.37,0,0,1,.85-12.55Zm15.52,28-1.4,8.06c-.08.28-.82,2.54-4.41,2.12A83.64,83.64,0,0,1,30,87.45a143.27,143.27,0,0,1,3.62-17.6l8.28-.65a1.06,1.06,0,1,0-.17-2.11l-7.45.59s5.07-8.29-1.7-31.74L28.37,20l8.07-3.1a5.56,5.56,0,0,0-.22,1.9,1,1,0,0,0,.83,1l1.51.32-1.9,1.35a1.05,1.05,0,0,0-.42,1.08c.21,1,5.32,24.69,13.76,33.86.12.81.22,1.64.3,2.47a3,3,0,0,0-1.89-.65,3.1,3.1,0,1,0,2.15,5.32,97,97,0,0,1-1.4,17.11Zm.23-19.33a1,1,0,0,1-2,0,1,1,0,1,1,2,0ZM50.7,49,45.64,24.2a68.81,68.81,0,0,1-1.28-8.45H57a68.81,68.81,0,0,1-1.28,8.45C54.83,28.72,51.34,45.86,50.7,49ZM58,90.8c-3.73.57-4.31-1.82-4.36-2.09l-1.42-8.12s-.21-1.13-.46-2.94c.66-4.83,1.56-14,.26-22C60.09,46,65,23.47,65.16,22.5a1.05,1.05,0,0,0-.42-1.08l-1.9-1.35,1.5-.32a1,1,0,0,0,.84-1,5.82,5.82,0,0,0-.22-1.9L73,20,68.86,36c-6.69,22.93-1.7,31.72-1.7,31.73l-7.45-.59a1.06,1.06,0,0,0-.17,2.11l8.28.65a145.63,145.63,0,0,1,3.62,17.59A117.72,117.72,0,0,1,58,90.8Zm9.75-38.2a54.34,54.34,0,0,1,.84,12.55c-.88-3.07-1.49-6.43-.84-12.55ZM78.27,90.82l-7.13-.37v-.71l1.79-.55A1.06,1.06,0,0,0,73.66,88a154,154,0,0,0-3.32-17c.21-1.92,1.57-15.66-1.9-23.2,2.5-12.74,6.36-26.26,6.36-26.26,1.14,2,2.84,7,2.84,18.52,0,3.88.31,8.37.62,12.7s.58,8.33.58,11.79c0,6.06-.45,22-.57,26.25Zm0,0"/></svg>