<svg id="Слой_1" data-name="Слой 1" xmlns="http://www.w3.org/2000/svg" viewBox="0 0 100 100"><title>Магазины</title><path d="M86.53,21.33,59.36,6.62a5.73,5.73,0,0,0-7.52,2.25L36,38.4H16.62a4.37,4.37,0,0,0-4.41,4.41v7.73h0V90.6A4.36,4.36,0,0,0,16.62,95H78.37a4.35,4.35,0,0,0,4.4-4.4V79.43H84.6a1.69,1.69,0,0,0,1.71-1.72V64.93a1.69,1.69,0,0,0-1.71-1.72H82.77V50.65a4.48,4.48,0,0,0-3.44-4.3l9.45-17.5A5.63,5.63,0,0,0,86.53,21.33ZM67.2,14.78l-17,31.46H45.4l18.15-33.4ZM55,10.48a2.14,2.14,0,0,1,2.8-.86l2.68,1.51L41.53,46.24H35.62ZM16.51,41.84H34l-2.36,4.3H16.51a3.2,3.2,0,0,0-1,.1V42.7A1,1,0,0,1,16.51,41.84ZM82.77,66.65V76H72.57a1.69,1.69,0,0,1-1.72-1.72v-5.9a1.69,1.69,0,0,1,1.72-1.72h10.2Zm-10.2-3.44a5.16,5.16,0,0,0-5.16,5.16v5.9a5.16,5.16,0,0,0,5.16,5.16h6.66V90.6a1,1,0,0,1-1,1H16.51a1,1,0,0,1-1-1V50.65h0a1,1,0,0,1,1-1H78.15a1,1,0,0,1,1,1V63.21Zm13.1-36.08L75.36,46.24H54.1L70.2,16.5l14.61,7.94A1.88,1.88,0,0,1,85.67,27.13Z"/></svg>