<svg id="Слой_1" data-name="Слой 1" xmlns="http://www.w3.org/2000/svg" viewBox="0 0 50 50"><defs><style>.cls-1{fill:#4e4e50;}</style></defs><title>Бренды 1</title><path class="cls-1" d="M43.66,3.71a1.07,1.07,0,0,0-1.83-.33c-2.13,2.48-7,3.35-12.25,4.27C20.15,9.31,8.41,11.39,7,24.51A15.9,15.9,0,0,0,9.65,35.4a24.66,24.66,0,0,0-5.89,9.44,1.08,1.08,0,0,0,.67,1.37,1.13,1.13,0,0,0,.36.06,1.07,1.07,0,0,0,1-.73A22.73,22.73,0,0,1,11,37.08,19,19,0,0,0,25.34,43c7,0,12.43-2.6,16-7.73C48,25.85,46.28,10.91,43.66,3.71ZM39.59,34.05c-3.17,4.52-8,6.81-14.25,6.81a16.89,16.89,0,0,1-12.82-5.28,28.45,28.45,0,0,1,8.81-5.17h0l.55-.22c4.68-1.63,8.83-1.88,10.24-1.56a1.08,1.08,0,1,0,.47-2.11,11.72,11.72,0,0,0-3.11-.13,24.83,24.83,0,0,0,8.69-9.85,1.07,1.07,0,0,0-.5-1.44,1.08,1.08,0,0,0-1.45.5c-2.75,5.71-7.66,9.79-14.92,12.5a9.81,9.81,0,0,0,0-8.64,1.08,1.08,0,1,0-1.93,1c1.88,3.77,0,7.42-1.66,9.23a30.11,30.11,0,0,0-6.5,4.25,13.76,13.76,0,0,1-2.15-9.16C10.39,13.23,20.33,11.48,30,9.78,34.73,8.94,39.27,8.13,42.14,6,44.29,13.21,45.29,25.9,39.59,34.05Z"/></svg>