<svg id="Слой_1" data-name="Слой 1" xmlns="http://www.w3.org/2000/svg" viewBox="0 0 100 100"><defs><style>.cls-1{fill-rule:evenodd;}</style></defs><title>Монтажная область 38</title><path class="cls-1" d="M65,48.09a1,1,0,0,0-.64.85C64.75,49,65.05,48.46,65,48.09Z"/><path class="cls-1" d="M54.84,48.73c0,.29.16.7.56.7A1.14,1.14,0,0,0,54.84,48.73Z"/><path class="cls-1" d="M64.14,49.29c-.26,0-.46.22-.42.43C64,49.69,64.08,49.51,64.14,49.29Z"/><path class="cls-1" d="M55.61,49.54c-.09.34.36.6.68.53C56.2,49.75,55.92,49.63,55.61,49.54Z"/><path class="cls-1" d="M62.66,50.53a.93.93,0,0,0,.7-.53.63.63,0,0,0-.81.39C62.6,50.42,62.62,50.48,62.66,50.53Z"/><path class="cls-1" d="M56.6,50.39c.16.15.68.34.78,0C57.21,50.35,56.71,50.09,56.6,50.39Z"/><path class="cls-1" d="M61.17,50.74c.16.35.94.14,1-.17C61.9,50.45,61.23,50.43,61.17,50.74Z"/><path class="cls-1" d="M57.7,50.6v.11c.08.18.63.21.75,0S57.91,50.56,57.7,50.6Z"/><path class="cls-1" d="M59.08,50.89c.13.19.7.2.74-.08C59.65,50.7,59.16,50.63,59.08,50.89Z"/><path class="cls-1" d="M60.36,50.92a.44.44,0,0,0,.6-.14C60.83,50.66,60.32,50.65,60.36,50.92Z"/><path class="cls-1" d="M35.69,54.35c-.64-.81-.62-2.3-1.17-3.22A14.07,14.07,0,0,0,34.91,53C35,53.49,35,54.44,35.69,54.35Z"/><path class="cls-1" d="M34,56.09A2.15,2.15,0,0,0,32.65,56c-.42,0-.87.13-1.28.21a2.14,2.14,0,0,0-1.09.39c.78,0,1.68-.27,2.58-.32C33.22,56.25,33.73,56.34,34,56.09Z"/><path class="cls-1" d="M43,59.2c-.57.09-1.07.26-1.07.92.16,0,.08-.2.22-.21a6.87,6.87,0,0,0,2.44-1.06A1.76,1.76,0,0,0,43,59.2Z"/><path class="cls-1" d="M70,59.31c-.13-.14-.56-.08-.6.1A.47.47,0,0,0,70,59.31Z"/><path class="cls-1" d="M68.71,59.45c-.14-.13-.77-.2-.85,0A.94.94,0,0,0,68.71,59.45Z"/><path class="cls-1" d="M67.22,59.56c-.12-.13-.58-.1-.64.07C66.74,59.68,67.16,59.71,67.22,59.56Z"/><path class="cls-1" d="M65.81,59.66a1,1,0,0,0-1,.18A1.1,1.1,0,0,0,65.81,59.66Z"/><path class="cls-1" d="M63.22,60.23a1.13,1.13,0,0,0,.89-.25C63.8,59.91,63.27,59.92,63.22,60.23Z"/><path class="cls-1" d="M62.13,60.44c.26.08.63,0,.67-.28C62.54,60.08,62.15,60.16,62.13,60.44Z"/><path class="cls-1" d="M42.06,60.33c-.22.1-.27.77,0,.85C42.22,61,42.41,60.4,42.06,60.33Z"/><path class="cls-1" d="M60.89,60.83c.28.17.65-.11.81-.28A.62.62,0,0,0,60.89,60.83Z"/><path class="cls-1" d="M60,61.29a.88.88,0,0,0,.71-.35A.52.52,0,0,0,60,61.29Z"/><path class="cls-1" d="M37.46,61.89c-.45-.57-1.46-.47-2.3-.42a22.35,22.35,0,0,0-2.62.32c-.26,0-.62,0-.74.24a33.8,33.8,0,0,0,3.68-.17C36.17,61.82,36.85,61.91,37.46,61.89Z"/><path class="cls-1" d="M58.9,61.79c.3,0,.57-.07.61-.36C59.24,61.49,58.93,61.49,58.9,61.79Z"/><path class="cls-1" d="M42.87,61.61c.81.68,1.29,1.69,2.48,2a15.81,15.81,0,0,1-2.37-2S42.88,61.57,42.87,61.61Z"/><path class="cls-1" d="M57.77,62.07c.2.21.68,0,.82-.21A.66.66,0,0,0,57.77,62.07Z"/><path class="cls-1" d="M56.71,62.35c.2.21.66-.05.89-.14C57.48,61.88,56.78,62.09,56.71,62.35Z"/><path class="cls-1" d="M55.68,62.53c.14.23.71.13.78-.11C56.33,62.22,55.74,62.31,55.68,62.53Z"/><path class="cls-1" d="M38.2,65.15c-.64,0-1.4,0-1.77.31-.08-.08-.11-.21-.21-.28a1.35,1.35,0,0,0-1,.64c.4,0,.46-.35.81-.39,0,.87.87.33,1.21.18.48.27,1.44.17,1.55-.36C38.67,65.12,38.43,65.14,38.2,65.15Z"/><path class="cls-1" d="M67.58,42.82a6.22,6.22,0,0,0,2.33-2.34,5.37,5.37,0,0,0,4-.46,6,6,0,0,0,3.83-5.24c.14-1.89-.77-3-1.14-4.35-.1-.38-.11-.79-.24-1.17a5.9,5.9,0,0,0-1.49-1.91,12.1,12.1,0,0,0-1.31-1.27c-1.09-.9-2.16-2-3.93-1.88a12.51,12.51,0,0,0-5.31-2.72A13.18,13.18,0,0,0,62.05,21a9.85,9.85,0,0,0-3.07.32c-2.74.7-5,2-5.88,4.35a5.81,5.81,0,0,0-1.34,2.94,13,13,0,0,1-.29,3.11c-1.64.38-3.34.56-5,.85s-3.41.47-5,.88-3.13.91-4.67,1.24a16.18,16.18,0,0,0-2.19.75c-.78.29-1.6.37-2.37.6-.3.09-.56.27-.85.35-.13,0-.29,0-.43.07-1.61.57-1,2.71-.7,4.36a21.51,21.51,0,0,0,.53,2.72,29.4,29.4,0,0,0-3.4,1.24c-.85.33-1.74.57-2.55.92-.23.1-.65.18-.6.57.25.2.58,0,.81-.11,2-.68,4.06-1.36,5.88-2,.49,1.77.57,4,1.06,5.73-2,1.55-4.23,2.75-5.56,4.92a22.34,22.34,0,0,0,2.34,3.79,5.31,5.31,0,0,1,.81,1.23,13.5,13.5,0,0,1,.29,2.3c.16,1.61.31,3.18.42,4.75a4.62,4.62,0,0,0,.39,2.19c.67,0,1.34-.32,2.09-.42s1.61-.09,2.44-.15,1.56-.19,2.3-.28,1.51-.3,2.19-.39c.2,0,.42.08.57-.07a8.08,8.08,0,0,0-.14-1.45c.46-.45,1.72-.27,2-.85.91.84,2.17,0,3.18-.25.06.46.23.81.32,1.24a102.45,102.45,0,0,1-13.52,6h0l-.51.29-1,.82a.75.75,0,0,1,0,.15c.63-.26,1.26-.5,1.91-.71,4.8-1.52,9.1-3.89,13.34-5.91.06.32.19.57.25.89-.86.4-1.66.88-2.51,1.31s-1.86.7-2.76,1.09c-3.15,1.39-6.14,3-9.16,4.52l.05.07,0,.09,2.13-.27.48-.19c4-2,7.92-4.14,12-6A43.52,43.52,0,0,0,47.86,74c.23.59.39,1.24.64,1.74s.59.82.89,1.27a5.4,5.4,0,0,0,.92,1.24,1.62,1.62,0,0,0,1.73.42c.48-.19.75-.64,1.1-1.09a6.05,6.05,0,0,0,.6-.89,17.2,17.2,0,0,0,.56-2.4c.06,1.82,0,3.9.12,5.72l.08-.06.27-.73c.07-.43.14-.86.17-1.29s0-.62.05-.93c-.05-.94-.11-1.87-.15-2.78s-.21-1.76-.18-2.59c0-1.11.33-2.27.42-3.43.13-1.6.08-3.29.14-4.81.9-.21,1.78-.36,2.62-.5a14.31,14.31,0,0,0,2.41-.71c1.56-.54,3-1.15,4.67-1.59,1.74,3.71,1.68,9.2,3.79,12.53,0,0,0,0,0,0-1.61-3.72-1.47-9.19-3.36-12.63a6.88,6.88,0,0,1,1-.07,40.75,40.75,0,0,0,2.15,6.08,44.6,44.6,0,0,1,2.06,6.23c-.19-5.08-2.61-8.25-3.86-12.39,1.87-.18,3.76-.06,5.31-.56.63-.21,1.17-.52,1.77-.67a17.6,17.6,0,0,1,.81,3.29c.15,1.21.18,2.52.28,3.85,0,.29,0,.57.07.85a.35.35,0,0,1,.11.31c0,.2,0,.4-.05.6.05.71.08,1.43.09,2.14s.07,1.57.13,2.33c.05.35.12.71.18,1.06s.38.89.6,1.32c-.08-.92-.12-1.87-.17-2.84-.24-5-.63-9.89-1.27-14.51a37.87,37.87,0,0,0-.92-5A14.56,14.56,0,0,0,73.17,51a6.87,6.87,0,0,0-.64-.88,9.59,9.59,0,0,0-2.23-2.34,4.13,4.13,0,0,0-1-.28c-.32-.09-.63-.24-.89-.28a12.54,12.54,0,0,0-1.84,0,2.6,2.6,0,0,0-2.72-.82,4,4,0,0,1-.28-2.09A7.26,7.26,0,0,0,67.58,42.82ZM67.36,42c-.46.2-1.08.62-1.41.71A7.84,7.84,0,0,0,68,40.66,4.44,4.44,0,0,1,67.36,42Zm.68-.39a7.55,7.55,0,0,0,.67-2.09c.49.11.66.54,1,.78C69.2,40.81,68.62,41.23,68,41.65ZM54,37.83a3.23,3.23,0,0,1-.53-2.34c.07-1.08.56-2.14.6-3.08,0-1.16-.69-1.94-.81-3a4.22,4.22,0,0,1,.39-2.05,19.4,19.4,0,0,1,.1,1.94,4.91,4.91,0,0,0,.25.57c.11.35.15.84.25,1.27a8.14,8.14,0,0,1,.32,1.21c0,.84-.75,1.57-.85,2.62A6.47,6.47,0,0,0,54,37.83ZM54.41,30A8.66,8.66,0,0,1,54,27.85c.2.31.35.67.57.95.41,2.77,1.06,5,2.47,6.73a4.08,4.08,0,0,0,.89.67c.31.22.57.5.88.71.93.6,2,1.15,2.87,1.8-.46-.22-.88-.52-1.31-.78s-.94-.42-1.38-.63a5.49,5.49,0,0,1-1.13-.85,9.8,9.8,0,0,1-1.81-2.16A18.34,18.34,0,0,1,54.41,30Zm13.24-4.36c-.56.77-.54,2.42-1.14,3.26A2.78,2.78,0,0,1,67.65,25.65Zm-1-.88a18.48,18.48,0,0,1-2-.64c-.66-.2-1.31-.44-2-.63a13.09,13.09,0,0,0-5.27-.43,13.22,13.22,0,0,1,4.32-.28,14.6,14.6,0,0,1,3.22.88c1.06.35,2.11.7,3.15,1A1.8,1.8,0,0,1,66.66,24.77Zm6.08,7.5c.1-.06.18-.24.28-.18-.23.51-.16,1.13-.46,1.56a2.3,2.3,0,0,1-2,.67c-.82-.06-1.27-.29-1.52-1a4.31,4.31,0,0,1,.57-3.75,3.52,3.52,0,0,1,2.47-.92,4.9,4.9,0,0,1,2.16.14c-1.23.48-.81,3.12-2.26,3.37a1.76,1.76,0,0,1-1.7-.75C70.28,32.48,71.93,32.81,72.74,32.27ZM70,34.8l0,0,0,0c0,.1-.18.51-.4.37A3.51,3.51,0,0,0,70,34.8Zm-.69.27c-.13,0-.2-.1-.31-.14.34,0,.48-.4.81-.36C69.67,34.8,69.45,34.91,69.27,35.07Zm-.78-3.22c0,.94.15,2.15.85,2.58a1.25,1.25,0,0,1-.53.39,4,4,0,0,1-1.09-3.29c.16-2.09,1.57-3.81,4-3.54a6.4,6.4,0,0,0,1.06.21C70.25,28.12,68.5,29.34,68.49,31.85Zm2.16-4.32c-2.66.19-4.11,3.64-3.18,6.12a2.92,2.92,0,0,0,3,2.05,4.52,4.52,0,0,0-.18,1.1,7.57,7.57,0,0,1-2.44-1.34,3.77,3.77,0,0,1-1.2-2,5.25,5.25,0,0,1-.28-1.24,4.89,4.89,0,0,1,1.24-4,2.29,2.29,0,0,1,1.87-.74,4.73,4.73,0,0,1,2.3-.11c.26,0,.5.16.71.18A8.91,8.91,0,0,0,70.65,27.53ZM66.2,38.11c-.14,0-.39-.21-.54-.32a4,4,0,0,1,.64-3c.2.12.25.39.46.5A2.77,2.77,0,0,0,66.2,38.11Zm-3.08,1.27a2.68,2.68,0,0,1-1-.63,19.1,19.1,0,0,0-2.87-2c.07-.06,0-.24.07-.29s0,0,0,0c1.51.63,3.08,2.39,5.16,2.55.49,0,1.07,0,1.31-.22.09.11.31.1.36.25A7.51,7.51,0,0,1,63.12,39.38Zm2.51.36c-.22.1-.52.12-.74.21a5.1,5.1,0,0,1-2.16-.21c-.13,0,0-.07,0,0A6.61,6.61,0,0,0,65.63,39.74ZM65,36.66c-.51-1.57,0-3.34.07-5a3.13,3.13,0,0,1,.85,2A4.16,4.16,0,0,0,65,36.66ZM66,34c.14.06.11.29.21.39A4.13,4.13,0,0,0,65.35,37,3.93,3.93,0,0,1,66,34ZM65,38.32c.18.16.43.21.49.39-3,.16-3.93-1.68-6-2.44.86,0,1.74.71,2.48,1a9,9,0,0,0,1.2.42c.47.12,1,.06,1.42.21C64.8,38,64.87,38.18,65,38.32Zm-4-1.84A2.62,2.62,0,0,0,59.44,36c0-.09,0-.26,0-.29,1.65.26,2.76,1.35,4.88,1.24a2.28,2.28,0,0,0,.25.68A7.49,7.49,0,0,1,61,36.48ZM59.4,35.42a1.38,1.38,0,0,1-.11-.39,6.69,6.69,0,0,0,4.85.89,4.23,4.23,0,0,0,.07.74C62.08,36.78,61.09,35.75,59.4,35.42Zm7.43,3.89a1.71,1.71,0,0,1-.67.29C66.4,39.52,66.59,39.28,66.83,39.31Zm-.74-10.83c0,.26.2.55.18.82a9.61,9.61,0,0,1-.39.95,5,5,0,0,0-.14,1.17c-.08,0-.17-.08-.22-.14a4.2,4.2,0,0,1-1-2.44,8,8,0,0,1,.17-.89,2.79,2.79,0,0,1,.22-.81c.36-.62,1.2-.88,1.94-1.2A3.53,3.53,0,0,0,66.09,28.48Zm-1.52,2.84a4.35,4.35,0,0,1,0,.74c-.84-.13-1.29-.67-2.09-.85C63.18,31.07,63.84,31.44,64.57,31.32Zm-.07,1.06c0,.15-.06.2,0,.35-1.58-.14-2.54-.9-3.75-1.41C62.4,30.9,63.08,32.2,64.5,32.38Zm-3.72-.6a10.26,10.26,0,0,0,3.54,1.45c-.07.36-.08.76-.18,1.09-2.94-.11-4-2.07-5.94-3.22.54.16,1.21,0,1.77.15A5,5,0,0,1,60.78,31.78ZM63,34.39A5.27,5.27,0,0,1,60,33c-.83-.63-1.61-1.36-2.37-2C59.47,31.92,60.55,33.94,63,34.39Zm-4-1.91c1.22,1,3,2.59,5.17,2.16,0,.28-.06.48,0,.78a17.54,17.54,0,0,1-2.3.18,5.09,5.09,0,0,1-2.69-1.06c-.16-.19-.24-.45-.39-.64-.29-.37-.7-.59-1-1-.71-.79-.86-1.92-1.56-2.69.37.11.82.44,1.24.61A4.9,4.9,0,0,0,59,32.48Zm-2,1.31a.72.72,0,0,1,.25-.46,2.66,2.66,0,0,1,1.66,3.22c-.22-.07-.34-.25-.53-.35A2.16,2.16,0,0,0,57,33.79Zm1,2c-.11.06-.23-.13-.32-.24A7.56,7.56,0,0,1,57,34.25a.2.2,0,0,1,0-.1C57.79,34.22,57.9,35,58.06,35.77Zm-.64-2.83c-.34.11-.63.25-.67.64a32.46,32.46,0,0,1-1.45-4C56.32,30.36,56.65,31.88,57.42,32.94Zm-.53,1.81s.17.16,0,.14a12.17,12.17,0,0,1-1.8-4.49C55.75,31.7,56.27,33.39,56.89,34.75Zm2,3.11a12.08,12.08,0,0,1,3.19,1.6c-.92-.18-1.66-1.18-2.9-.92C59.1,38.31,58.84,38.13,58.9,37.86Zm5.88,2.48A11.34,11.34,0,0,0,66,40.09a6.57,6.57,0,0,1-4.46.5c-.72-.24-1.19-.82-2-.85a10.93,10.93,0,0,0-.29-1.06C61.16,39,62.24,40.53,64.78,40.34Zm-2.44.71a7,7,0,0,0,2.33-.14s0,0,.07,0,0,0-.07,0c-1.14.76-3.17.63-4.74.35A9.42,9.42,0,0,1,59.58,40C60.52,40.23,61.16,41,62.34,41.05Zm3,0c.09,0,0,0,0,.07a6.48,6.48,0,0,1-4.18,1.84A3.4,3.4,0,0,1,60,41.44,7.33,7.33,0,0,0,65.38,41Zm1.49-.71A11.88,11.88,0,0,1,63.68,43c-.6.26-1.65.8-2.12.14C64.28,43.12,65.3,41.44,66.87,40.3Zm-.57-2a4,4,0,0,1,.64-2.69,8,8,0,0,0,3.36,1.91C69.56,38.38,67.5,39.08,66.3,38.25ZM70,39.7c-.29-.17-.48-.45-.85-.56.55-.51,1.32-.78,1.59-1.56.14,0,.16-.06.29,0,0,.19-.17.25-.07.43A.06.06,0,0,1,71,38c.25,0,.25-.31.39-.46s.49,0,.67-.07,0,.07,0,.11A8.38,8.38,0,0,1,70,39.7Zm.64-2.83c-.18-.29,0-.83,0-1.17.11,0,.11-.06.22,0a6,6,0,0,0-.11.6C70.74,36.5,70.83,36.8,70.62,36.87Zm.42-1.2a1.5,1.5,0,0,1,.32-.07,4.5,4.5,0,0,1-.25,1.34C70.91,36.64,71.19,36,71,35.67Zm.57-.11a6.16,6.16,0,0,0,1.1-.21,6,6,0,0,1-.11,1.24,1.91,1.91,0,0,1-1,.35A3.38,3.38,0,0,0,71.61,35.56Zm2,1a7,7,0,0,1-2.27,2.65,4.64,4.64,0,0,0,1.06-1.84A3.35,3.35,0,0,0,73.63,36.59Zm2.83-.18a10.94,10.94,0,0,0-.29-2.23c-.17-.59-.55-.94-.49-1.77C76.87,33,77.12,35.08,76.46,36.41Zm-.71-6.79c.2.21.14.45.18.85.08.86.53,1.57.67,2.37a4,4,0,0,0-.92-.82C75.62,31.13,76,30.46,75.75,29.62Zm-.18,3.78a5.4,5.4,0,0,1,.32,4.07c-.49,1.05-2.17,1.78-3.33,2.16a6.71,6.71,0,0,0,2.23-3.47c.14-.51.11-1.07.29-1.62A9.09,9.09,0,0,0,75.57,33.4Zm-1,2.16A5.61,5.61,0,0,1,71,40,9.23,9.23,0,0,0,75,33.37,17.27,17.27,0,0,1,74.58,35.56Zm.21-3.39a12.58,12.58,0,0,1-.53,1.62c-.3,1-.51,2.06-1.27,2.45a1.4,1.4,0,0,0-.11-1c1.13-1.35.5-4.46,1.67-5.77A6.43,6.43,0,0,1,74.79,32.17Zm-.31-2.94a4,4,0,0,0-.85,1.66c-.3,1.16-.08,3-.68,3.68s-1.67.73-2.86.71c-.09-.09.24-.37.28-.57,1.16.08,2.32-.29,2.62-1.13.36-1,.31-2.73.85-3.75a4.68,4.68,0,0,1,.6-.71S74.47,29.19,74.48,29.23ZM70.12,25a4.48,4.48,0,0,1,2.41,1.27,23.61,23.61,0,0,1,1.91,1.7,7,7,0,0,0-4.81-.81A3.56,3.56,0,0,1,70.12,25Zm-.81.1.42-.1a3.21,3.21,0,0,1-.21.74,5.55,5.55,0,0,0-.18.92c0,.21.12.59-.17.64A4.6,4.6,0,0,1,69.31,25.05Zm-.43,2.23a3.56,3.56,0,0,0-1.69.85c.15-1.31.47-2.76,1.84-3A7.43,7.43,0,0,0,68.88,27.28Zm-6.83-5.52a14.63,14.63,0,0,1,3.79,1,28.44,28.44,0,0,1,3,1.66,31.12,31.12,0,0,1-3.6-.92,16.14,16.14,0,0,0-3.54-1,16.08,16.08,0,0,0-5.7.64A11.9,11.9,0,0,1,62.05,21.76Zm-1.27,1.56c2.22.28,4.1,1.5,6.19,1.87-1.18.72-2.65,1.15-3,2.73a20.21,20.21,0,0,1-4.74-1.77c-1.42-.7-2.72-1.71-4.6-1.88A10.54,10.54,0,0,1,60.78,23.32Zm-6.55,1.27a.18.18,0,0,1,.11-.1c1.95,0,3.36,1.17,4.81,1.91a23.71,23.71,0,0,0,2.34,1c.79.3,1.6.53,2.44.89a9.49,9.49,0,0,1-1.38-.18,12.53,12.53,0,0,1-4-1.06,14.64,14.64,0,0,1-2.16-1.24,10.84,10.84,0,0,0-2.16-1.2S54.21,24.59,54.23,24.59Zm-.21.32c1.53.69,2.79,1.76,4.35,2.51a23.9,23.9,0,0,0,5.52,1.31c.08.25,0,.63.11.85-2.43-.95-6.13-.24-8-1.7a8.49,8.49,0,0,1-1.13-1.34,5.93,5.93,0,0,1-.46-.78,4.62,4.62,0,0,1-.49-.85Zm-.32.28a0,0,0,0,1,0,0,11.8,11.8,0,0,0,.92,1.56,10,10,0,0,0,1.06,1.31c1.88,1.65,5.85.85,8.35,1.91a2.42,2.42,0,0,1,.28.74,12.29,12.29,0,0,1-1.55-.18c-1.22,0-2.39.17-3.51.11a7.22,7.22,0,0,1-4.21-1.95c-.07-.2-.26-.27-.39-.42-.6-.75-.74-1.87-1.31-2.66A3.76,3.76,0,0,0,53.7,25.19Zm-.53.78A2,2,0,0,1,53,27.71,4.27,4.27,0,0,1,53.17,26ZM51.08,37.83a11.6,11.6,0,0,0,1,3.11,21.15,21.15,0,0,0,1.27,2.8,2.14,2.14,0,0,0,2.26,1c0,.35,0,.67.07,1a3.77,3.77,0,0,1,.11,1c-.06.26-.67.56-.85.74-.46.49-.7,1.38-1.27,1.72a.7.7,0,0,1-.47.29h0a.67.67,0,0,1-.18.07l-.09,0a.2.2,0,0,1-.11,0,.7.7,0,0,1-.37.09.68.68,0,0,1-.33.1c-1.25.48-2.63.39-3.89,1a.71.71,0,0,1-.42.07c-1.63.48-3.28.87-4.91,1.33l-.12,0a.69.69,0,0,1-.45.15h-.16l-.14.06a.8.8,0,0,1-.47.18h-.1a.75.75,0,0,1-.46.15.72.72,0,0,1-.4-.11c-.64.16-1.29.31-1.94.42a.8.8,0,0,1-.35,0h-.24a1.11,1.11,0,0,1-.3.17.5.5,0,0,1-.21,0,.63.63,0,0,1-.35.11,1.14,1.14,0,0,1-1.75-.71,5.14,5.14,0,0,1-.12-1,4.15,4.15,0,0,0-.34-1,3.77,3.77,0,0,1-.41-1.74.28.28,0,0,1,0-.09,13.78,13.78,0,0,1-1-4.34.22.22,0,0,1,0-.08.66.66,0,0,1-.15-.43c0-.07,0-.13,0-.19a.5.5,0,0,1-.05-.41,8.9,8.9,0,0,1-.2-1.54v0c0-.13-.08-.26-.11-.4a1,1,0,0,1,0-.29.89.89,0,0,1-.08-.17c-.3-1-.38-2.39.65-3a15,15,0,0,1,1.62-.62c.7-.29,1.4-.55,2.12-.77a34.35,34.35,0,0,1,4.58-1A14.32,14.32,0,0,1,45.61,35a.78.78,0,0,1,.26,0l.19,0c1.5-.23,3-.66,4.43-1a.68.68,0,0,1,.66.16l.32-.05c.24.15,0,.45,0,.63A10.72,10.72,0,0,0,51.08,37.83Zm.22-5.59a6.59,6.59,0,0,1,.28,1.27c-2.31.36-4.39,1-6.72,1.31.1-.28.33-.42.28-.85,1.64-.38,3.62-.48,5.27-.92a26.05,26.05,0,0,0-5.31.74,1.06,1.06,0,0,0-.6-.35C46.73,33,49.15,32.76,51.3,32.24ZM44.68,34c.09.17,0,.3-.11.43-.12-.08-.41,0-.49-.11C43.92,33.92,44.47,33.89,44.68,34Zm-13.8,3.11a5.42,5.42,0,0,1,1.56-.53c1.62-.44,3.08-1,4.67-1.48a48.51,48.51,0,0,1,6.65-1.59c.06,0-.24.32-.25.53-3.23.53-6.07,1.58-9.09,2.37a14.6,14.6,0,0,0-2.94.85,4.59,4.59,0,0,0,.28,1.59c.4,1.56.57,3.3.89,5,.21,1.08.49,2.13.74,3.15a11.75,11.75,0,0,0,.92,2.94c-.69-3.12-1.38-6.14-2-9.48-.08-.45-.2-1-.35-1.56s-.41-1.27-.29-1.45.84-.3,1.2-.39c1.31-.31,2.59-.62,3.76-1s2.45-.66,3.71-1a18.64,18.64,0,0,1,3.12-.71,1.54,1.54,0,0,0,.6.71c-2.08.42-4.61.56-6.58,1.17a33.29,33.29,0,0,0-5,1.84,72.1,72.1,0,0,0,3.15,15.54c.46.55,1.62-.19,2.19-.32.34-.08.71-.06,1.06-.11,2.31-.33,4.44-1,6.65-1.49,1.25-.25,2.46-.64,3.65-1s2.51-.54,3.71-.92c.14,0-.29.25-.35.39a12.37,12.37,0,0,0-2.55.64c-1.63.49-3.26,1-5,1.52a9.71,9.71,0,0,1-1.28.35,2.35,2.35,0,0,0-1.23.36,24.15,24.15,0,0,0,5-1.28c1.62-.49,3.24-.94,4.81-1.52-.71.83-2,1.08-3.36,1.49-2.16.65-4.62,1.28-6.83,1.88-.16-.12-.05-.49-.32-.57s-.68.14-1,.21a9.46,9.46,0,0,0-2.76.85c-.12,0,.1.2,0,.25-1.09.35-2.42.46-3.47.85-.24-1-.36-2.11-.6-3.22-.93-4.19-1.48-8.81-2.66-12.85C31.22,38.58,30.68,37.45,30.88,37.15Zm8.74,21.2c-.19-.21-.46-.34-.57-.63.62-.11,1-.46,1.6-.57.18.26.45.44.56.78a.91.91,0,0,0-1.13.14c-.15.15-.16.49-.43.49S39.67,58.46,39.62,58.35Zm4.63-2.79c-.31-.18-.49-.5-.77-.71a14.15,14.15,0,0,1,1.59-.43,1.67,1.67,0,0,0,.42.68A10,10,0,0,1,44.25,55.56Zm1.53-.11a4,4,0,0,0,.6.74c-.35.18-.8.27-1.17.43-.28-.2-.44-.51-.71-.71A4.84,4.84,0,0,1,45.78,55.45Zm-1.84.25c-.5.13-.95.3-1.42.46a3.7,3.7,0,0,1-.67-.85c.5,0,.9-.45,1.31-.39S43.66,55.48,43.94,55.7Zm-1.81.6c-.49.14-.94.34-1.41.5a3.71,3.71,0,0,1-.75-1c.52-.12,1-.27,1.49-.42A3.17,3.17,0,0,1,42.13,56.3Zm-1.77.6c-.52.15-1,.4-1.45.57-.27-.27-.74-.71-.49-1.17.38-.14.82-.24,1.23-.35A3.79,3.79,0,0,1,40.36,56.9Zm.57.14c.51-.12,1-.32,1.45-.46a3,3,0,0,1,.64.68c-.51.2-1.1.32-1.56.56A5.34,5.34,0,0,1,40.93,57Zm2.4.64a.78.78,0,0,1-.63-.07C42.92,57.5,43.29,57.31,43.33,57.68Zm-.6-1.24c.55-.12,1-.33,1.52-.46a5.81,5.81,0,0,0,.64.67,11.7,11.7,0,0,1-1.52.46A2.91,2.91,0,0,1,42.73,56.44Zm2.83,1a3.22,3.22,0,0,1-1.84.28c-.14,0-.1-.22-.21-.28C44.13,57.24,45.26,56.53,45.56,57.4Zm.22.24c.24.15.36.42.56.61,0,.24-.09.43-.1.67-.66-.19-1-.73-1.56-1A7.4,7.4,0,0,0,45.78,57.64Zm.31-.07c.11-.07.3,0,.39-.14.1.16,0,.38-.07.53A1.37,1.37,0,0,1,46.09,57.57Zm-.21-.28a1.2,1.2,0,0,1-.46-.46c.41-.11.77-.27,1.21-.35.16.14,0,.39,0,.6Q46.24,57.17,45.88,57.29Zm.25-2a8.86,8.86,0,0,0,1.1-.36,4.29,4.29,0,0,1-.43,1.14A2.11,2.11,0,0,1,46.13,55.31ZM45.88,55c-.17-.22-.51-.45-.56-.68.78-.16,1.51-.37,2.26-.56.1.19-.25.54-.25.88A4.82,4.82,0,0,0,45.88,55ZM46,53.82c-.71.21-1.44.36-2.08.57-2,.63-3.71,1.13-5.56,1.7a1.15,1.15,0,0,0-.35.46,3.71,3.71,0,0,0,1.41,2c-.76.44-.14,2.12.6,1.27.35.34.84.38,1.17.75a11.14,11.14,0,0,1,.74,1.7,10.76,10.76,0,0,0,1.06,1.3,10.32,10.32,0,0,1-2.15-1.87c-.7-.65-1.44-1.22-2.09-1.91a26.61,26.61,0,0,0-4-4c1.18-.36,2.37-.7,3.58-1,.17.08.2.3.35.39a8.94,8.94,0,0,0,2.94-.71c.31-.1.65-.08.71-.46,2.42-.6,5-1.1,7.25-1.84h.07c-.23.19-.51.33-.78.53s-.44.48-.67.6A13.93,13.93,0,0,1,46,53.82Zm-7.22.46c.05-.13.31-.05.39-.14a.71.71,0,0,1,.14.43,1,1,0,0,0-.35.1C38.78,54.62,38.84,54.37,38.73,54.28Zm1.81,0a3.68,3.68,0,0,1-1,.24.74.74,0,0,0-.14-.35A5.9,5.9,0,0,1,40.5,54,.81.81,0,0,0,40.54,54.25Zm.35-.36a6.13,6.13,0,0,1,.82-.21v.25a3.57,3.57,0,0,1-.78.18C40.91,54,41,53.9,40.89,53.89ZM31,42c-.16-.68-.31-1.36-.43-2a4.67,4.67,0,0,1-.14-2.13c.75,2.76,1.06,5.68,1.7,8.46.32,1.38.68,2.74,1,4.14s.48,2.82.88,4.18a19,19,0,0,1-1.34-4.32C32,47.6,31.65,44.78,31,42ZM29.46,58.78c-.13.08-.2-.23-.32-.39-.75-1.1-1.55-2.42-2.33-3.51A34.21,34.21,0,0,1,32,50.39a11.15,11.15,0,0,1,.46,1.77c-1,.61-2.39.9-3.33,1.59A30.33,30.33,0,0,0,29.46,58.78Zm1.42,10c-.21-5-1.13-9.66-1.35-14.8a16.15,16.15,0,0,1,3-1.45A11.44,11.44,0,0,1,33,54.35a13,13,0,0,0-3,.71c.48.21,1-.06,1.52-.18a12,12,0,0,1,1.63-.28c0,.15.06.23.07.35a13.56,13.56,0,0,0-1.59.32,3.84,3.84,0,0,0-1.41.46c.33.42.94,0,1.45-.1a6.74,6.74,0,0,1,1.62-.32c.37,0,.59.34,1,.35A5.2,5.2,0,0,0,34,57.5a13.09,13.09,0,0,0-3.58.68c1.08,0,2.44-.25,3.68-.32,0,.14.08.25.11.39a6.33,6.33,0,0,0-1.84.28,4.06,4.06,0,0,0-1.56.53c.19.22.53,0,.75,0a8.89,8.89,0,0,1,3-.39,26.45,26.45,0,0,0-3.26.67,2,2,0,0,0-.92.36c.27.3.73.07,1.06,0,1.09-.23,2.3-.42,3.44-.6.54.44,1.08,1.09,1.52,1.52a11.78,11.78,0,0,0-5.38.74,10.77,10.77,0,0,0,2.12-.18c1.12-.11,2.45-.11,3.51-.31,1,.85,1.88,1.81,2.93,2.61,0,1.34.12,2.63.18,3.93C37.11,68.2,33.39,67.91,30.88,68.83ZM40,65.89c0-.67-.09-1.27-.07-2a21.27,21.27,0,0,0,1.81,1.45C41.21,65.55,40.58,65.67,40,65.89Zm-1.16-4.32c.88.89,1.76,1.71,2.72,2.55.29.25.77.49.78,1-.16,0-.32-.19-.5-.32a35.36,35.36,0,0,1-3.36-3.15c-.88-.89-1.83-1.85-2.83-2.76-.3-.28-.82-.64-.92-.92,0-.11,0-.2,0-.32s-.12-.17-.14-.25a5.14,5.14,0,0,1,0-.88c.14,0,.4.17.57.32a12.6,12.6,0,0,1,1.38,1.59,40.6,40.6,0,0,0,5,5c.33.28.84.51.92,1-.2,0-.31-.19-.42-.28-.43-.35-.93-.67-1.38-1.06-1.73-1.5-3.38-3.34-5-4.92a0,0,0,0,1,0,0A33.24,33.24,0,0,0,38.88,61.57Zm4,2.44a1.13,1.13,0,0,1,1.13.32c-.34.11-.77.13-1.13.22Zm0,1.35v-.43c.69.07,1.35-.51,1.84-.17C44.14,64.92,43.57,65.17,42.94,65.36ZM54,71.8c-.25,2.18-.43,4.71-1.52,5.91a2,2,0,0,1-1,.6,2.24,2.24,0,0,1-1.16-.6,6.79,6.79,0,0,1-.82-1.35,28.54,28.54,0,0,1-2.79-8c-.25-1.18-.6-2.32-.89-3.4-1-1-2.13-1.46-3-2.44-.59-.63-.85-1.57-1.52-2.12-.26-.81-1.18-.95-1.91-1.28.11-.48.84-.07,1.13,0a11.63,11.63,0,0,0,1.2.42c-.24-.61-1-.69-1.55-1,.32-.89,1.82.24,2.37.42-.1-.43-.53-.53-.75-.84.51-.71,1.63.74,1.95.42s-.16-.33-.18-.46a3.5,3.5,0,0,1,1.52.64c.1.11-.14.09-.1.24.4.16.93.18,1.13.54-.33,2.31.44,4.06,1.91,4.81.29,3.34.17,7.09,1.35,9.55.19-.18,0-.49,0-.7a35.75,35.75,0,0,1-.68-5.6A6.06,6.06,0,0,1,48.78,66a2,2,0,0,1,.68-.6A7.81,7.81,0,0,1,52,64.69a13.22,13.22,0,0,1,2.72-.39C54.56,66.79,54.33,69.09,54,71.8Zm.78-8.21a22,22,0,0,0-6.09,1.52c0-.19-.13-.43-.07-.67s.58-.49.85-.6A10.48,10.48,0,0,1,54.84,63C54.82,63.21,54.87,63.46,54.8,63.59Zm-.11-1.31h-.88a5.34,5.34,0,0,0-.25-3.68c-.09,1,.38,2.76-.14,3.72a7.69,7.69,0,0,0-1.73.17c-.85-.44-.75-1.82-1.21-2.65a4.55,4.55,0,0,0,.36,2.58c-.53,0-.77-.48-1.17-.67-.81-.68-1-2-1.35-3.11A5.45,5.45,0,0,0,50.13,63a.71.71,0,0,1-.78,0,3.16,3.16,0,0,1-1.1-1.31c-.25-.64-.17-1.38-.42-2-.37,1.76.54,2.83,1.17,3.82-.12.19-.37.25-.57.36-1.21-.65-1.92-1.72-1.8-3.82a18.83,18.83,0,0,1,.95-4.46A7.2,7.2,0,0,1,48,54.25c.3-.45,1.17-.77,1.66-1.06.21-.12.86.12,1.17.28a6.85,6.85,0,0,1,1.35,1A8.73,8.73,0,0,1,53.84,57,10.43,10.43,0,0,1,55,59.91,5.31,5.31,0,0,1,54.69,62.28ZM74,58A35.64,35.64,0,0,1,72.67,52,30.9,30.9,0,0,1,74,58Zm-3.72-9.62c.26.35.63.56.89.92.84,1.17,1,2.8,1.24,4.53a31.28,31.28,0,0,0,1.13,4.6,15.54,15.54,0,0,1-2.51.95c-2.05.44-4.76.24-6.62.82-1,.31-1.94.71-2.9,1.09A18.84,18.84,0,0,1,55.22,63c-.11-.33.29-.16.32-.35s-.29,0-.35-.14a10,10,0,0,0,.39-2.37,8.28,8.28,0,0,0-.92-2.48A9.12,9.12,0,0,0,53.77,56c-.11-.16-.3-.3-.39-.46s-.17-.57-.31-.82a4.4,4.4,0,0,0-2.76-1.84c-.07-.11.12-.14.17-.18.58-.44,1.29-.92,1.91-1.38a20,20,0,0,0,1.84-1.84c.15.71.72,1,1.24,1.38a4.29,4.29,0,0,0,2,.92,16.51,16.51,0,0,0,1.84.15,17.27,17.27,0,0,0,1.91,0,5.64,5.64,0,0,0,2.87-1.13,6.48,6.48,0,0,0,2.16-3A11.35,11.35,0,0,1,70.26,48.41Zm-6-1.28V47a.13.13,0,0,0,0-.11,1.59,1.59,0,0,1,1.1.29c0,.19-.17.27-.14.53.24.15.22-.4.39-.32A6,6,0,0,1,64,49.89a5.17,5.17,0,0,1-4,1.24,10.16,10.16,0,0,1-3.25-.35,4.19,4.19,0,0,1-.78-.46c-.25-.18-.56-.29-.78-.46a1.55,1.55,0,0,1-.57-.92c0-.45.77-1.14,1-1.35a3.21,3.21,0,0,0,2.48,1.84,3.41,3.41,0,0,0,.64,0,12.75,12.75,0,0,0,3.82-1.06A3.3,3.3,0,0,0,64.25,47.13Zm-.67-.24a5.29,5.29,0,0,1-1.84,1.2,8.61,8.61,0,0,1-3,.85,3.16,3.16,0,0,1-2.37-1,15.48,15.48,0,0,0-.46-4.6,2.38,2.38,0,0,0-.5-1.06c-.17.53.22,1.26.11,1.84a2.1,2.1,0,0,1-1.74-.64,11.35,11.35,0,0,1-.63-1.41c-.2-.46-.42-.94-.6-1.42a10.5,10.5,0,0,1-1-3c-.11-1.41.56-2.68.46-4.14a4.67,4.67,0,0,1-.21-1.42,13.26,13.26,0,0,0,.42-1.34,6.68,6.68,0,0,0,0-.89,7,7,0,0,1,.53-3.08,5.58,5.58,0,0,0,.21,1.42c0,.19,0,.44,0,.71.07,1,.76,2.33.68,3.53,0,.53-.24,1-.32,1.53-.26,1.5-.35,3.17.49,4.21.33.4.77.61,1,1,.08-1-.61-1.86-.71-2.87A5.88,5.88,0,0,1,54.8,33a9.15,9.15,0,0,0,2,3.18,8.82,8.82,0,0,1,.78.85c0,.19-.29.17-.46.22,0,.23.25.22.38.31s.28-.33.32-.39c.33.07.12.57.14.85-.12.07-.21,0-.35,0a.53.53,0,0,0,0,1c.82.12.49-1.08.74-1.46.3,0,.08.34,0,.57-.08.52-.07,1-.53,1.06a1,1,0,0,1-.53-.1c-.31-.42-.07-1.37-.64-1.53a2.66,2.66,0,0,0,.25,1.6,1.43,1.43,0,0,0,.81.56c.54,0,.82-.56,1-1.09.61,1.18.6,2.72,1.24,3.82a3.54,3.54,0,0,0,3.11,1.91A3.69,3.69,0,0,0,63.58,46.89Zm-.78-3.26c2.37-.62,3.41-2.56,5.24-3.71,0,0,0,0,0,.07a7.13,7.13,0,0,1-2.55,2.72A3.65,3.65,0,0,1,62.8,43.63Z"/><path class="cls-1" d="M35.51,58l.05,0-.05,0Z"/><path d="M38.4,44a2.08,2.08,0,0,1-.23.25,1.3,1.3,0,0,1-.6.41,1.13,1.13,0,0,1-.32.05,1.08,1.08,0,0,1-.57-.17A1,1,0,0,1,36.3,44a1.87,1.87,0,0,1-.11-.64v-.14a4.55,4.55,0,0,1,.52-1.81,3.4,3.4,0,0,1,.36-.56.89.89,0,0,1,.34-.26l.06,0a.66.66,0,0,1,.48-.19h.18a1,1,0,0,1,.69.53,1.92,1.92,0,0,1,.25,1,1.58,1.58,0,0,1,0,.19,4.06,4.06,0,0,1-.33,1.33c0,.08-.09.18-.15.28l-.07.15a.87.87,0,0,0,.46-.11,2,2,0,0,0,.35-.29s0,0,0,0l0,0h0l0,0a.07.07,0,0,1,0,.06.08.08,0,0,1,0,0l-.13.11a1.69,1.69,0,0,1-.25.2.72.72,0,0,1-.24.13,1,1,0,0,1-.41.07Zm-1.47-1.77,0,.06c0,.19-.09.34-.12.47a2.32,2.32,0,0,0-.07.38,2.56,2.56,0,0,0,0,.39,1.58,1.58,0,0,0,0,.34.89.89,0,0,0,.21.48.47.47,0,0,0,.11.1l.09,0a.34.34,0,0,0,.16,0,1.4,1.4,0,0,0,.33-.19,2.54,2.54,0,0,0,.34-.38,2.07,2.07,0,0,1-.69-.69A2.38,2.38,0,0,1,36.93,42.23Zm1.12,1.49s0,0,0,0a.05.05,0,0,0,0,0,3.11,3.11,0,0,0,.4-1,2.82,2.82,0,0,0,.13-.84,1.78,1.78,0,0,0,0-.31,1.66,1.66,0,0,0-.22-.66.74.74,0,0,0-.22-.24l-.09,0h0l-.08.05-.09.06a1.52,1.52,0,0,0-.35.53,2.62,2.62,0,0,0-.2,1,1.64,1.64,0,0,0,.05.37,2.44,2.44,0,0,0,.35.77A1.23,1.23,0,0,0,38.05,43.72Z"/><path d="M40.91,43.89l.11-.06a1.5,1.5,0,0,0,.35-.36.14.14,0,0,1,.1,0h.07v0h0a1.69,1.69,0,0,1-.22.29.83.83,0,0,1-.26.19.58.58,0,0,1-.17.06l-.06,0s0,0,0,.06l-.08.13-.13.18a.79.79,0,0,1-.61.29.64.64,0,0,1-.28,0,.51.51,0,0,1-.21-.15.73.73,0,0,1-.19-.31,1.12,1.12,0,0,1-.06-.38,1.66,1.66,0,0,1,.19-.78s0,0,0-.09a1.06,1.06,0,0,1,.22-.67.93.93,0,0,1,.59-.34l.16,0a.77.77,0,0,1,.66.37.86.86,0,0,1,.14.47,1.68,1.68,0,0,1-.07.5,5.32,5.32,0,0,1-.19.56l0,0,0,0Zm-1.14-.18v0a1.24,1.24,0,0,0,0,.27,1,1,0,0,0,0,.15.54.54,0,0,0,.13.32.21.21,0,0,0,.14.08l.1,0a.61.61,0,0,0,.24-.17,3.3,3.3,0,0,0,.22-.32A1.33,1.33,0,0,1,39.77,43.71Zm0-.89h.08l.08,0s.06,0,.06.07a.43.43,0,0,0,0,0l0,.13-.08.26a.1.1,0,0,0,0,.1,1,1,0,0,0,.76.47l0-.06a2.85,2.85,0,0,0,.23-.7,1.89,1.89,0,0,0,0-.3,1,1,0,0,0-.14-.52.58.58,0,0,0-.22-.22.3.3,0,0,0-.15-.05.38.38,0,0,0-.13,0A1,1,0,0,0,39.76,42.82Z"/><path d="M43.93,43.41s0,0,0,0l0,0-.12.13c-.25.27-.42.44-.51.53l-.22.2c-.12.1-.22.2-.3.28a.88.88,0,0,1-.45.27l-.13,0h-.06s-.07,0-.07,0a.08.08,0,0,1,0,0l0,0,.09-.05.1-.06a1.7,1.7,0,0,0,.44-.53A3.1,3.1,0,0,0,43,43.2s0-.07,0-.09a1.36,1.36,0,0,0,0-.18.47.47,0,0,0,0-.16.3.3,0,0,0,0-.13.36.36,0,0,0-.15.11,1.77,1.77,0,0,0-.16.22,2.74,2.74,0,0,0-.21.42c-.07.14-.14.32-.22.52l-.06.13c-.08.22-.16.44-.22.67s-.12.48-.18.76l-.1.51c0,.22-.08.39-.11.5a.13.13,0,0,0,0,.06.2.2,0,0,1-.18.16h0a.18.18,0,0,1-.16-.1.55.55,0,0,1-.1-.28,1.54,1.54,0,0,1,0-.24,1.94,1.94,0,0,1,0-.24c0-.15,0-.26,0-.34,0-.3.05-.51.07-.63l.09-.79a12,12,0,0,1,.25-1.2l0-.1a.11.11,0,0,1,.12-.09l.14,0a.16.16,0,0,1,.08.05.16.16,0,0,1,0,.09l0,.2c0,.11,0,.2,0,.26s0,.42-.09.73c0,.05,0,.12,0,.2l0,.18a.78.78,0,0,1,0,.14q0,.09,0,.21v0a.08.08,0,0,0,0,0l.1-.38c.08-.29.17-.55.25-.78a4.88,4.88,0,0,1,.29-.66,2.2,2.2,0,0,1,.21-.32A.5.5,0,0,1,43,42.5a.36.36,0,0,1,.37.27.9.9,0,0,1,.06.27,1.94,1.94,0,0,1-.17.84l0,0s0,0,0,.06l.26-.24.27-.29a.12.12,0,0,1,.09-.06A.13.13,0,0,1,43.93,43.41Z"/><path d="M44.14,44.7l-.08-.23,0-.09s0-.09-.06-.17L43.9,44c0-.09-.06-.19-.09-.31a.8.8,0,0,1-.05-.29.42.42,0,0,1,0-.17,1.63,1.63,0,0,1,.1-.29.68.68,0,0,1,.17-.21.33.33,0,0,1,.22-.09h0a1,1,0,0,1,.52.25l0,0s0,0,0,0a.31.31,0,0,0,0,.07,0,0,0,0,1,0,0s0,0,0,0h-.07a.21.21,0,0,1-.15-.07l-.07,0-.07,0a.36.36,0,0,0-.11.14.75.75,0,0,0-.08.18.78.78,0,0,0,0,.22,1.08,1.08,0,0,0,.07.36c.05.16.13.37.23.63a3.41,3.41,0,0,1,.23.9c0,.06,0,.11,0,.15a1.3,1.3,0,0,1-.19.67.81.81,0,0,1-.26.26.74.74,0,0,1-.36.09h-.14a.41.41,0,0,1-.24-.13.46.46,0,0,1-.1-.27V46a1.71,1.71,0,0,1,0-.31,3.58,3.58,0,0,1,.21-.63.88.88,0,0,1,.22-.28l.06,0Zm.07.25a.4.4,0,0,0-.1.17,1.83,1.83,0,0,0-.17.65v.09a.76.76,0,0,0,0,.14.43.43,0,0,0,.1.23.41.41,0,0,0,.08-.1.78.78,0,0,0,.09-.2,1.44,1.44,0,0,0,.06-.43,2.17,2.17,0,0,0,0-.26,1.52,1.52,0,0,0,0-.19Z"/><path d="M46.57,43.47a.28.28,0,0,1,.21.05.22.22,0,0,1,.13.2.61.61,0,0,1,0,.15.21.21,0,0,1-.07.15.25.25,0,0,1-.15,0,.3.3,0,0,1-.16,0l-.12-.09a.18.18,0,0,1-.08-.09.32.32,0,0,1,0-.14.21.21,0,0,1,.08-.19l.06,0h.15ZM46.81,42h0a.48.48,0,0,1,.22.15.16.16,0,0,1,0,.12.17.17,0,0,1,0,.07.48.48,0,0,1-.14.2.2.2,0,0,1-.13,0l-.1,0a.3.3,0,0,1-.17-.25.34.34,0,0,1,.15-.29l.05,0Z"/><path d="M48.94,40.74a.1.1,0,0,0-.08,0l-.07.08a10,10,0,0,0-.53.85,7.42,7.42,0,0,0-.65,1.76,4.81,4.81,0,0,0-.11,1v.13a4.29,4.29,0,0,0,.09.61l0,.18a.36.36,0,0,0,0,.09.14.14,0,0,1,0,.06s0,0,0,0h-.07a.2.2,0,0,1-.13,0,.12.12,0,0,1-.08-.09c-.06-.15-.11-.28-.14-.38a1.55,1.55,0,0,1-.06-.31,2.86,2.86,0,0,1,0-.53,5.76,5.76,0,0,1,.36-1.68c.09-.22.18-.42.26-.6a3.29,3.29,0,0,1,.26-.49,5.68,5.68,0,0,1,.45-.65l.2-.19a.21.21,0,0,1,.11-.05.19.19,0,0,1,.15.1,0,0,0,0,1,0,.05S48.94,40.72,48.94,40.74Z"/></svg>