<?xml version="1.0" encoding="utf-8"?>
<!-- Generator: Adobe Illustrator 22.1.0, SVG Export Plug-In . SVG Version: 6.00 Build 0)  -->
<svg version="1.1" id="Слой_1" xmlns="http://www.w3.org/2000/svg" xmlns:xlink="http://www.w3.org/1999/xlink" x="0px" y="0px"
	 viewBox="0 0 100 100" style="enable-background:new 0 0 100 100;" xml:space="preserve">
<style type="text/css">
	.st0{clip-path:url(#SVGID_2_);}
	.st1{clip-path:url(#SVGID_4_);}
	.st2{clip-path:url(#SVGID_6_);}
	.st3{clip-path:url(#SVGID_8_);}
	.st4{clip-path:url(#SVGID_10_);}
	.st5{fill:#4E4E50;}
	.st6{stroke:#000000;stroke-width:2;stroke-miterlimit:10;}
	.st7{fill:url(#XMLID_2_);}
	.st8{fill:#FF0000;}
	.st9{fill-rule:evenodd;clip-rule:evenodd;}
	.st10{fill-rule:evenodd;clip-rule:evenodd;fill:#666666;}
	.st11{fill-rule:evenodd;clip-rule:evenodd;fill:#666666;stroke:#666666;stroke-miterlimit:10;}
	.st12{fill-rule:evenodd;clip-rule:evenodd;fill:none;stroke:#666666;stroke-width:2;stroke-miterlimit:10;}
	.st13{fill-rule:evenodd;clip-rule:evenodd;stroke:#000000;stroke-miterlimit:10;}
	.st14{fill-rule:evenodd;clip-rule:evenodd;fill:none;stroke:#000000;stroke-width:2;stroke-miterlimit:10;}
</style>
<g>
	<g>
		<g>
			<path class="st9" d="M65,48.1c-0.4,0.1-0.6,0.4-0.6,0.8C64.8,49,65.1,48.5,65,48.1z"/>
			<path class="st9" d="M54.8,48.7c0,0.3,0.2,0.7,0.6,0.7C55.3,49.1,55.1,48.9,54.8,48.7z"/>
			<path class="st9" d="M64.1,49.3c-0.3,0-0.5,0.2-0.4,0.4C64,49.7,64.1,49.5,64.1,49.3z"/>
			<path class="st9" d="M55.6,49.5c-0.1,0.3,0.4,0.6,0.7,0.5C56.2,49.8,55.9,49.6,55.6,49.5z"/>
			<path class="st9" d="M62.7,50.5c0.4-0.1,0.6-0.3,0.7-0.5c-0.4-0.1-0.7,0.1-0.8,0.4C62.6,50.4,62.6,50.5,62.7,50.5z"/>
			<path class="st9" d="M56.6,50.4c0.2,0.1,0.7,0.3,0.8,0C57.2,50.4,56.7,50.1,56.6,50.4z"/>
			<path class="st9" d="M61.2,50.7c0.2,0.3,0.9,0.1,1-0.2C61.9,50.4,61.2,50.4,61.2,50.7z"/>
			<path class="st9" d="M57.7,50.6c0,0,0,0.1,0,0.1c0.1,0.2,0.6,0.2,0.7,0C58.4,50.5,57.9,50.6,57.7,50.6z"/>
			<path class="st9" d="M59.1,50.9c0.1,0.2,0.7,0.2,0.7-0.1C59.7,50.7,59.2,50.6,59.1,50.9z"/>
			<path class="st9" d="M60.4,50.9c0.2,0.1,0.5,0.1,0.6-0.1C60.8,50.7,60.3,50.6,60.4,50.9z"/>
			<path class="st9" d="M35.7,54.4c-0.6-0.8-0.6-2.3-1.2-3.2c0,0.6,0.3,1.2,0.4,1.8C35,53.5,35,54.4,35.7,54.4z"/>
			<path class="st9" d="M34,56.1c-0.3-0.2-0.9-0.1-1.3-0.1c-0.4,0-0.9,0.1-1.3,0.2c-0.4,0.1-0.9,0.1-1.1,0.4c0.8,0,1.7-0.3,2.6-0.3
				C33.2,56.2,33.7,56.3,34,56.1z"/>
			<path class="st9" d="M43,59.2c-0.6,0.1-1.1,0.3-1.1,0.9c0.2,0,0.1-0.2,0.2-0.2c1-0.2,1.7-0.6,2.4-1.1C44,58.7,43.4,58.9,43,59.2z
				"/>
			<path class="st9" d="M70,59.3c-0.1-0.1-0.6-0.1-0.6,0.1C69.5,59.5,69.9,59.5,70,59.3z"/>
			<path class="st9" d="M68.7,59.4c-0.1-0.1-0.8-0.2-0.8,0C68,59.6,68.6,59.6,68.7,59.4z"/>
			<path class="st9" d="M67.2,59.6c-0.1-0.1-0.6-0.1-0.6,0.1C66.7,59.7,67.2,59.7,67.2,59.6z"/>
			<path class="st9" d="M65.8,59.7c-0.3-0.1-0.9,0-1,0.2C65.1,60,65.6,59.8,65.8,59.7z"/>
			<path class="st9" d="M63.2,60.2c0.3,0,0.7-0.1,0.9-0.2C63.8,59.9,63.3,59.9,63.2,60.2z"/>
			<path class="st9" d="M62.1,60.4c0.3,0.1,0.6,0,0.7-0.3C62.5,60.1,62.1,60.2,62.1,60.4z"/>
			<path class="st9" d="M42.1,60.3c-0.2,0.1-0.3,0.8,0,0.8C42.2,61,42.4,60.4,42.1,60.3z"/>
			<path class="st9" d="M60.9,60.8c0.3,0.2,0.6-0.1,0.8-0.3C61.4,60.4,61,60.6,60.9,60.8z"/>
			<path class="st9" d="M60,61.3c0.2,0,0.6-0.1,0.7-0.4C60.5,60.8,60,61,60,61.3z"/>
			<path class="st9" d="M37.5,61.9c-0.4-0.6-1.5-0.5-2.3-0.4c-0.9,0.1-1.8,0.2-2.6,0.3c-0.3,0-0.6,0-0.7,0.2
				c1.1,0.1,2.4-0.1,3.7-0.2C36.2,61.8,36.9,61.9,37.5,61.9z"/>
			<path class="st9" d="M58.9,61.8c0.3,0,0.6-0.1,0.6-0.4C59.2,61.5,58.9,61.5,58.9,61.8z"/>
			<path class="st9" d="M42.9,61.6c0.8,0.7,1.3,1.7,2.5,2c-0.9-0.6-1.6-1.3-2.4-2C42.9,61.6,42.9,61.6,42.9,61.6z"/>
			<path class="st9" d="M57.8,62.1c0.2,0.2,0.7,0,0.8-0.2C58.3,61.7,57.9,61.8,57.8,62.1z"/>
			<path class="st9" d="M56.7,62.4c0.2,0.2,0.7-0.1,0.9-0.1C57.5,61.9,56.8,62.1,56.7,62.4z"/>
			<path class="st9" d="M55.7,62.5c0.1,0.2,0.7,0.1,0.8-0.1C56.3,62.2,55.7,62.3,55.7,62.5z"/>
			<path class="st9" d="M38.2,65.1c-0.6,0-1.4,0-1.8,0.3c-0.1-0.1-0.1-0.2-0.2-0.3c-0.5,0.1-0.8,0.3-1,0.6c0.4,0,0.5-0.3,0.8-0.4
				c0,0.9,0.9,0.3,1.2,0.2c0.5,0.3,1.4,0.2,1.6-0.4C38.7,65.1,38.4,65.1,38.2,65.1z"/>
			<path class="st9" d="M67.6,42.8c1-0.6,1.8-1.4,2.3-2.3c1.4,0.5,2.8,0,4-0.5c2.1-0.8,3.6-2.7,3.8-5.2c0.1-1.9-0.8-3-1.1-4.4
				c-0.1-0.4-0.1-0.8-0.2-1.2c-0.3-0.8-0.9-1.3-1.5-1.9c-0.4-0.5-0.8-0.9-1.3-1.3c-1.1-0.9-2.2-2.1-3.9-1.9
				c-1.3-1.2-3.2-2.2-5.3-2.7c-0.7-0.2-1.5-0.4-2.2-0.5c-1-0.1-2.1,0.1-3.1,0.3c-2.7,0.7-5,2-5.9,4.4c-0.6,0.8-1.2,1.7-1.3,2.9
				c-0.1,1,0.1,2.2-0.3,3.1c-1.6,0.4-3.3,0.6-5,0.8c-1.7,0.3-3.4,0.5-5,0.9c-1.6,0.4-3.1,0.9-4.7,1.2c-0.8,0.2-1.5,0.5-2.2,0.7
				c-0.8,0.3-1.6,0.4-2.4,0.6c-0.3,0.1-0.6,0.3-0.8,0.4c-0.1,0-0.3,0-0.4,0.1c-1.6,0.6-1,2.7-0.7,4.4c0.2,1,0.3,1.9,0.5,2.7
				c-1.1,0.3-2.3,0.8-3.4,1.2c-0.9,0.3-1.7,0.6-2.5,0.9c-0.2,0.1-0.6,0.2-0.6,0.6c0.3,0.2,0.6,0,0.8-0.1c2-0.7,4.1-1.4,5.9-2
				c0.5,1.8,0.6,4,1.1,5.7c-1.9,1.5-4.2,2.8-5.6,4.9c0.6,1.4,1.5,2.6,2.3,3.8c0.3,0.4,0.7,0.8,0.8,1.2c0.2,0.7,0.2,1.5,0.3,2.3
				c0.2,1.6,0.3,3.2,0.4,4.7c0.1,0.8,0,1.7,0.4,2.2c0.7-0.1,1.3-0.3,2.1-0.4c0.8-0.1,1.6-0.1,2.4-0.1c0.8-0.1,1.6-0.2,2.3-0.3
				c0.8-0.1,1.5-0.3,2.2-0.4c0.2,0,0.4,0.1,0.6-0.1c0.1-0.5-0.1-1-0.1-1.5c0.5-0.4,1.7-0.3,1.9-0.8c0.9,0.8,2.2,0,3.2-0.2
				c0.1,0.5,0.2,0.8,0.3,1.2c-4.2,2.2-8.8,4.3-13.5,5.9c0,0,0,0,0,0c-0.2,0.1-0.3,0.2-0.5,0.3c-0.3,0.3-0.6,0.6-1,0.8
				c0,0,0,0.1,0,0.1c0.6-0.3,1.3-0.5,1.9-0.7c4.8-1.5,9.1-3.9,13.3-5.9c0.1,0.3,0.2,0.6,0.2,0.9c-0.9,0.4-1.7,0.9-2.5,1.3
				c-0.9,0.4-1.9,0.7-2.8,1.1c-3.1,1.4-6.1,3-9.2,4.5c0,0,0,0,0,0.1c0,0,0,0.1,0,0.1c0.7-0.1,1.4-0.2,2.1-0.3
				c0.2-0.1,0.3-0.1,0.5-0.2c4-2,7.9-4.1,12-6c0.4,1.7,1,3.8,1.7,5.4c0.2,0.6,0.4,1.2,0.6,1.7c0.2,0.4,0.6,0.8,0.9,1.3
				c0.3,0.5,0.6,1,0.9,1.2c0.5,0.4,1.1,0.7,1.7,0.4c0.5-0.2,0.8-0.6,1.1-1.1c0.2-0.3,0.5-0.6,0.6-0.9c0.3-0.7,0.3-1.7,0.6-2.4
				c0.1,1.8,0,3.9,0.1,5.7c0,0,0,0,0.1-0.1c0.1-0.2,0.2-0.5,0.3-0.7c0.1-0.4,0.1-0.9,0.2-1.3c0-0.3,0-0.6,0-0.9
				c0-0.9-0.1-1.9-0.2-2.8c0-0.9-0.2-1.8-0.2-2.6c0-1.1,0.3-2.3,0.4-3.4c0.1-1.6,0.1-3.3,0.1-4.8c0.9-0.2,1.8-0.4,2.6-0.5
				c0.8-0.1,1.6-0.4,2.4-0.7c1.6-0.5,3-1.2,4.7-1.6c1.7,3.7,1.7,9.2,3.8,12.5c0,0,0,0,0,0c-1.6-3.7-1.5-9.2-3.4-12.6
				c0.3,0,0.7-0.1,1-0.1c0.6,2.2,1.3,4.2,2.2,6.1c0.9,1.9,1.4,4,2.1,6.2c-0.2-5.1-2.6-8.2-3.9-12.4c1.9-0.2,3.8-0.1,5.3-0.6
				c0.6-0.2,1.2-0.5,1.8-0.7c0.3,1,0.7,2.1,0.8,3.3c0.1,1.2,0.2,2.5,0.3,3.9c0,0.3,0,0.6,0.1,0.9c0.1,0.1,0.1,0.2,0.1,0.3
				c0,0.2,0,0.4,0,0.6c0,0.7,0.1,1.4,0.1,2.1c0,0.8,0.1,1.6,0.1,2.3c0.1,0.4,0.1,0.7,0.2,1.1c0.2,0.5,0.4,0.9,0.6,1.3
				c-0.1-0.9-0.1-1.9-0.2-2.8c-0.2-5-0.6-9.9-1.3-14.5c-0.2-1.7-0.5-3.5-0.9-5c-0.2-0.5-0.3-1.1-0.5-1.5c-0.1-0.3-0.4-0.6-0.6-0.9
				c-0.6-0.9-1.4-1.8-2.2-2.3c-0.2-0.1-0.6-0.2-1-0.3c-0.3-0.1-0.6-0.2-0.9-0.3c-0.5-0.1-1.2,0-1.8,0C66,46.6,65,46,63.9,46.4
				c-0.2-0.6-0.4-1.3-0.3-2.1C65.4,44.3,66.4,43.5,67.6,42.8z M67.4,42c-0.5,0.2-1.1,0.6-1.4,0.7c0.8-0.5,1.5-1.3,2.1-2.1
				C68,41.2,67.6,41.6,67.4,42z M68,41.6c0.3-0.5,0.6-1.3,0.7-2.1c0.5,0.1,0.7,0.5,1,0.8C69.2,40.8,68.6,41.2,68,41.6z M54,37.8
				c-0.5-0.6-0.6-1.3-0.5-2.3c0.1-1.1,0.6-2.1,0.6-3.1c0-1.2-0.7-1.9-0.8-3c-0.1-0.8,0.1-1.3,0.4-2.1c0.2,0.7,0,1.3,0.1,1.9
				c0,0.2,0.2,0.4,0.2,0.6c0.1,0.4,0.1,0.8,0.2,1.3c0.1,0.4,0.3,0.9,0.3,1.2c0,0.8-0.8,1.6-0.8,2.6C53.6,36.1,53.7,37,54,37.8z
				 M54.4,30c-0.2-0.7-0.4-1.3-0.4-2.2c0.2,0.3,0.3,0.7,0.6,1c0.4,2.8,1.1,5,2.5,6.7c0.3,0.3,0.6,0.5,0.9,0.7
				c0.3,0.2,0.6,0.5,0.9,0.7c0.9,0.6,1.9,1.2,2.9,1.8c-0.5-0.2-0.9-0.5-1.3-0.8c-0.5-0.3-0.9-0.4-1.4-0.6c-0.4-0.2-0.8-0.5-1.1-0.8
				c-0.7-0.6-1.3-1.3-1.8-2.2C55.4,33.1,54.8,31.5,54.4,30z M67.6,25.7c-0.6,0.8-0.5,2.4-1.1,3.3C66,27.6,66.7,26.1,67.6,25.7z
				 M66.7,24.8c-0.7-0.1-1.3-0.4-2-0.6c-0.7-0.2-1.3-0.4-2-0.6c-1.5-0.4-3.3-0.7-5.3-0.4c1.2-0.3,2.9-0.4,4.3-0.3
				c1.1,0.1,2.2,0.5,3.2,0.9c1.1,0.4,2.1,0.7,3.1,1C67.7,25,67.1,24.9,66.7,24.8z M72.7,32.3c0.1-0.1,0.2-0.2,0.3-0.2
				c-0.2,0.5-0.2,1.1-0.5,1.6c-0.3,0.5-1.2,0.7-2,0.7c-0.8-0.1-1.3-0.3-1.5-1c-0.4-1.2-0.1-3,0.6-3.8c0.6-0.7,1.5-0.9,2.5-0.9
				c0.7,0,1.5-0.1,2.2,0.1c-1.2,0.5-0.8,3.1-2.3,3.4c-0.6,0.1-1.5-0.3-1.7-0.7C70.3,32.5,71.9,32.8,72.7,32.3z M70,34.8
				C70,34.8,70,34.8,70,34.8C70,34.8,70,34.8,70,34.8c-0.1,0.1-0.2,0.5-0.4,0.4C69.7,35.1,69.8,34.9,70,34.8z M69.3,35.1
				c-0.1,0-0.2-0.1-0.3-0.1c0.3-0.1,0.5-0.4,0.8-0.4C69.7,34.8,69.4,34.9,69.3,35.1z M68.5,31.8c0,0.9,0.1,2.1,0.8,2.6
				c-0.1,0.2-0.3,0.3-0.5,0.4c-0.8-0.8-1.2-1.9-1.1-3.3c0.2-2.1,1.6-3.8,4-3.5c0.4,0,0.6,0.2,1.1,0.2C70.3,28.1,68.5,29.3,68.5,31.8
				z M70.7,27.5c-2.7,0.2-4.1,3.6-3.2,6.1c0.4,1.1,1.4,2.2,3,2.1c-0.1,0.3-0.1,0.7-0.2,1.1c-0.8-0.2-1.8-0.8-2.4-1.3
				c-0.6-0.5-0.9-1-1.2-1.9c-0.1-0.4-0.3-0.9-0.3-1.2c-0.1-1.8,0.4-3.1,1.2-4c0.5-0.5,1.1-0.8,1.9-0.7c0.4-0.3,1.6-0.2,2.3-0.1
				c0.3,0,0.5,0.2,0.7,0.2C72,27.6,71.3,27.5,70.7,27.5z M66.2,38.1c-0.1,0-0.4-0.2-0.5-0.3c-0.2-1.2,0.1-2.3,0.6-3
				c0.2,0.1,0.3,0.4,0.5,0.5C66.3,35.9,65.7,37.2,66.2,38.1z M63.1,39.4c-0.3-0.1-0.7-0.4-1-0.6c-0.9-0.7-1.9-1.5-2.9-2
				c0.1-0.1,0-0.2,0.1-0.3c0,0,0,0,0,0c1.5,0.6,3.1,2.4,5.2,2.5c0.5,0,1.1,0.1,1.3-0.2c0.1,0.1,0.3,0.1,0.4,0.2
				C65.3,39.3,64.2,39.6,63.1,39.4z M65.6,39.7c-0.2,0.1-0.5,0.1-0.7,0.2c-0.8,0-1.6,0-2.2-0.2c-0.1,0,0-0.1,0,0
				C63.6,39.9,64.8,40,65.6,39.7z M65,36.7c-0.5-1.6,0-3.3,0.1-5c0.5,0.4,0.7,1.2,0.8,2C65.3,34.3,64.9,35.3,65,36.7z M65.9,34
				c0.1,0.1,0.1,0.3,0.2,0.4c-0.5,0.6-0.8,1.4-0.8,2.5C65.1,35.8,65.5,34.7,65.9,34z M65,38.3c0.2,0.2,0.4,0.2,0.5,0.4
				c-3,0.2-3.9-1.7-6-2.4c0.9,0,1.7,0.7,2.5,1c0.4,0.2,0.8,0.3,1.2,0.4c0.5,0.1,1,0.1,1.4,0.2C64.8,38,64.9,38.2,65,38.3z M61,36.5
				c-0.5-0.3-0.9-0.5-1.6-0.5c0-0.1,0-0.3,0-0.3c1.6,0.3,2.8,1.3,4.9,1.2c0.1,0.2,0.1,0.5,0.2,0.7C63.1,37.5,62,37.1,61,36.5z
				 M59.4,35.4c-0.1-0.1-0.1-0.2-0.1-0.4c1.2,0.7,2.9,1.3,4.8,0.9c0,0.3,0,0.5,0.1,0.7C62.1,36.8,61.1,35.7,59.4,35.4z M66.8,39.3
				c-0.2,0.2-0.4,0.2-0.7,0.3C66.4,39.5,66.6,39.3,66.8,39.3z M66.1,28.5c0,0.3,0.2,0.5,0.2,0.8c0,0.3-0.3,0.6-0.4,1
				c-0.1,0.4-0.1,0.7-0.1,1.2c-0.1,0-0.2-0.1-0.2-0.1c-0.4-0.5-1.1-1.5-1-2.4c0-0.2,0.1-0.6,0.2-0.9c0.1-0.3,0.1-0.6,0.2-0.8
				c0.4-0.6,1.2-0.9,1.9-1.2C66.4,26.4,66,27.5,66.1,28.5z M64.6,31.3c0,0.3,0,0.5,0,0.7c-0.8-0.1-1.3-0.7-2.1-0.8
				C63.2,31.1,63.8,31.4,64.6,31.3z M64.5,32.4c0,0.2-0.1,0.2,0,0.4c-1.6-0.1-2.5-0.9-3.8-1.4C62.4,30.9,63.1,32.2,64.5,32.4z
				 M60.8,31.8c1.1,0.6,2.1,1.2,3.5,1.5c-0.1,0.4-0.1,0.8-0.2,1.1c-2.9-0.1-4-2.1-5.9-3.2c0.5,0.2,1.2,0,1.8,0.1
				C60.2,31.3,60.5,31.6,60.8,31.8z M63,34.4c-1.3-0.1-2.2-0.8-3-1.4c-0.8-0.6-1.6-1.4-2.4-2.1C59.5,31.9,60.6,33.9,63,34.4z
				 M59,32.5c1.2,1,3,2.6,5.2,2.2c0,0.3-0.1,0.5,0,0.8c-0.8,0-1.4,0.3-2.3,0.2c-0.8-0.1-2.2-0.5-2.7-1.1c-0.2-0.2-0.2-0.4-0.4-0.6
				c-0.3-0.4-0.7-0.6-1-1c-0.7-0.8-0.9-1.9-1.6-2.7c0.4,0.1,0.8,0.4,1.2,0.6C57.7,31.6,58.4,31.9,59,32.5z M57,33.8
				c0-0.2,0.1-0.4,0.2-0.5c1.3,0.3,1.9,1.8,1.7,3.2c-0.2-0.1-0.3-0.3-0.5-0.4C58.5,35,58,34.1,57,33.8z M58.1,35.8
				c-0.1,0.1-0.2-0.1-0.3-0.2c-0.3-0.3-0.5-0.9-0.7-1.3c0,0,0-0.1,0-0.1C57.8,34.2,57.9,35,58.1,35.8z M57.4,32.9
				c-0.3,0.1-0.6,0.2-0.7,0.6c-0.6-1.2-1-2.7-1.5-4C56.3,30.4,56.6,31.9,57.4,32.9z M56.9,34.7c0,0,0.2,0.2,0,0.1
				c-0.8-1.3-1.5-2.7-1.8-4.5C55.7,31.7,56.3,33.4,56.9,34.7z M58.9,37.9c1.1,0.4,2.3,0.9,3.2,1.6c-0.9-0.2-1.7-1.2-2.9-0.9
				C59.1,38.3,58.8,38.1,58.9,37.9z M64.8,40.3c0.4,0,0.7-0.2,1.2-0.2c-1.2,0.5-3,1-4.5,0.5c-0.7-0.2-1.2-0.8-2-0.8
				c-0.1-0.4-0.2-0.7-0.3-1.1C61.2,39,62.2,40.5,64.8,40.3z M62.3,41c0.8,0.1,1.6,0.1,2.3-0.1c0,0,0,0,0.1,0c0,0,0,0-0.1,0
				c-1.1,0.8-3.2,0.6-4.7,0.4c-0.2-0.4-0.2-0.8-0.4-1.3C60.5,40.2,61.2,41,62.3,41z M65.4,41C65.5,41,65.4,41,65.4,41
				c-1.1,1-2.2,1.9-4.1,1.9c-0.6-0.4-0.9-0.9-1.2-1.5C61.7,42,64.1,41.8,65.4,41z M66.9,40.3c-0.8,0.8-1.9,2.1-3.2,2.7
				c-0.6,0.3-1.7,0.8-2.1,0.1C64.3,43.1,65.3,41.4,66.9,40.3z M66.3,38.3c-0.1-1,0.2-2.1,0.6-2.7c1,0.7,1.9,1.6,3.4,1.9
				C69.6,38.4,67.5,39.1,66.3,38.3z M70,39.7c-0.3-0.2-0.5-0.5-0.8-0.6c0.5-0.5,1.3-0.8,1.6-1.6c0.1,0,0.2-0.1,0.3,0
				c0,0.2-0.2,0.2-0.1,0.4c0,0,0.1,0,0.1,0c0.3,0,0.2-0.3,0.4-0.5c0.2,0,0.5,0,0.7-0.1c0,0,0,0.1,0,0.1C71.5,38.4,70.9,39.2,70,39.7
				z M70.6,36.9c-0.2-0.3,0-0.8,0-1.2c0.1,0,0.1-0.1,0.2,0c0,0.2-0.1,0.4-0.1,0.6C70.7,36.5,70.8,36.8,70.6,36.9z M71,35.7
				c0.1,0,0.2-0.1,0.3-0.1c-0.1,0.4,0,1-0.2,1.3C70.9,36.6,71.2,36,71,35.7z M71.6,35.6c0.4,0,0.8-0.2,1.1-0.2
				c0,0.5-0.1,0.8-0.1,1.2c-0.3,0.2-0.5,0.4-1,0.4C71.7,36.5,71.7,36,71.6,35.6z M73.6,36.6c-0.4,1.1-1.4,1.9-2.3,2.7
				c0.4-0.5,0.9-1.1,1.1-1.8C72.9,37.2,73.3,36.9,73.6,36.6z M76.5,36.4c-0.1-0.8-0.1-1.6-0.3-2.2c-0.2-0.6-0.6-0.9-0.5-1.8
				C76.9,33,77.1,35.1,76.5,36.4z M75.7,29.6c0.2,0.2,0.1,0.5,0.2,0.8c0.1,0.9,0.5,1.6,0.7,2.4c-0.3-0.3-0.6-0.6-0.9-0.8
				C75.6,31.1,76,30.5,75.7,29.6z M75.6,33.4c0.5,1,0.9,2.9,0.3,4.1c-0.5,1-2.2,1.8-3.3,2.2c1-0.9,1.8-1.9,2.2-3.5
				c0.1-0.5,0.1-1.1,0.3-1.6C75.2,34.2,75.5,33.8,75.6,33.4z M74.6,35.6c-0.4,2.2-1.7,3.6-3.5,4.4c2.1-1.4,3.5-3.6,3.9-6.6
				C74.9,34.1,74.7,34.8,74.6,35.6z M74.8,32.2c-0.1,0.5-0.4,1.1-0.5,1.6c-0.3,1-0.5,2.1-1.3,2.4c0.1-0.3,0.1-0.8-0.1-1
				c1.1-1.3,0.5-4.5,1.7-5.8C74.8,30.3,74.9,31.2,74.8,32.2z M74.5,29.2c-0.4,0.4-0.7,0.9-0.8,1.7c-0.3,1.2-0.1,3-0.7,3.7
				c-0.6,0.7-1.7,0.7-2.9,0.7c-0.1-0.1,0.2-0.4,0.3-0.6c1.2,0.1,2.3-0.3,2.6-1.1c0.4-1,0.3-2.7,0.8-3.8c0.2-0.3,0.4-0.5,0.6-0.7
				C74.5,29.1,74.5,29.2,74.5,29.2z M70.1,24.9c0.9,0,1.8,0.8,2.4,1.3c0.7,0.6,1.3,1.1,1.9,1.7c-1.1-0.7-2.9-1.2-4.8-0.8
				C69.6,26.2,69.8,25.5,70.1,24.9z M69.3,25.1c0.1,0,0.3-0.1,0.4-0.1c0,0.2-0.1,0.4-0.2,0.7c-0.1,0.3-0.2,0.6-0.2,0.9
				c0,0.2,0.1,0.6-0.2,0.6C69,26.5,69.1,25.6,69.3,25.1z M68.9,27.3c-0.7,0.1-1.2,0.5-1.7,0.8c0.2-1.3,0.5-2.8,1.8-3
				C68.8,25.7,68.9,26.5,68.9,27.3z M62.1,21.8c1.2,0.1,2.7,0.5,3.8,1c1.1,0.4,2.1,1.2,3,1.7c-1.2-0.2-2.4-0.6-3.6-0.9
				c-1.2-0.4-2.3-0.9-3.5-1c-2.2-0.2-4.2,0.2-5.7,0.6C57.7,22.4,59.7,21.6,62.1,21.8z M60.8,23.3c2.2,0.3,4.1,1.5,6.2,1.9
				c-1.2,0.7-2.7,1.1-3,2.7c-1.8-0.4-3.3-1-4.7-1.8c-1.4-0.7-2.7-1.7-4.6-1.9C56.2,23.5,58.3,23,60.8,23.3z M54.2,24.6
				c0-0.1,0.1-0.1,0.1-0.1c2,0,3.4,1.2,4.8,1.9c0.8,0.4,1.6,0.7,2.3,1c0.8,0.3,1.6,0.5,2.4,0.9c-0.4,0-0.9-0.1-1.4-0.2
				c-1.5-0.2-2.9-0.5-4-1.1c-0.8-0.4-1.5-0.7-2.2-1.2C55.7,25.3,55,25,54.2,24.6C54.2,24.6,54.2,24.6,54.2,24.6z M54,24.9
				c1.5,0.7,2.8,1.8,4.4,2.5c1.6,0.7,3.5,0.9,5.5,1.3c0.1,0.2,0,0.6,0.1,0.8c-2.4-1-6.1-0.2-8-1.7c-0.4-0.3-0.8-0.9-1.1-1.3
				c-0.2-0.2-0.3-0.5-0.5-0.8c-0.2-0.3-0.4-0.6-0.5-0.8H54z M53.7,25.2C53.7,25.2,53.7,25.2,53.7,25.2c0.3,0.5,0.6,1.1,1,1.6
				c0.3,0.4,0.6,0.9,1.1,1.3c1.9,1.7,5.8,0.9,8.4,1.9c0.1,0.2,0.3,0.5,0.3,0.7c-0.5,0.1-1-0.2-1.6-0.2c-1.2,0-2.4,0.2-3.5,0.1
				c-1.9-0.1-3.1-1.1-4.2-1.9c-0.1-0.2-0.3-0.3-0.4-0.4c-0.6-0.7-0.7-1.9-1.3-2.7C53.5,25.5,53.6,25.4,53.7,25.2z M53.2,26
				c0.2,0.5,0.2,1.4-0.1,1.7C52.9,27.1,53,26.5,53.2,26z M51.1,37.8c0.1,1,0.6,2.1,1,3.1c0.4,1,0.8,2,1.3,2.8c0.4,0.7,1.2,1.2,2.3,1
				c0,0.3,0,0.7,0.1,1c0,0.3,0.2,0.7,0.1,1c-0.1,0.3-0.7,0.6-0.8,0.7c-0.5,0.5-0.7,1.4-1.3,1.7c-0.1,0.1-0.3,0.3-0.5,0.3
				c0,0,0,0,0,0c-0.1,0-0.1,0.1-0.2,0.1c0,0-0.1,0-0.1,0c0,0-0.1,0-0.1,0c-0.1,0.1-0.2,0.1-0.4,0.1c-0.1,0.1-0.2,0.1-0.3,0.1
				c-1.2,0.5-2.6,0.4-3.9,1c-0.1,0.1-0.3,0.1-0.4,0.1c-1.6,0.5-3.3,0.9-4.9,1.3c0,0-0.1,0-0.1,0c-0.1,0.1-0.3,0.2-0.5,0.2
				c-0.1,0-0.1,0-0.2,0c0,0-0.1,0-0.1,0.1c-0.1,0.1-0.3,0.2-0.5,0.2c0,0-0.1,0-0.1,0c-0.1,0.1-0.3,0.2-0.5,0.2c-0.2,0-0.3,0-0.4-0.1
				c-0.6,0.2-1.3,0.3-1.9,0.4c-0.1,0-0.2,0-0.3,0c0,0-0.1,0-0.1,0c0,0-0.1,0-0.1,0c-0.1,0.1-0.2,0.1-0.3,0.2c-0.1,0-0.1,0-0.2,0
				c-0.1,0.1-0.2,0.1-0.4,0.1c-0.6,0.4-1.5,0.2-1.7-0.7c-0.1-0.3-0.1-0.6-0.1-1c0-0.4-0.2-0.7-0.3-1c-0.2-0.6-0.5-1.1-0.4-1.7
				c0,0,0-0.1,0-0.1c-0.5-1.4-1-2.8-1-4.3c0,0,0-0.1,0-0.1c-0.1-0.1-0.1-0.3-0.1-0.4c0-0.1,0-0.1,0-0.2c-0.1-0.1-0.1-0.3,0-0.4
				c-0.1-0.5-0.2-1-0.2-1.5c0,0,0,0,0,0c0-0.1-0.1-0.3-0.1-0.4c0-0.1,0-0.2,0-0.3c0-0.1-0.1-0.1-0.1-0.2c-0.3-1-0.4-2.4,0.6-2.9
				c0.5-0.3,1.1-0.4,1.6-0.6c0.7-0.3,1.4-0.5,2.1-0.8c1.5-0.5,3-0.8,4.6-1c1.2-0.2,2.5-0.7,3.7-0.5c0.1,0,0.2,0,0.3,0
				c0.1,0,0.1,0,0.2-0.1c1.5-0.2,3-0.7,4.4-1c0.3-0.1,0.5,0,0.7,0.2c0.1,0,0.2,0,0.3-0.1c0.2,0.2,0,0.5,0,0.6
				C51.3,35.6,51,36.6,51.1,37.8z M51.3,32.2c0.1,0.4,0.2,0.8,0.3,1.3c-2.3,0.4-4.4,1-6.7,1.3c0.1-0.3,0.3-0.4,0.3-0.8
				c1.6-0.4,3.6-0.5,5.3-0.9c-1.9,0-3.7,0.4-5.3,0.7c-0.2-0.1-0.3-0.3-0.6-0.4C46.7,33,49.2,32.8,51.3,32.2z M44.7,34
				c0.1,0.2,0,0.3-0.1,0.4c-0.1-0.1-0.4,0-0.5-0.1C43.9,33.9,44.5,33.9,44.7,34z M30.9,37.2c0.1-0.2,1.2-0.4,1.6-0.5
				c1.6-0.4,3.1-1,4.7-1.5c2.2-0.7,4.3-1.2,6.7-1.6c0.1,0-0.2,0.3-0.2,0.5c-3.2,0.5-6.1,1.6-9.1,2.4c-1,0.3-2,0.4-2.9,0.8
				c-0.1,0.5,0.2,1.1,0.3,1.6c0.4,1.6,0.6,3.3,0.9,5c0.2,1.1,0.5,2.1,0.7,3.1c0.3,1,0.4,2.1,0.9,2.9c-0.7-3.1-1.4-6.1-2-9.5
				c-0.1-0.4-0.2-1-0.4-1.6c-0.1-0.4-0.4-1.3-0.3-1.5c0.1-0.2,0.8-0.3,1.2-0.4c1.3-0.3,2.6-0.6,3.8-1c1.2-0.4,2.5-0.7,3.7-1
				c0.9-0.3,2-0.6,3.1-0.7c0.1,0.3,0.4,0.6,0.6,0.7c-2.1,0.4-4.6,0.6-6.6,1.2c-1.8,0.6-3.5,1.1-5,1.8c0.4,5.7,1.8,10.7,3.1,15.5
				c0.5,0.6,1.6-0.2,2.2-0.3c0.3-0.1,0.7-0.1,1.1-0.1c2.3-0.3,4.4-1,6.7-1.5c1.2-0.3,2.5-0.6,3.6-1c1.2-0.4,2.5-0.5,3.7-0.9
				c0.1,0-0.3,0.2-0.4,0.4c-0.9,0.1-1.7,0.4-2.5,0.6c-1.6,0.5-3.3,1-5,1.5c-0.4,0.1-0.8,0.3-1.3,0.4c-0.4,0.1-0.9,0.1-1.2,0.4
				c1.8-0.2,3.4-0.8,5-1.3c1.6-0.5,3.2-0.9,4.8-1.5c-0.7,0.8-2,1.1-3.4,1.5c-2.2,0.7-4.6,1.3-6.8,1.9c-0.2-0.1-0.1-0.5-0.3-0.6
				c-0.2-0.1-0.7,0.1-1,0.2c-0.9,0.2-2.2,0.4-2.8,0.8c-0.1,0,0.1,0.2,0,0.2c-1.1,0.4-2.4,0.5-3.5,0.8c-0.2-1-0.4-2.1-0.6-3.2
				c-0.9-4.2-1.5-8.8-2.7-12.8C31.2,38.6,30.7,37.4,30.9,37.2z M39.6,58.4c-0.2-0.2-0.5-0.3-0.6-0.6c0.6-0.1,1-0.5,1.6-0.6
				c0.2,0.3,0.5,0.4,0.6,0.8c-0.5-0.2-0.8-0.2-1.1,0.1c-0.1,0.2-0.2,0.5-0.4,0.5C39.5,58.6,39.7,58.5,39.6,58.4z M44.3,55.6
				c-0.3-0.2-0.5-0.5-0.8-0.7c0.5-0.2,1-0.3,1.6-0.4c0.1,0.3,0.3,0.5,0.4,0.7C45.1,55.3,44.7,55.4,44.3,55.6z M45.8,55.5
				c0.2,0.3,0.4,0.5,0.6,0.7c-0.4,0.2-0.8,0.3-1.2,0.4c-0.3-0.2-0.4-0.5-0.7-0.7C44.8,55.7,45.3,55.6,45.8,55.5z M43.9,55.7
				c-0.5,0.1-0.9,0.3-1.4,0.5c-0.3-0.2-0.5-0.5-0.7-0.8c0.5,0,0.9-0.5,1.3-0.4C43.5,55,43.7,55.5,43.9,55.7z M42.1,56.3
				c-0.5,0.1-0.9,0.3-1.4,0.5c-0.3-0.3-0.6-0.6-0.7-1c0.5-0.1,1-0.3,1.5-0.4C41.7,55.7,42,56,42.1,56.3z M40.4,56.9
				c-0.5,0.1-1,0.4-1.5,0.6c-0.3-0.3-0.7-0.7-0.5-1.2c0.4-0.1,0.8-0.2,1.2-0.4C39.9,56.2,40.3,56.6,40.4,56.9z M40.9,57
				c0.5-0.1,1-0.3,1.5-0.5c0.2,0.2,0.5,0.4,0.6,0.7c-0.5,0.2-1.1,0.3-1.6,0.6C41.3,57.6,41.1,57.4,40.9,57z M43.3,57.7
				c-0.2,0.1-0.5,0-0.6-0.1C42.9,57.5,43.3,57.3,43.3,57.7z M42.7,56.4c0.5-0.1,1-0.3,1.5-0.5c0.2,0.2,0.4,0.5,0.6,0.7
				c-0.5,0.2-1,0.3-1.5,0.5C43.1,56.9,42.9,56.7,42.7,56.4z M45.6,57.4c-0.6,0.1-1.2,0.5-1.8,0.3c-0.1,0-0.1-0.2-0.2-0.3
				C44.1,57.2,45.3,56.5,45.6,57.4z M45.8,57.6c0.2,0.1,0.4,0.4,0.6,0.6c0,0.2-0.1,0.4-0.1,0.7c-0.7-0.2-0.9-0.7-1.6-1
				C45,57.8,45.5,57.8,45.8,57.6z M46.1,57.6c0.1-0.1,0.3-0.1,0.4-0.1c0.1,0.2,0,0.4-0.1,0.5C46.3,57.9,46.2,57.7,46.1,57.6z
				 M45.9,57.3c-0.2-0.1-0.4-0.3-0.5-0.5c0.4-0.1,0.8-0.3,1.2-0.4c0.2,0.1,0,0.4,0,0.6C46.4,57.1,46.1,57.2,45.9,57.3z M46.1,55.3
				c0.3-0.1,0.8-0.2,1.1-0.4c-0.1,0.3-0.2,0.8-0.4,1.1C46.5,55.9,46.3,55.6,46.1,55.3z M45.9,55c-0.2-0.2-0.5-0.4-0.6-0.7
				c0.8-0.2,1.5-0.4,2.3-0.6c0.1,0.2-0.3,0.5-0.2,0.9C46.7,54.7,46.3,54.9,45.9,55z M46,53.8c-0.7,0.2-1.4,0.4-2.1,0.6
				c-2,0.6-3.7,1.1-5.6,1.7c-0.2,0.1-0.2,0.3-0.4,0.5c0.2,0.9,0.8,1.5,1.4,2c-0.8,0.4-0.1,2.1,0.6,1.3c0.3,0.3,0.8,0.4,1.2,0.7
				c0.3,0.3,0.5,1.2,0.7,1.7c0.3,0.6,0.7,0.9,1.1,1.3c-0.9-0.4-1.5-1.2-2.2-1.9c-0.7-0.6-1.4-1.2-2.1-1.9c-1.3-1.4-2.5-2.9-4-4
				c1.2-0.4,2.4-0.7,3.6-1c0.2,0.1,0.2,0.3,0.4,0.4c1.1,0,2.1-0.4,2.9-0.7c0.3-0.1,0.7-0.1,0.7-0.5c2.4-0.6,5-1.1,7.3-1.8h0.1
				c-0.2,0.2-0.5,0.3-0.8,0.5c-0.2,0.2-0.4,0.5-0.7,0.6C47.6,53.6,46.6,53.6,46,53.8z M38.7,54.3c0-0.1,0.3,0,0.4-0.1
				c0.1,0.1,0.1,0.2,0.1,0.4c-0.1,0-0.3,0.1-0.4,0.1C38.8,54.6,38.8,54.4,38.7,54.3z M40.5,54.2c-0.3,0.1-0.6,0.2-1,0.2
				c0-0.1-0.1-0.3-0.1-0.4c0.3-0.1,0.8-0.1,1.1-0.2C40.5,54.1,40.5,54.2,40.5,54.2z M40.9,53.9c0.2-0.1,0.5-0.1,0.8-0.2v0.2
				c-0.2,0.1-0.5,0.1-0.8,0.2C40.9,54,41,53.9,40.9,53.9z M31,42c-0.2-0.7-0.3-1.4-0.4-2.1c-0.1-0.7-0.4-1.4-0.1-2.1
				c0.7,2.8,1.1,5.7,1.7,8.5c0.3,1.4,0.7,2.7,1,4.1c0.3,1.4,0.5,2.8,0.9,4.2c-0.6-1-1-2.9-1.3-4.3C32,47.6,31.7,44.8,31,42z
				 M29.5,58.8c-0.1,0.1-0.2-0.2-0.3-0.4c-0.8-1.1-1.6-2.4-2.3-3.5c1.5-1.7,3.4-3.1,5.2-4.5c0.2,0.5,0.3,1.2,0.5,1.8
				c-1,0.6-2.4,0.9-3.3,1.6C29,55.5,29.3,57.1,29.5,58.8z M30.9,68.8c-0.2-5-1.1-9.7-1.3-14.8c0.8-0.7,2-1,3-1.5
				c0.2,0.5,0.3,1.2,0.5,1.8c-1.1,0.2-2.2,0.3-3,0.7c0.5,0.2,1-0.1,1.5-0.2c0.5-0.1,1.1-0.2,1.6-0.3c0,0.1,0.1,0.2,0.1,0.4
				c-0.5,0.1-1.1,0.2-1.6,0.3c-0.5,0.1-1,0.2-1.4,0.5c0.3,0.4,0.9,0,1.5-0.1c0.4-0.1,1.2-0.4,1.6-0.3c0.4,0,0.6,0.3,1,0.4
				C34,56.2,34,57,34,57.5c-1.3,0.1-2.6,0.2-3.6,0.7c1.1,0.1,2.4-0.2,3.7-0.3c0,0.1,0.1,0.3,0.1,0.4c-0.7,0-1.3,0.2-1.8,0.3
				c-0.6,0.1-1.1,0.2-1.6,0.5c0.2,0.2,0.5,0,0.7,0c0.9-0.2,1.9-0.5,3-0.4c-1.1,0.2-2.2,0.4-3.3,0.7c-0.3,0.1-0.7,0.1-0.9,0.4
				c0.3,0.3,0.7,0.1,1.1,0c1.1-0.2,2.3-0.4,3.4-0.6c0.5,0.4,1.1,1.1,1.5,1.5c-1.7-0.1-4.1,0.1-5.4,0.7c0.6,0.1,1.4-0.1,2.1-0.2
				c1.1-0.1,2.4-0.1,3.5-0.3c1,0.9,1.9,1.8,2.9,2.6c0,1.3,0.1,2.6,0.2,3.9C37.1,68.2,33.4,67.9,30.9,68.8z M40,65.9
				c0-0.7-0.1-1.3-0.1-2c0.6,0.5,1.2,1,1.8,1.5C41.2,65.5,40.6,65.7,40,65.9z M38.9,61.6c0.9,0.9,1.8,1.7,2.7,2.5
				c0.3,0.2,0.8,0.5,0.8,1c-0.2,0-0.3-0.2-0.5-0.3c-1.2-0.9-2.2-2-3.4-3.1c-0.9-0.9-1.8-1.8-2.8-2.8c-0.3-0.3-0.8-0.6-0.9-0.9
				c0-0.1,0-0.2,0-0.3c0-0.1-0.1-0.2-0.1-0.2c-0.1-0.3,0-0.6,0-0.9c0.1,0,0.4,0.2,0.6,0.3c0.5,0.4,0.9,1.1,1.4,1.6
				c1.5,1.8,3.2,3.4,5,5c0.3,0.3,0.8,0.5,0.9,1c-0.2,0-0.3-0.2-0.4-0.3c-0.4-0.4-0.9-0.7-1.4-1.1c-1.7-1.5-3.4-3.3-5-4.9
				c0,0,0,0,0,0C36.5,59.3,37.7,60.4,38.9,61.6z M42.9,64c0.6-0.1,0.8,0,1.1,0.3c-0.3,0.1-0.8,0.1-1.1,0.2V64z M42.9,65.4v-0.4
				c0.7,0.1,1.3-0.5,1.8-0.2C44.1,64.9,43.6,65.2,42.9,65.4z M54,71.8c-0.3,2.2-0.4,4.7-1.5,5.9c-0.2,0.2-0.7,0.6-1,0.6
				c-0.3,0-1-0.4-1.2-0.6c-0.3-0.3-0.6-0.9-0.8-1.3c-1.3-2.3-2.2-5.1-2.8-8c-0.2-1.2-0.6-2.3-0.9-3.4c-1-1-2.1-1.5-3-2.4
				c-0.6-0.6-0.8-1.6-1.5-2.1c-0.3-0.8-1.2-0.9-1.9-1.3c0.1-0.5,0.8-0.1,1.1,0c0.4,0.2,0.8,0.3,1.2,0.4c-0.2-0.6-1-0.7-1.6-1
				c0.3-0.9,1.8,0.2,2.4,0.4c-0.1-0.4-0.5-0.5-0.7-0.8c0.5-0.7,1.6,0.7,1.9,0.4c0.2-0.2-0.2-0.3-0.2-0.5c0.7,0.1,1,0.4,1.5,0.6
				c0.1,0.1-0.1,0.1-0.1,0.2c0.4,0.2,0.9,0.2,1.1,0.5c-0.3,2.3,0.4,4.1,1.9,4.8c0.3,3.3,0.2,7.1,1.3,9.6c0.2-0.2,0-0.5,0-0.7
				c-0.3-1.6-0.7-3.8-0.7-5.6c0-0.5-0.1-1.3,0.1-1.7c0.1-0.2,0.5-0.5,0.7-0.6c0.7-0.4,1.6-0.5,2.5-0.7c0.9-0.1,1.9-0.4,2.7-0.4
				C54.6,66.8,54.3,69.1,54,71.8z M54.8,63.6c-2.2,0.3-4.5,0.7-6.1,1.5c0-0.2-0.1-0.4-0.1-0.7c0.1-0.2,0.6-0.5,0.8-0.6
				c1.5-0.6,3.3-1.1,5.3-0.8C54.8,63.2,54.9,63.5,54.8,63.6z M54.7,62.3h-0.9c0.5-1.1,0.1-2.7-0.2-3.7c-0.1,1,0.4,2.8-0.1,3.7
				c-0.7,0-1.2,0.1-1.7,0.2c-0.8-0.4-0.7-1.8-1.2-2.7c-0.2,0.9,0.1,2,0.4,2.6c-0.5,0-0.8-0.5-1.2-0.7c-0.8-0.7-1-2-1.3-3.1
				c-0.1,1.9,0.8,3.4,1.8,4.3c-0.2,0.1-0.5,0.2-0.8,0c-0.4-0.2-0.9-0.8-1.1-1.3c-0.3-0.6-0.2-1.4-0.4-2c-0.4,1.8,0.5,2.8,1.2,3.8
				c-0.1,0.2-0.4,0.2-0.6,0.4c-1.2-0.7-1.9-1.7-1.8-3.8c0.1-1.4,0.5-3.2,1-4.5c0.2-0.5,0.3-1,0.5-1.3c0.3-0.4,1.2-0.8,1.7-1.1
				c0.2-0.1,0.9,0.1,1.2,0.3c0.4,0.2,1,0.7,1.3,1c0.6,0.6,1.1,1.5,1.6,2.5c0.4,0.9,1,2,1.1,2.9C55.1,60.9,54.9,61.5,54.7,62.3z
				 M74,58c-0.6-1.8-1-3.9-1.3-6.1C73.3,53.8,73.7,55.9,74,58z M70.3,48.4c0.3,0.3,0.6,0.6,0.9,0.9c0.8,1.2,1,2.8,1.2,4.5
				c0.3,1.7,0.7,3.3,1.1,4.6c-0.8,0.3-1.6,0.8-2.5,1c-2,0.4-4.8,0.2-6.6,0.8c-1,0.3-1.9,0.7-2.9,1.1c-1.9,0.8-3.9,1.5-6.3,1.6
				c-0.1-0.3,0.3-0.2,0.3-0.4c0-0.2-0.3,0-0.4-0.1c0.1-0.8,0.5-1.5,0.4-2.4c-0.1-0.8-0.6-1.7-0.9-2.5c-0.3-0.6-0.5-1.1-0.9-1.7
				c-0.1-0.2-0.3-0.3-0.4-0.5c-0.1-0.3-0.2-0.6-0.3-0.8c-0.5-0.8-1.6-1.6-2.8-1.8c-0.1-0.1,0.1-0.1,0.2-0.2c0.6-0.4,1.3-0.9,1.9-1.4
				c0.7-0.5,1.2-1.3,1.8-1.8c0.1,0.7,0.7,1,1.2,1.4c0.6,0.4,1.2,0.8,2,0.9c0.6,0.1,1.2,0.1,1.8,0.1c0.6,0,1.3,0.1,1.9,0
				c1-0.1,2.1-0.5,2.9-1.1c1-0.8,1.7-1.8,2.2-3C67.8,47.7,69,48.1,70.3,48.4z M64.2,47.1V47c0,0,0-0.1,0-0.1c0.5,0,0.8,0.1,1.1,0.3
				c0,0.2-0.2,0.3-0.1,0.5c0.2,0.2,0.2-0.4,0.4-0.3c-0.3,1-0.9,1.7-1.7,2.5c-0.9,0.9-2.2,1.3-4,1.2c-1.2-0.1-2.4,0-3.3-0.4
				c-0.3-0.1-0.5-0.3-0.8-0.5c-0.3-0.2-0.6-0.3-0.8-0.5c-0.2-0.2-0.6-0.6-0.6-0.9c0-0.4,0.8-1.1,1-1.3c0.3,0.9,1.4,1.7,2.5,1.8
				c0.2,0,0.4,0,0.6,0c1.2-0.1,2.8-0.6,3.8-1.1C63.3,48,63.9,47.8,64.2,47.1z M63.6,46.9c-0.4,0.5-1.1,0.9-1.8,1.2
				c-0.9,0.4-1.9,0.8-3,0.8c-1.1,0.1-1.8-0.4-2.4-1c0.1-1.4-0.1-3.3-0.5-4.6c-0.1-0.4-0.2-0.8-0.5-1.1c-0.2,0.5,0.2,1.3,0.1,1.8
				c-0.7,0-1.4-0.2-1.7-0.6c-0.3-0.4-0.4-0.9-0.6-1.4c-0.2-0.5-0.4-0.9-0.6-1.4c-0.3-0.8-0.9-1.9-1-3c-0.1-1.4,0.6-2.7,0.5-4.1
				c0-0.4-0.3-0.9-0.2-1.4c0.1-0.4,0.4-0.8,0.4-1.3c0-0.3,0-0.6,0-0.9c-0.1-1.1,0.2-2.3,0.5-3.1c-0.1,0.5,0.2,1,0.2,1.4
				c0,0.2-0.1,0.4,0,0.7c0.1,1,0.8,2.3,0.7,3.5c0,0.5-0.2,1-0.3,1.5c-0.3,1.5-0.4,3.2,0.5,4.2c0.3,0.4,0.8,0.6,1,1
				c0.1-1-0.6-1.9-0.7-2.9c-0.1-1.4,0.3-2.4,0.8-3.4c0.5,1.3,1.2,2.3,2,3.2c0.3,0.3,0.6,0.5,0.8,0.8c0,0.2-0.3,0.2-0.5,0.2
				c0,0.2,0.3,0.2,0.4,0.3c0.2,0,0.3-0.3,0.3-0.4c0.3,0.1,0.1,0.6,0.1,0.8c-0.1,0.1-0.2-0.1-0.4,0c-0.5,0.1-0.6,0.9,0,1
				c0.8,0.1,0.5-1.1,0.7-1.5c0.3,0,0.1,0.3,0,0.6c-0.1,0.5-0.1,1-0.5,1.1c-0.2,0-0.3,0-0.5-0.1c-0.3-0.4-0.1-1.4-0.6-1.5
				c-0.1,0.5,0,1.2,0.2,1.6c0.2,0.2,0.6,0.5,0.8,0.6c0.5,0,0.8-0.6,1-1.1c0.6,1.2,0.6,2.7,1.2,3.8c0.6,1.1,1.5,1.8,3.1,1.9
				C63,45.4,63.1,46.3,63.6,46.9z M62.8,43.6c2.4-0.6,3.4-2.6,5.2-3.7c0,0,0,0,0,0.1c-0.4,1.1-1.5,2-2.5,2.7
				C64.8,43.2,64,43.7,62.8,43.6z"/>
			<path class="st9" d="M35.5,58C35.5,58,35.5,58,35.5,58C35.5,58,35.5,58,35.5,58C35.5,58,35.5,58,35.5,58z"/>
		</g>
	</g>
	<g>
		<path d="M35.9,45.2c0,0.1,0,0.2,0.1,0.3c0,0.1,0.1,0.2,0.1,0.3c0,0,0,0,0.1,0.1c0,0,0.1,0,0.1,0c0,0,0,0,0,0c0,0,0.1,0,0.1-0.1
			c0,0,0.1,0,0.1-0.1c0.1-0.1,0.2-0.3,0.2-0.4l0.2-0.4l0.1-0.3c0,0,0,0,0,0c0,0,0,0,0,0c0.1,0,0.1,0,0.1,0c0,0,0,0,0,0
			c-0.1,0.2-0.1,0.4-0.1,0.5c0,0.1-0.1,0.2-0.1,0.4c-0.1,0.1-0.1,0.2-0.1,0.3c-0.1,0.1-0.2,0.2-0.4,0.2c-0.1,0-0.2,0-0.2,0
			C36.1,46,36,46,36,45.9c-0.1,0-0.1-0.1-0.2-0.2c0-0.1-0.1-0.1-0.1-0.2c0-0.1-0.1-0.2-0.1-0.4c0-0.1,0-0.2,0-0.2l0-0.4
			c0-0.1,0-0.3,0-0.5c0.1-0.4,0.2-0.8,0.3-1.2c0.1-0.2,0.2-0.3,0.2-0.4c0.1-0.1,0.2-0.2,0.3-0.2c0.1,0,0.2,0,0.3,0c0,0,0,0,0,0
			c0.2,0.1,0.2,0.2,0.3,0.3c0,0,0,0.1,0,0.2c0,0.2-0.1,0.4-0.2,0.5c0,0,0,0-0.1,0c0,0-0.1,0-0.1,0c0,0-0.1,0-0.1,0c0,0,0,0,0-0.1
			c0.1-0.2,0.1-0.3,0.1-0.4c0-0.1,0-0.1,0-0.2c0,0,0-0.1,0-0.1c0-0.1,0-0.1-0.1-0.1c0,0,0,0-0.1,0l0,0c0,0-0.1,0-0.1,0.1
			c0,0-0.1,0.1-0.1,0.1c-0.1,0.1-0.2,0.2-0.2,0.4c-0.2,0.5-0.3,1.1-0.3,1.7c0,0.1,0,0.2,0,0.3C35.9,45.1,35.9,45.2,35.9,45.2z"/>
		<path d="M38.3,44.7C38.3,44.7,38.4,44.6,38.3,44.7c0.2-0.1,0.2-0.2,0.3-0.4c0,0,0-0.1,0.1-0.1c0,0,0,0,0.1,0c0,0,0,0,0,0
			c0,0,0,0,0,0c0,0.1-0.1,0.2-0.1,0.2c0,0.1-0.1,0.1-0.2,0.2C38.4,44.7,38.3,44.8,38.3,44.7c0,0.1,0,0.1,0,0.1c0,0,0,0,0,0.1
			c0,0,0,0.1,0,0.1s0,0.1-0.1,0.1c-0.1,0.2-0.2,0.3-0.4,0.3c-0.1,0-0.1,0-0.2,0c-0.1,0-0.1,0-0.2-0.1c-0.1-0.1-0.1-0.1-0.2-0.2
			c0-0.1-0.1-0.2-0.1-0.3c0-0.2,0-0.4,0-0.6c0,0,0,0,0-0.1c0-0.2,0-0.4,0.1-0.5c0.1-0.2,0.2-0.3,0.4-0.3c0,0,0.1,0,0.1,0
			c0.2,0,0.4,0,0.5,0.2c0.1,0.1,0.1,0.2,0.2,0.3c0,0.1,0,0.3,0,0.4C38.4,44.3,38.3,44.5,38.3,44.7C38.3,44.6,38.3,44.6,38.3,44.7
			C38.3,44.7,38.3,44.7,38.3,44.7L38.3,44.7z M37.4,44.7C37.4,44.7,37.4,44.7,37.4,44.7c0,0.1,0,0.2,0,0.2c0,0,0,0.1,0,0.1
			c0,0.1,0.1,0.2,0.1,0.2c0,0,0.1,0,0.1,0c0,0,0,0,0.1,0c0.1,0,0.1-0.1,0.2-0.2c0-0.1,0.1-0.2,0.1-0.3
			C37.8,44.9,37.6,44.8,37.4,44.7z M37.3,44.1L37.3,44.1l0.1,0c0,0,0,0,0.1,0c0,0,0,0,0,0l0,0.1l0,0.2c0,0,0,0,0,0.1
			c0.2,0.2,0.4,0.3,0.6,0.2l0,0c0-0.2,0.1-0.4,0.1-0.6c0-0.1,0-0.2,0-0.2c0-0.1,0-0.1,0-0.2c0-0.1-0.1-0.2-0.1-0.2
			c-0.1-0.1-0.1-0.1-0.2-0.1c0,0-0.1,0-0.1,0c0,0-0.1,0-0.1,0C37.4,43.6,37.3,43.8,37.3,44.1z"/>
		<path d="M40.8,45.3L40.8,45.3l0.1-0.2c0-0.1,0-0.1,0-0.2c0-0.2,0.1-0.5,0.1-0.7c0,0,0-0.1,0-0.2c0-0.1,0-0.1,0-0.2
			c0,0,0-0.1,0-0.1c0,0,0,0,0.1,0c0,0,0,0.1,0,0.1c0,0.4-0.1,0.8-0.1,1.1c0,0.1,0,0.2-0.1,0.2C40.9,45.3,40.9,45.3,40.8,45.3
			c0,0.1,0,0.1,0,0.1c0,0-0.1,0-0.1,0c-0.1,0-0.1-0.1-0.1-0.1c0,0,0-0.1-0.1-0.2c-0.1-0.3-0.1-0.6-0.1-0.9c0-0.1,0-0.2,0-0.4l0-0.2
			l0,0c0,0,0,0,0,0.1l0,0.1c0,0,0,0.1,0,0.1c0,0,0,0.1,0,0.1l-0.1,0.6c0,0.1,0,0.1,0,0.2c0,0,0,0,0,0.1c0,0,0,0.1-0.1,0.1
			c0,0-0.1,0-0.1,0c0,0-0.1,0-0.1,0s-0.1,0-0.1-0.1c0,0-0.1-0.1-0.1-0.2c0,0,0-0.1,0-0.2c0-0.1,0-0.1,0-0.3c0-0.2,0-0.3,0-0.4l0-0.2
			c0,0,0,0,0-0.1l0,0c0,0.1-0.1,0.3-0.1,0.5c0,0.2-0.1,0.5-0.1,0.7c0,0.1,0,0.1,0,0.2c0,0,0,0.1-0.1,0.1c0,0-0.1,0-0.1,0
			c0,0-0.1,0-0.1,0c0,0-0.1-0.1-0.1-0.1c-0.1-0.1-0.1-0.2-0.1-0.3c0-0.3-0.1-0.5,0-0.8c0,0,0,0,0-0.1c0,0,0-0.1,0-0.1
			c0,0,0,0,0.1-0.1c0,0,0,0,0,0c0,0,0.1,0,0.1,0c0,0,0,0,0.1,0.1l0,0c0,0.1,0,0.3,0,0.3l0,0.1c0,0.1,0,0.1,0,0.2c0,0.1,0,0.1,0,0.2
			l0.1,0.3c0,0,0,0,0,0c0,0,0-0.1,0-0.1l0.1-0.3c0-0.2,0.1-0.4,0.1-0.5c0-0.1,0.1-0.3,0.1-0.5c0,0,0-0.1,0.1-0.2c0,0,0,0,0,0
			c0,0,0,0,0,0c0,0,0,0,0.1,0c0,0,0.1,0,0.1,0c0,0,0.1,0,0.1,0.1c0,0.1,0.1,0.1,0.1,0.2c0,0.2,0,0.4,0.1,0.6l0,0.3c0,0,0,0,0,0.1
			l0,0c0,0,0-0.1,0-0.1c0-0.1,0-0.2,0-0.2c0-0.3,0.1-0.5,0.2-0.7c0-0.1,0.1-0.2,0.1-0.2c0,0,0-0.1,0.1-0.1c0,0,0.1,0,0.1,0
			c0.1,0,0.1,0,0.2,0c0,0,0,0,0.1,0.1c0,0.1,0,0.1,0.1,0.2c0,0.1,0,0.3,0,0.6c0,0.1,0,0.2,0,0.2c0,0,0,0.1,0,0.3c0,0.2,0,0.3,0,0.5
			c0,0,0,0.1,0,0.1C40.7,45.1,40.7,45.2,40.8,45.3C40.7,45.2,40.7,45.2,40.8,45.3z"/>
		<path d="M41.5,44.9C41.5,44.9,41.5,44.9,41.5,44.9c0.1-0.1,0.1-0.1,0.1-0.1c0-0.1,0-0.1,0.1-0.2c0-0.1,0-0.1,0.1-0.2
			c0-0.2,0.1-0.4,0.2-0.8c0,0,0,0,0,0c0,0,0,0,0,0l0,0c0,0,0,0,0,0c0,0,0,0,0,0c0,0,0,0,0,0c0,0,0,0,0,0c0,0,0,0,0,0
			c0,0.1,0,0.2-0.1,0.4c0,0.1-0.1,0.2-0.1,0.3l-0.1,0.3c0,0.1-0.1,0.2-0.1,0.3C41.6,45,41.6,45,41.5,44.9c0.1,0.1,0,0.1,0,0.1
			c-0.1,0-0.1,0-0.2,0c-0.1,0-0.1-0.1-0.1-0.1c-0.1-0.1-0.1-0.3-0.2-0.4c0-0.1,0-0.1,0-0.2c0-0.2,0-0.5,0-0.7c0,0,0-0.1,0-0.2
			c0-0.1,0-0.1,0-0.1c0,0,0,0,0-0.1c0,0,0,0,0.1,0c0,0,0.1,0,0.1,0c0,0,0.1,0,0.1,0c0,0,0,0,0,0c0,0,0,0,0,0c0,0,0,0,0,0.1
			c0,0,0,0.1,0,0.2c0,0.2,0,0.4,0,0.7l0,0.1C41.4,44.6,41.4,44.7,41.5,44.9C41.4,44.8,41.4,44.9,41.5,44.9
			C41.4,44.9,41.4,44.9,41.5,44.9C41.4,44.9,41.4,44.9,41.5,44.9C41.5,44.9,41.5,44.9,41.5,44.9z M41.1,42.8c0-0.1,0-0.2,0-0.2
			c0,0,0,0,0.1-0.1c0,0,0.1,0,0.1,0c0.1,0,0.1,0,0.1,0c0,0,0,0,0,0c0,0,0,0,0,0c0,0.1,0,0.2,0,0.2c0,0,0,0.1,0,0.1c0,0,0,0,0,0.1
			c0,0,0,0,0,0.1c0,0,0,0,0,0c0,0-0.1,0-0.1,0C41.1,43,41.1,42.9,41.1,42.8z"/>
		<path d="M43.3,44.7L43.3,44.7c0-0.1,0-0.1,0-0.2c0.1-0.3,0.1-0.6,0.2-0.9c0,0,0-0.1,0-0.1c0,0,0,0,0-0.1c0,0,0,0,0-0.1
			c0,0,0-0.1,0.1-0.1c0,0,0,0,0,0l0,0c0,0.1,0,0.1,0,0.2c0,0,0,0.1,0,0.3l-0.1,0.3c0,0,0,0,0,0c0,0,0,0,0,0c0,0,0,0,0,0c0,0,0,0,0,0
			l0,0.1c0,0.1,0,0.2,0,0.3c0,0,0,0.1-0.1,0.2c0,0.1-0.1,0.1-0.2,0.1c0,0,0,0,0,0c0,0-0.1,0-0.1-0.1c0-0.1-0.1-0.1-0.1-0.2
			c0-0.1-0.1-0.2-0.1-0.3c0,0,0-0.1,0-0.2c0-0.2-0.1-0.5-0.1-0.8l0-0.4l0-0.1c0,0,0,0,0,0c0,0,0,0,0,0c-0.1,0.1-0.1,0.3-0.1,0.4
			c0,0.1,0,0.2-0.1,0.3c0,0.1,0,0.2,0,0.4c0,0.1,0,0.2,0,0.3c0,0,0,0.1,0,0.1c0,0,0,0.1,0,0.1c0,0.1-0.1,0.1-0.1,0.1
			c0,0-0.1,0-0.1,0c0,0-0.1,0-0.1,0c-0.1-0.1-0.1-0.1-0.2-0.2c0-0.1-0.1-0.2-0.1-0.2c0-0.1,0-0.1,0-0.2c0-0.2,0-0.3,0-0.5l0-0.3
			c0,0,0,0,0-0.1c0,0,0-0.1,0-0.1c0,0,0,0,0.1,0c0,0,0.1,0,0.1,0c0.1,0,0.1,0,0.1,0.1c0,0,0,0,0,0.1c0,0,0,0.1,0,0.1
			c0,0.1,0,0.3,0.1,0.5c0,0,0,0.1,0,0.2c0,0,0,0.1,0,0.1c0,0,0,0.1,0,0.1c0,0,0,0.1,0,0.2c0,0,0,0,0,0l0-0.2c0-0.1,0-0.2,0-0.3
			c0-0.2,0.1-0.4,0.1-0.7c0-0.1,0.1-0.2,0.1-0.3c0-0.1,0.1-0.1,0.2-0.1c0.1,0,0.1,0,0.2,0c0.1,0,0.1,0.1,0.1,0.1
			c0,0.1,0.1,0.2,0.1,0.3c0,0.1,0,0.1,0,0.2c0,0.1,0,0.2,0,0.2c0,0.3,0,0.5,0,0.8c0,0.1,0,0.1,0,0.2C43.3,44.6,43.3,44.6,43.3,44.7
			C43.3,44.7,43.3,44.7,43.3,44.7z"/>
		<path d="M43.9,44C43.9,44,44,44,43.9,44c0.2-0.2,0.2-0.3,0.3-0.4c0,0,0.1-0.1,0.1-0.2c0-0.1,0.1-0.2,0.1-0.3c0,0,0,0,0-0.1
			c0,0,0,0,0-0.1c0,0,0-0.1,0.1-0.1l0,0c0.1,0,0.1,0,0.2,0c0,0,0,0,0,0.1l0,0c0,0.1,0,0.1,0,0.2c0,0.2,0,0.3,0,0.4
			c0,0.1,0,0.2,0,0.3l0,0.2c0,0.2,0,0.5-0.1,0.7c0,0.2-0.1,0.4-0.1,0.6c-0.1,0.3-0.2,0.5-0.3,0.7c-0.1,0.1-0.1,0.1-0.2,0.2
			c-0.1,0-0.1,0.1-0.2,0.1c0,0-0.1,0-0.2,0c-0.1,0-0.2-0.1-0.2-0.3c0-0.1,0-0.2,0-0.3c0.1-0.4,0.2-0.8,0.5-1.2l0.1-0.1
			c0.1-0.1,0.2-0.1,0.2-0.1c0,0,0.1,0,0.1,0l0-0.5l0,0c0,0,0,0,0,0.1c0,0,0,0,0,0.1c0,0,0,0,0,0c-0.1,0.1-0.1,0.1-0.2,0.1
			c-0.1,0-0.2,0-0.2,0c-0.1,0-0.1-0.1-0.2-0.2c0,0,0-0.1,0-0.1c0-0.1,0-0.1,0-0.2c0-0.3,0.1-0.5,0.3-0.8c0.1-0.1,0.2-0.2,0.3-0.2
			c0,0,0,0,0.1,0c0.1,0,0.3,0,0.4,0.1c0,0,0,0,0.1,0.1c0,0,0,0,0,0c0,0,0,0,0,0c0,0,0,0-0.1,0c0,0-0.1,0-0.1,0c0,0-0.1,0-0.1,0
			c0,0,0,0-0.1,0c-0.1,0-0.1,0.1-0.2,0.1c-0.1,0.1-0.2,0.3-0.2,0.5l-0.1,0.2C43.8,43.7,43.8,43.8,43.9,44C43.9,44,43.9,44,43.9,44z
			 M44.2,44.4C44.2,44.4,44.2,44.5,44.2,44.4C44.2,44.5,44.2,44.5,44.2,44.4c-0.1,0.1-0.2,0.1-0.2,0.2c-0.2,0.2-0.3,0.4-0.4,0.7
			c-0.1,0.2-0.1,0.5-0.1,0.6c0,0,0,0.1,0,0.1c0,0.1,0,0.1,0.1,0.2c0,0,0,0,0,0c0,0,0,0,0,0c0,0,0,0,0,0c0,0,0,0,0,0
			c0,0,0.1-0.1,0.1-0.1c0,0,0.1-0.1,0.1-0.1c0.1-0.1,0.1-0.3,0.2-0.5c0-0.1,0-0.2,0.1-0.3c0-0.1,0-0.2,0-0.4L44.2,44.4L44.2,44.4z"
			/>
		<path d="M46.3,42.4c-0.1,0.1-0.1,0.2-0.1,0.3c0,0.1,0,0.1,0.1,0.2c0,0.1,0.1,0.2,0.2,0.3l0,0l0.1-0.2c0.1-0.1,0.1-0.2,0.2-0.3
			c0,0,0,0,0.1,0c0,0,0,0,0.1,0c0,0.1-0.1,0.2-0.2,0.3c-0.1,0.1-0.2,0.3-0.2,0.3l0.1,0.1c0.1,0.2,0.2,0.3,0.2,0.5c0,0.1,0,0.1,0,0.2
			c0,0,0,0.1,0,0.1c0,0,0,0.1,0,0.1c0,0.3-0.1,0.5-0.3,0.6C46.5,45,46.4,45,46.4,45c0,0-0.1,0-0.1,0c-0.1,0-0.2,0-0.2-0.1
			c0-0.1-0.1-0.1-0.1-0.2c0-0.1,0-0.2,0-0.2c0-0.1,0-0.3,0.1-0.4c0-0.1,0.1-0.2,0.1-0.3l0-0.1c0,0,0,0,0-0.1c0,0,0,0,0,0L46,43.2
			c-0.1-0.1-0.1-0.2-0.2-0.3c0,0,0-0.1,0-0.1c0-0.1,0-0.2,0-0.3c0-0.1,0-0.1,0.1-0.2c0,0,0.1-0.1,0.2-0.1c0,0,0,0,0.1,0
			c0.1,0,0.3,0,0.4,0.1c0,0,0,0.1,0,0.1l0,0c0,0,0,0,0,0c0,0,0,0,0,0l0,0c0,0-0.1,0-0.1,0C46.4,42.4,46.3,42.4,46.3,42.4z
			 M46.4,43.8L46.4,43.8c-0.1,0.2-0.2,0.4-0.2,0.6c0,0.1,0,0.2,0,0.3c0,0.1,0.1,0.2,0.1,0.2c0,0,0.1,0,0.1,0c0,0,0,0,0.1,0
			c0.1-0.1,0.1-0.2,0.1-0.3c0-0.1,0-0.2,0-0.2c0,0,0-0.1,0-0.1c0-0.1,0-0.1-0.1-0.2l0-0.1L46.4,43.8z"/>
		<path d="M48.1,42.8C48.1,42.8,48.1,42.8,48.1,42.8c0.2-0.1,0.2-0.2,0.3-0.4c0,0,0-0.1,0.1-0.1c0,0,0,0,0.1,0c0,0,0,0,0,0
			c0,0,0,0,0,0c0,0.1-0.1,0.2-0.1,0.2c0,0.1-0.1,0.1-0.2,0.2C48.1,42.9,48.1,42.9,48.1,42.8c0,0.1,0,0.1,0,0.1c0,0,0,0,0,0.1
			c0,0,0,0.1,0,0.1c0,0.1,0,0.1-0.1,0.1c-0.1,0.2-0.2,0.3-0.4,0.3c-0.1,0-0.1,0-0.2,0c-0.1,0-0.1,0-0.2-0.1
			c-0.1-0.1-0.1-0.1-0.2-0.2c0-0.1-0.1-0.2-0.1-0.3c0-0.2,0-0.4,0-0.6c0,0,0,0,0-0.1c0-0.2,0-0.4,0.1-0.5c0.1-0.2,0.2-0.3,0.4-0.3
			c0,0,0.1,0,0.1,0c0.2,0,0.4,0,0.5,0.2c0.1,0.1,0.1,0.2,0.2,0.3c0,0.1,0,0.3,0,0.4C48.1,42.4,48.1,42.6,48.1,42.8
			C48.1,42.7,48.1,42.8,48.1,42.8C48.1,42.8,48.1,42.8,48.1,42.8L48.1,42.8z M47.2,42.8C47.2,42.8,47.2,42.8,47.2,42.8
			c0,0.1,0,0.2,0,0.2c0,0,0,0.1,0,0.1c0,0.1,0.1,0.2,0.1,0.2c0,0,0.1,0,0.1,0c0,0,0,0,0.1,0c0.1,0,0.1-0.1,0.2-0.2
			c0-0.1,0.1-0.2,0.1-0.3C47.6,43,47.4,43,47.2,42.8z M47,42.2L47,42.2l0.1,0c0,0,0,0,0.1,0c0,0,0,0,0,0l0,0.1l0,0.2c0,0,0,0,0,0.1
			c0.2,0.2,0.4,0.3,0.6,0.2l0,0c0-0.2,0.1-0.4,0.1-0.6c0-0.1,0-0.2,0-0.2c0-0.1,0-0.1,0-0.2c0-0.1-0.1-0.2-0.1-0.2
			c-0.1-0.1-0.1-0.1-0.2-0.1c0,0-0.1,0-0.1,0c0,0-0.1,0-0.1,0C47.2,41.7,47.1,41.9,47,42.2z"/>
		<path d="M49.6,42.5C49.6,42.5,49.6,42.5,49.6,42.5c0.2-0.1,0.2-0.2,0.3-0.4c0,0,0-0.1,0.1-0.1c0,0,0,0,0.1,0c0,0,0,0,0,0
			c0,0,0,0,0,0c0,0.1-0.1,0.2-0.1,0.2c0,0.1-0.1,0.1-0.2,0.2C49.7,42.6,49.6,42.6,49.6,42.5c0,0.1,0,0.1,0,0.1c0,0,0,0,0,0.1
			c0,0,0,0.1,0,0.1s0,0.1-0.1,0.1c-0.1,0.2-0.2,0.3-0.4,0.3c-0.1,0-0.1,0-0.2,0c-0.1,0-0.1,0-0.2-0.1c-0.1-0.1-0.1-0.1-0.2-0.2
			c0-0.1-0.1-0.2-0.1-0.3c0-0.2,0-0.4,0-0.6c0,0,0,0,0-0.1c0-0.2,0-0.4,0.1-0.5c0.1-0.2,0.2-0.3,0.4-0.3c0,0,0.1,0,0.1,0
			c0.2,0,0.4,0,0.5,0.2c0.1,0.1,0.1,0.2,0.2,0.3c0,0.1,0,0.3,0,0.4C49.6,42.1,49.6,42.3,49.6,42.5C49.6,42.5,49.6,42.5,49.6,42.5
			C49.6,42.5,49.6,42.5,49.6,42.5L49.6,42.5z M48.7,42.5C48.7,42.5,48.7,42.6,48.7,42.5c0,0.1,0,0.2,0,0.2c0,0,0,0.1,0,0.1
			c0,0.1,0.1,0.2,0.1,0.2c0,0,0.1,0,0.1,0c0,0,0,0,0.1,0c0.1,0,0.1-0.1,0.2-0.2c0-0.1,0.1-0.2,0.1-0.3
			C49.1,42.7,48.9,42.7,48.7,42.5z M48.6,41.9L48.6,41.9l0.1,0c0,0,0,0,0.1,0c0,0,0,0,0,0l0,0.1l0,0.2c0,0,0,0,0,0.1
			c0.2,0.2,0.4,0.3,0.6,0.2l0,0c0-0.2,0.1-0.4,0.1-0.6c0-0.1,0-0.2,0-0.2c0-0.1,0-0.1,0-0.2c0-0.1-0.1-0.2-0.1-0.2
			c-0.1-0.1-0.1-0.1-0.2-0.1c0,0-0.1,0-0.1,0c0,0-0.1,0-0.1,0C48.7,41.4,48.6,41.6,48.6,41.9z"/>
		<path d="M50.8,41.5C50.8,41.5,50.8,41.5,50.8,41.5c-0.1,0.2-0.1,0.3-0.2,0.4l-0.2,0.8c0,0.1,0,0.2-0.1,0.2c0,0,0,0.1-0.1,0.1
			s-0.1,0-0.1,0c-0.1,0-0.1,0-0.2,0c-0.1,0-0.1-0.1-0.2-0.2c0-0.1-0.1-0.2-0.1-0.3c0-0.1,0-0.1,0-0.1c0-0.3,0-0.5,0-0.7
			c0-0.1,0-0.1,0-0.2c0,0,0,0,0-0.1c0,0,0,0,0.1,0c0,0,0.1,0,0.1,0c0.1,0,0.1,0,0.1,0c0,0,0,0,0.1,0.1c0,0.1,0,0.1,0.1,0.2
			c0,0,0,0.1,0,0.1c0,0.1,0,0.2,0.1,0.4l0,0.2c0,0.1,0,0.1,0,0.2c0,0,0,0,0-0.1c0,0,0-0.1,0-0.1l0.1-0.6c0-0.1,0.1-0.2,0.1-0.3
			c0-0.1,0.1-0.2,0.1-0.2c0,0,0-0.1,0.1-0.1c0,0,0,0,0.1-0.1c0,0,0,0,0,0c0.1,0,0.1,0,0.2,0c0.1,0,0.1,0.1,0.1,0.1
			c0,0.1,0,0.1,0.1,0.2c0,0,0,0.1,0,0.2c0,0.2,0,0.4,0,0.6l0,0.2c0,0.2,0,0.4,0,0.5c0,0.1,0,0.1,0,0.1c0,0,0,0.1,0.1,0.1
			c0,0,0,0,0,0c0,0,0,0,0,0c0,0,0,0,0,0c0,0-0.1,0-0.1,0c0,0-0.1,0-0.1,0c-0.1,0-0.2-0.1-0.2-0.1c0-0.1-0.1-0.1-0.1-0.2
			c0-0.2-0.1-0.3-0.1-0.5l-0.1-0.8L50.8,41.5C50.8,41.5,50.8,41.5,50.8,41.5C50.8,41.5,50.8,41.5,50.8,41.5z"/>
	</g>
</g>
</svg>
