<?xml version="1.0" standalone="no"?><!-- Generator: Gravit.io --><svg xmlns="http://www.w3.org/2000/svg" xmlns:xlink="http://www.w3.org/1999/xlink" style="isolation:isolate" viewBox="0 0 168.531 44.28" width="168.531" height="44.28"><defs><clipPath id="_clipPath_kOlPCv6aVQOU0uPWtlOBJEFRowrNqvni"><rect width="168.531" height="44.28"/></clipPath></defs><g clip-path="url(#_clipPath_kOlPCv6aVQOU0uPWtlOBJEFRowrNqvni)"><path d=" M 118.26 24.454 L 118.157 24.429 L 118.209 24.171 L 118.209 24.171 Q 118.646 22.654 118.774 22.269 L 118.774 22.269 L 118.774 22.269 Q 118.903 21.78 119.52 19.697 L 119.52 19.697 L 119.52 19.697 Q 119.674 19.157 119.906 18.514 L 119.906 18.514 L 119.906 18.514 Q 120.111 17.949 120.189 17.666 L 120.189 17.666 L 120.189 17.666 Q 120.291 17.306 120.291 17.229 L 120.291 17.229 L 120.291 17.229 Q 120.291 17.074 120.201 16.959 L 120.201 16.959 L 120.201 16.959 Q 120.111 16.843 119.88 16.689 L 119.88 16.689 L 119.88 16.689 Q 119.52 16.483 119.083 16.354 L 119.083 16.354 L 119.083 16.354 Q 118.826 16.277 118.62 16.277 L 118.62 16.277 L 118.62 16.277 Q 118.363 16.277 118.209 16.419 L 118.209 16.419 L 118.209 16.419 Q 118.054 16.56 117.9 16.894 L 117.9 16.894 L 117.9 16.894 Q 116.589 19.62 114.377 22.371 L 114.377 22.371 L 114.377 22.371 Q 113.374 23.58 112.603 24.377 L 112.603 24.377 L 112.603 24.377 Q 111.831 25.174 110.957 25.766 L 110.957 25.766 L 110.957 25.766 Q 109.774 26.486 109.363 26.691 L 109.363 26.691 L 109.363 26.691 Q 109.054 26.846 108.9 26.846 L 108.9 26.846 L 108.9 26.846 Q 108.771 26.846 108.681 26.756 L 108.681 26.756 L 108.681 26.756 Q 108.591 26.666 108.437 26.409 L 108.437 26.409 L 108.437 26.409 Q 107.82 25.56 107.64 24.069 L 107.64 24.069 L 107.64 24.069 Q 107.563 23.451 107.563 22.809 L 107.563 22.809 L 107.563 22.809 Q 107.563 21.574 107.897 19.671 L 107.897 19.671 L 107.897 19.671 Q 108.566 15.711 110.906 11.571 L 110.906 11.571 L 110.906 11.571 Q 112.243 9.309 114.48 6.814 L 114.48 6.814 L 114.48 6.814 Q 115.791 5.271 117.18 4.371 L 117.18 4.371 L 117.18 4.371 Q 118.209 3.754 118.723 3.574 L 118.723 3.574 L 118.723 3.574 Q 119.083 3.446 119.494 3.446 L 119.494 3.446 L 119.494 3.446 Q 120.574 3.446 120.96 4.834 L 120.96 4.834 L 120.96 4.834 Q 121.089 5.246 121.089 5.837 L 121.089 5.837 L 121.089 5.837 Q 121.089 6.557 120.883 7.097 L 120.883 7.097 L 120.189 9.206 L 120.189 9.206 Q 120.137 9.411 120.137 9.489 L 120.137 9.489 L 120.137 9.489 Q 120.137 9.874 120.6 10.131 L 120.6 10.131 L 120.6 10.131 Q 120.883 10.286 121.114 10.286 L 121.114 10.286 L 121.114 10.286 Q 121.397 10.286 121.629 9.977 L 121.629 9.977 L 121.629 9.977 Q 122.58 8.794 122.966 7.611 L 122.966 7.611 L 122.966 7.611 Q 123.171 6.943 123.171 6.429 L 123.171 6.429 L 123.171 6.429 Q 123.171 5.554 122.683 4.629 L 122.683 4.629 L 122.683 4.629 Q 121.911 3.24 120.497 2.391 L 120.497 2.391 L 120.497 2.391 Q 119.211 1.671 118.003 1.671 L 118.003 1.671 L 118.003 1.671 Q 116.82 1.671 115.74 2.289 L 115.74 2.289 L 115.74 2.289 Q 113.991 3.24 112.577 4.731 L 112.577 4.731 L 112.577 4.731 Q 108.36 9.283 106.097 15.609 L 106.097 15.609 L 106.097 15.609 Q 105.043 18.54 105.043 21.343 L 105.043 21.343 L 105.043 21.343 Q 105.043 22.294 105.146 23.091 L 105.146 23.091 L 105.146 23.091 Q 105.403 25.02 106.277 26.177 L 106.277 26.177 L 106.277 26.177 Q 107.64 28.131 109.826 28.106 L 109.826 28.106 L 109.826 28.106 Q 110.751 28.029 111.78 27.411 L 111.78 27.411 L 111.78 27.411 Q 113.991 26.023 115.406 24.017 L 115.406 24.017 L 115.406 24.017 Q 115.586 23.734 115.766 23.631 L 115.766 23.631 L 115.766 23.631 Q 115.38 25.251 114.84 27.309 L 114.84 27.309 L 114.84 27.309 Q 114.814 27.386 114.506 27.694 L 114.506 27.694 L 113.554 28.62 L 113.554 28.62 Q 112.037 30.086 111.189 30.934 L 111.189 30.934 L 111.189 30.934 Q 110.34 31.783 109.517 32.786 L 109.517 32.786 L 109.517 32.786 Q 107.023 35.64 106.02 38.854 L 106.02 38.854 L 106.02 38.854 Q 105.737 39.703 105.737 40.449 L 105.737 40.449 L 105.737 40.449 Q 105.737 41.837 107.126 42.326 L 107.126 42.326 L 107.126 42.326 Q 107.82 42.557 108.489 42.557 L 108.489 42.557 L 108.489 42.557 Q 108.977 42.557 109.543 42.429 L 109.543 42.429 L 109.543 42.429 Q 111.369 41.966 112.757 40.217 L 112.757 40.217 L 112.757 40.217 Q 114.069 38.469 114.943 35.974 L 114.943 35.974 L 114.943 35.974 Q 115.971 32.966 117.257 27.977 L 117.257 27.977 L 117.257 27.977 Q 117.309 27.771 117.411 27.257 L 117.411 27.257 L 117.411 27.257 Q 117.514 26.743 117.72 26.409 L 117.72 26.409 L 117.72 26.409 Q 117.926 26.074 118.35 25.727 L 118.35 25.727 L 118.35 25.727 Q 118.774 25.38 118.929 25.251 L 118.929 25.251 L 118.929 25.251 Q 121.063 23.529 122.657 21.909 L 122.657 21.909 L 123.789 20.571 L 123.789 20.571 Q 123.891 20.469 123.93 20.353 L 123.93 20.353 L 123.93 20.353 Q 123.969 20.237 123.866 20.134 L 123.866 20.134 L 123.866 20.134 Q 123.609 19.877 123.403 19.929 L 123.403 19.929 L 123.403 19.929 Q 123.146 19.929 122.889 20.186 L 122.889 20.186 L 122.889 20.186 Q 122.271 20.906 121.564 21.561 L 121.564 21.561 L 121.564 21.561 Q 120.857 22.217 119.777 23.143 L 119.777 23.143 L 118.929 23.889 L 118.929 23.889 Q 118.723 24.069 118.556 24.21 L 118.556 24.21 L 118.556 24.21 Q 118.389 24.351 118.26 24.454 L 118.26 24.454 Z  M 107.82 41.374 L 107.82 41.374 Q 107.537 40.963 107.537 40.397 L 107.537 40.397 L 107.537 40.397 Q 107.537 40.191 107.589 39.831 L 107.589 39.831 L 107.589 39.831 Q 107.846 38.623 108.206 37.594 L 108.206 37.594 L 108.206 37.594 Q 109.054 35.229 110.906 33.094 L 110.906 33.094 L 110.906 33.094 Q 111.471 32.426 113.503 30.291 L 113.503 30.291 L 114.017 29.751 L 114.223 29.571 L 114.223 29.571 Q 114.069 30.266 113.94 30.651 L 113.94 30.651 L 113.94 30.651 Q 113.323 32.863 112.911 34.2 L 112.911 34.2 L 112.911 34.2 Q 112.5 35.537 111.96 36.874 L 111.96 36.874 L 111.96 36.874 Q 111.24 38.546 110.16 39.857 L 110.16 39.857 L 110.16 39.857 Q 109.234 41.014 107.82 41.374 L 107.82 41.374 Z  M 129.24 25.586 L 129.24 25.586 Q 129.266 25.611 129.291 25.611 L 129.291 25.611 L 129.291 25.611 Q 129.317 25.611 129.317 25.611 L 129.317 25.611 L 129.317 25.611 Q 129.317 25.74 129.291 25.881 L 129.291 25.881 L 129.291 25.881 Q 129.266 26.023 129.266 26.151 L 129.266 26.151 L 129.266 26.151 Q 129.034 27.823 129.034 28.929 L 129.034 28.929 L 129.034 28.929 Q 129.034 29.906 129.163 30.626 L 129.163 30.626 L 129.163 30.626 Q 129.42 31.783 129.96 32.477 L 129.96 32.477 L 129.96 32.477 Q 130.397 33.171 131.246 33.171 L 131.246 33.171 L 131.246 33.171 Q 131.477 33.171 131.606 33.146 L 131.606 33.146 L 131.606 33.146 Q 132.377 33.043 132.866 32.374 L 132.866 32.374 L 132.866 32.374 Q 133.534 31.654 134.203 30.214 L 134.203 30.214 L 134.923 28.671 L 134.923 28.671 Q 135.18 28.157 135.643 27.129 L 135.643 27.129 L 138.086 21.729 L 138.086 21.729 Q 138.266 21.394 138.446 20.919 L 138.446 20.919 L 138.446 20.919 Q 138.626 20.443 138.703 20.237 L 138.703 20.237 L 138.703 20.237 Q 138.343 20.057 138.24 20.057 L 138.24 20.057 L 138.24 20.057 Q 138.111 20.057 138.021 20.147 L 138.021 20.147 L 138.021 20.147 Q 137.931 20.237 137.803 20.469 L 137.803 20.469 L 137.006 22.114 L 135.926 24.326 L 135.926 24.326 Q 135.411 25.303 135.309 25.534 L 135.309 25.534 L 135.309 25.534 Q 134.126 28.157 133.509 29.469 L 133.509 29.469 L 133.509 29.469 Q 133.097 30.291 132.789 30.819 L 132.789 30.819 L 132.789 30.819 Q 132.48 31.346 132.069 31.809 L 132.069 31.809 L 132.069 31.809 Q 132.017 31.886 131.953 31.937 L 131.953 31.937 L 131.953 31.937 Q 131.889 31.989 131.837 32.066 L 131.837 32.066 L 131.837 32.066 Q 131.734 31.706 131.709 31.654 L 131.709 31.654 L 131.709 31.654 Q 131.709 31.346 131.683 31.166 L 131.683 31.166 L 131.683 31.166 Q 131.58 29.391 132.249 26.846 L 132.249 26.846 L 132.249 26.846 Q 132.429 26.203 132.596 25.637 L 132.596 25.637 L 132.596 25.637 Q 132.763 25.071 132.891 24.583 L 132.891 24.583 L 132.891 24.583 Q 133.071 24.069 133.38 22.989 L 133.38 22.989 L 133.38 22.989 Q 133.766 21.651 134.589 18.977 L 134.589 18.977 L 134.769 18.437 L 134.769 18.437 Q 135.026 17.769 135.129 17.151 L 135.129 17.151 L 135.129 17.151 Q 135.231 16.74 135.231 16.329 L 135.231 16.329 L 135.231 16.329 Q 135.231 15.84 134.91 15.57 L 134.91 15.57 L 134.91 15.57 Q 134.589 15.3 133.766 15.146 L 133.766 15.146 L 133.766 15.146 Q 133.663 15.094 133.406 15.094 L 133.406 15.094 L 133.406 15.094 Q 132.84 15.197 132.557 15.531 L 132.557 15.531 L 132.557 15.531 Q 131.76 16.586 131.503 17.409 L 131.503 17.409 L 131.503 17.409 Q 130.989 19.209 130.603 20.289 L 130.603 20.289 L 130.423 20.88 L 130.423 20.88 Q 130.14 22.011 129.703 22.629 L 129.703 22.629 L 129.703 22.629 Q 129.317 23.143 128.649 24.223 L 128.649 24.223 L 127.723 25.611 L 127.723 25.611 Q 127.106 26.486 126.617 27.077 L 126.617 27.077 L 126.617 27.077 Q 126 27.874 125.383 28.234 L 125.383 28.234 L 125.383 28.234 Q 125.383 28.106 125.344 27.926 L 125.344 27.926 L 125.344 27.926 Q 125.306 27.746 125.306 27.669 L 125.306 27.669 L 125.306 27.669 Q 125.229 27.36 125.229 27.051 L 125.229 27.051 L 125.254 26.46 L 125.254 26.46 Q 125.28 26.177 125.306 25.727 L 125.306 25.727 L 125.306 25.727 Q 125.331 25.277 125.409 24.686 L 125.409 24.686 L 125.409 24.686 Q 125.64 23.169 125.974 21.664 L 125.974 21.664 L 125.974 21.664 Q 126.309 20.16 126.849 18.077 L 126.849 18.077 L 126.849 18.077 Q 126.977 17.666 127.209 16.457 L 127.209 16.457 L 127.209 16.457 Q 127.234 16.38 127.234 16.251 L 127.234 16.251 L 127.234 16.251 Q 127.234 15.763 126.746 15.506 L 126.746 15.506 L 126.746 15.506 Q 126.051 15.094 125.64 14.991 L 125.64 14.991 L 125.64 14.991 Q 125.331 14.914 125.1 14.914 L 125.1 14.914 L 125.1 14.914 Q 124.714 14.914 124.496 15.133 L 124.496 15.133 L 124.496 15.133 Q 124.277 15.351 124.123 15.891 L 124.123 15.891 L 124.123 15.891 Q 124.123 15.917 124.11 15.93 L 124.11 15.93 L 124.11 15.93 Q 124.097 15.943 124.097 15.969 L 124.097 15.969 L 124.097 15.969 Q 123.223 18.746 122.606 21.729 L 122.606 21.729 L 122.606 21.729 Q 122.194 23.503 122.143 25.406 L 122.143 25.406 L 122.143 25.406 Q 122.143 26.846 122.657 27.771 L 122.657 27.771 L 122.657 27.771 Q 123.017 28.543 123.711 28.929 L 123.711 28.929 L 123.711 28.929 Q 124.406 29.314 125.203 29.314 L 125.203 29.314 L 125.203 29.314 Q 125.563 29.314 125.897 29.237 L 125.897 29.237 L 125.897 29.237 Q 126.849 28.98 127.466 28.106 L 127.466 28.106 L 127.466 28.106 Q 128.006 27.411 128.443 26.717 L 128.443 26.717 L 128.983 25.971 L 129.24 25.586 Z  M 139.757 12.394 L 139.757 12.394 Q 139.757 13.551 140.786 14.246 L 140.786 14.246 L 140.786 14.246 Q 141.223 14.503 141.634 14.503 L 141.634 14.503 L 141.634 14.503 Q 141.737 14.503 141.943 14.451 L 141.943 14.451 L 141.943 14.451 Q 142.354 14.297 142.226 14.066 L 142.226 14.066 L 142.226 14.066 Q 142.123 13.834 142.123 13.551 L 142.123 13.551 L 142.123 13.551 Q 142.123 13.166 142.277 12.831 L 142.277 12.831 L 142.277 12.831 Q 142.509 12.163 142.92 11.186 L 142.92 11.186 L 142.92 11.186 Q 142.997 11.031 142.997 10.877 L 142.997 10.877 L 142.997 10.877 Q 142.997 10.723 142.817 10.569 L 142.817 10.569 L 142.817 10.569 Q 142.406 10.183 141.66 10.183 L 141.66 10.183 L 141.66 10.183 Q 141.274 10.183 140.94 10.311 L 140.94 10.311 L 140.94 10.311 Q 140.606 10.44 140.4 10.697 L 140.4 10.697 L 140.4 10.697 Q 139.809 11.391 139.757 12.394 L 139.757 12.394 Z  M 139.706 29.649 L 139.706 29.649 Q 139.68 29.649 139.654 29.623 L 139.654 29.623 L 139.654 29.623 Q 139.629 29.597 139.577 29.597 L 139.577 29.597 L 139.577 29.597 Q 139.577 29.443 139.551 29.289 L 139.551 29.289 L 139.551 29.289 Q 139.526 29.134 139.526 28.954 L 139.526 28.954 L 139.526 28.954 Q 139.526 27.643 139.937 25.637 L 139.937 25.637 L 140.143 24.66 L 140.143 24.66 Q 140.786 21.549 141.377 19.029 L 141.377 19.029 L 141.377 19.029 Q 141.531 18.051 141.531 17.563 L 141.531 17.563 L 141.531 17.563 Q 141.531 17.074 141.48 16.817 L 141.48 16.817 L 141.48 16.817 Q 141.454 16.766 141.403 16.599 L 141.403 16.599 L 141.403 16.599 Q 141.351 16.431 141.249 16.354 L 141.249 16.354 L 141.249 16.354 Q 141.069 16.149 140.67 16.02 L 140.67 16.02 L 140.67 16.02 Q 140.271 15.891 139.86 15.891 L 139.86 15.891 L 139.86 15.891 Q 139.449 15.891 139.166 16.046 L 139.166 16.046 L 139.166 16.046 Q 138.857 16.303 138.78 16.457 L 138.78 16.457 L 138.78 16.457 Q 138.703 16.637 138.42 17.241 L 138.42 17.241 L 138.42 17.241 Q 138.137 17.846 137.983 18.411 L 137.983 18.411 L 137.983 18.411 Q 137.211 21.754 136.697 24.377 L 136.697 24.377 L 136.697 24.377 Q 136.543 25.174 136.543 25.971 L 136.543 25.971 L 136.543 25.971 Q 136.543 27.694 137.237 29.366 L 137.237 29.366 L 137.237 29.366 Q 137.52 30.034 138.086 30.394 L 138.086 30.394 L 138.086 30.394 Q 138.651 30.754 139.32 30.754 L 139.32 30.754 L 139.32 30.754 Q 139.809 30.754 140.259 30.549 L 140.259 30.549 L 140.259 30.549 Q 140.709 30.343 141.043 29.957 L 141.043 29.957 L 141.043 29.957 Q 141.814 28.98 142.406 27.746 L 142.406 27.746 L 143.331 25.586 L 143.331 25.586 Q 143.666 24.814 144.36 23.194 L 144.36 23.194 L 144.36 23.194 Q 145.054 21.574 145.569 20.314 L 145.569 20.314 L 145.569 20.314 Q 145.594 20.237 145.646 20.147 L 145.646 20.147 L 145.646 20.147 Q 145.697 20.057 145.723 19.929 L 145.723 19.929 L 145.723 19.929 Q 145.749 19.877 145.749 19.774 L 145.749 19.774 L 145.749 19.774 Q 145.749 19.671 145.684 19.62 L 145.684 19.62 L 145.684 19.62 Q 145.62 19.569 145.44 19.517 L 145.44 19.517 L 145.286 19.517 L 145.286 19.517 Q 145.106 19.517 145.016 19.607 L 145.016 19.607 L 145.016 19.607 Q 144.926 19.697 144.797 19.954 L 144.797 19.954 L 144.797 19.954 Q 142.997 24.017 142.046 25.997 L 142.046 25.997 L 142.046 25.997 Q 141.763 26.614 141.351 27.321 L 141.351 27.321 L 141.351 27.321 Q 140.94 28.029 140.529 28.671 L 140.529 28.671 L 140.529 28.671 Q 140.4 28.903 140.13 29.199 L 140.13 29.199 L 140.13 29.199 Q 139.86 29.494 139.706 29.649 L 139.706 29.649 Z  M 152.254 15.737 L 152.126 15.737 L 151.946 15.711 L 151.946 15.711 Q 151.046 15.429 150.351 15.429 L 150.351 15.429 L 150.351 15.429 Q 148.809 15.429 147.446 16.586 L 147.446 16.586 L 147.446 16.586 Q 144.489 19.183 143.974 22.809 L 143.974 22.809 L 143.974 22.809 Q 143.949 23.014 143.949 23.451 L 143.949 23.451 L 143.949 23.451 Q 143.949 24.634 144.411 25.534 L 144.411 25.534 L 144.411 25.534 Q 144.669 26.126 145.26 26.473 L 145.26 26.473 L 145.26 26.473 Q 145.851 26.82 146.52 26.82 L 146.52 26.82 L 146.52 26.82 Q 146.674 26.82 146.983 26.769 L 146.983 26.769 L 146.983 26.769 Q 147.677 26.614 148.166 25.946 L 148.166 25.946 L 148.166 25.946 Q 148.5 25.534 149.529 23.991 L 149.529 23.991 L 150.069 23.194 L 150.069 23.194 Q 150.223 23.04 150.351 22.809 L 150.351 22.809 L 150.351 23.297 L 150.326 24.789 L 150.326 24.789 Q 150.326 25.766 150.454 26.434 L 150.454 26.434 L 150.454 26.434 Q 150.763 27.823 151.354 28.749 L 151.354 28.749 L 151.354 28.749 Q 151.611 29.109 152.061 29.314 L 152.061 29.314 L 152.061 29.314 Q 152.511 29.52 153.026 29.52 L 153.026 29.52 L 153.026 29.52 Q 153.977 29.52 154.466 28.851 L 154.466 28.851 L 154.466 28.851 Q 154.569 28.62 154.749 28.414 L 154.749 28.414 L 154.749 28.414 Q 155.006 28.003 155.109 27.797 L 155.109 27.797 L 155.109 27.797 Q 155.417 27.154 156.831 24.146 L 156.831 24.146 L 157.963 21.729 L 157.963 21.729 Q 158.143 21.317 158.246 20.983 L 158.246 20.983 L 158.246 20.983 Q 158.323 20.803 158.4 20.571 L 158.4 20.571 L 158.4 20.571 Q 158.477 20.34 158.631 20.031 L 158.631 20.031 L 158.631 20.031 Q 158.349 19.929 158.194 19.929 L 158.194 19.929 L 158.194 19.929 Q 158.04 19.929 157.95 20.019 L 157.95 20.019 L 157.95 20.019 Q 157.86 20.109 157.731 20.366 L 157.731 20.366 L 157.731 20.366 Q 157.526 20.751 157.166 21.574 L 157.166 21.574 L 157.166 21.574 Q 156.831 22.371 156.471 23.014 L 156.471 23.014 L 156.471 23.014 Q 155.7 24.609 154.286 27.077 L 154.286 27.077 L 154.286 27.077 Q 154.106 27.386 153.861 27.694 L 153.861 27.694 L 153.861 27.694 Q 153.617 28.003 153.514 28.131 L 153.514 28.131 L 153.514 28.131 Q 153.463 28.209 153.231 28.337 L 153.231 28.337 L 153.231 28.337 Q 153.206 28.26 153.18 28.183 L 153.18 28.183 L 153.18 28.183 Q 153.154 28.106 153.154 28.029 L 153.154 28.029 L 153.154 28.029 Q 153.103 27.257 153.103 26.897 L 153.103 26.897 L 153.103 26.897 Q 153.103 25.74 153.309 24.377 L 153.309 24.377 L 153.309 24.377 Q 153.746 21.317 155.031 17.486 L 155.031 17.486 L 155.031 17.486 Q 155.134 17.151 155.443 17.049 L 155.443 17.049 L 155.443 17.049 Q 156.291 16.689 157.05 16.149 L 157.05 16.149 L 157.05 16.149 Q 157.809 15.609 158.811 14.786 L 158.811 14.786 L 158.811 14.786 Q 159.84 13.86 160.779 12.793 L 160.779 12.793 L 160.779 12.793 Q 161.717 11.726 162.823 10.311 L 162.823 10.311 L 162.823 10.311 Q 163.697 9.206 164.366 7.946 L 164.366 7.946 L 164.366 7.946 Q 165.034 6.686 165.703 5.117 L 165.703 5.117 L 165.703 5.117 Q 166.063 4.269 166.063 3.471 L 166.063 3.471 L 166.063 3.471 Q 166.063 2.52 165.266 2.031 L 165.266 2.031 L 165.266 2.031 Q 164.571 1.543 163.851 1.543 L 163.851 1.543 L 163.851 1.543 Q 163.517 1.543 163.131 1.671 L 163.131 1.671 L 163.131 1.671 Q 162.643 1.8 162.026 2.109 L 162.026 2.109 L 162.026 2.109 Q 159.994 3.291 158.529 5.194 L 158.529 5.194 L 158.529 5.194 Q 157.449 6.531 156.703 7.689 L 156.703 7.689 L 156.703 7.689 Q 153.9 11.649 152.331 15.531 L 152.331 15.531 L 152.331 15.531 Q 152.331 15.609 152.293 15.647 L 152.293 15.647 L 152.293 15.647 Q 152.254 15.686 152.254 15.737 L 152.254 15.737 Z  M 164.726 2.597 L 164.726 2.597 Q 164.854 3.034 164.854 3.317 L 164.854 3.317 L 164.854 3.317 Q 164.854 3.574 164.803 3.87 L 164.803 3.87 L 164.803 3.87 Q 164.751 4.166 164.726 4.269 L 164.726 4.269 L 164.726 4.269 Q 164.366 5.863 163.389 7.457 L 163.389 7.457 L 163.389 7.457 Q 161.769 10.157 159.686 12.549 L 159.686 12.549 L 159.686 12.549 Q 158.143 14.22 156.009 15.711 L 156.009 15.711 L 156.009 15.711 Q 155.88 15.763 155.674 15.891 L 155.674 15.891 L 155.674 15.891 Q 155.751 15.66 155.803 15.531 L 155.803 15.531 L 155.803 15.531 Q 157.989 10.517 160.071 7.046 L 160.071 7.046 L 160.071 7.046 Q 161.357 4.911 163.389 3.317 L 163.389 3.317 L 163.389 3.317 Q 163.749 3.009 164.044 2.829 L 164.044 2.829 L 164.044 2.829 Q 164.34 2.649 164.726 2.597 L 164.726 2.597 Z  M 151.843 16.817 L 151.123 19.234 L 150.943 19.594 L 150.943 19.594 Q 149.297 22.294 147.111 24.711 L 147.111 24.711 L 147.111 24.711 Q 147.034 24.814 146.906 24.93 L 146.906 24.93 L 146.906 24.93 Q 146.777 25.046 146.674 25.149 L 146.674 25.149 L 146.674 25.149 Q 146.854 23.683 147.266 22.526 L 147.266 22.526 L 147.266 22.526 Q 148.114 19.903 149.811 18.051 L 149.811 18.051 L 149.811 18.051 Q 150.609 17.1 151.483 16.894 L 151.483 16.894 L 151.483 16.894 Q 151.534 16.869 151.624 16.869 L 151.624 16.869 L 151.624 16.869 Q 151.714 16.869 151.843 16.817 L 151.843 16.817 Z  M 160.74 20.494 L 160.74 20.494 Q 161.049 20.417 161.486 20.366 L 161.486 20.366 L 161.486 20.366 Q 164.391 19.877 166.346 17.614 L 166.346 17.614 L 166.346 17.614 Q 166.783 17.203 166.963 16.457 L 166.963 16.457 L 166.963 16.457 Q 167.04 16.226 167.04 16.02 L 167.04 16.02 L 167.04 16.02 Q 167.04 15.531 166.706 15.171 L 166.706 15.171 L 166.706 15.171 Q 166.114 14.349 164.906 14.169 L 164.906 14.169 L 164.906 14.169 Q 164.649 14.117 164.16 14.117 L 164.16 14.117 L 164.16 14.117 Q 162.926 14.117 161.923 14.811 L 161.923 14.811 L 161.923 14.811 Q 161.126 15.351 160.046 16.329 L 160.046 16.329 L 160.046 16.329 Q 157.834 18.36 157.217 21.214 L 157.217 21.214 L 157.217 21.214 Q 157.063 21.831 157.063 22.449 L 157.063 22.449 L 157.063 22.449 Q 157.063 23.76 157.706 24.891 L 157.706 24.891 L 157.706 24.891 Q 158.194 25.817 159.056 26.319 L 159.056 26.319 L 159.056 26.319 Q 159.917 26.82 160.92 26.82 L 160.92 26.82 L 160.92 26.82 Q 162.077 26.82 163.029 26.177 L 163.029 26.177 L 163.029 26.177 Q 164.623 25.329 165.806 23.966 L 165.806 23.966 L 165.806 23.966 Q 166.989 22.603 168.48 20.469 L 168.48 20.469 L 168.48 20.469 Q 168.531 20.366 168.531 20.211 L 168.531 20.211 L 168.531 20.211 Q 168.531 19.929 168.3 19.929 L 168.3 19.929 L 168.3 19.929 Q 168.094 19.929 167.889 20.211 L 167.889 20.211 L 167.889 20.211 Q 166.371 22.346 164.276 24.197 L 164.276 24.197 L 164.276 24.197 Q 162.18 26.049 161.049 26.049 L 161.049 26.049 L 161.049 26.049 Q 160.534 26.049 160.303 25.611 L 160.303 25.611 L 160.303 25.611 Q 160.046 25.2 160.02 24.789 L 160.02 24.789 L 160.02 24.789 Q 159.994 24.557 159.994 24.094 L 159.994 24.094 L 159.994 24.094 Q 159.994 22.474 160.74 20.494 L 160.74 20.494 Z  M 161.049 19.646 L 161.46 18.849 L 161.46 18.849 Q 162.386 17.126 163.749 15.969 L 163.749 15.969 L 163.749 15.969 Q 164.237 15.583 164.906 15.274 L 164.906 15.274 L 164.906 15.274 Q 165.06 15.197 165.214 15.197 L 165.214 15.197 L 165.214 15.197 Q 165.626 15.197 165.703 15.737 L 165.703 15.737 L 165.703 15.737 Q 165.729 15.866 165.729 16.071 L 165.729 16.071 L 165.729 16.071 Q 165.729 16.56 165.42 16.997 L 165.42 16.997 L 165.42 16.997 Q 164.751 17.846 164.289 18.206 L 164.289 18.206 L 164.289 18.206 Q 163.671 18.72 162.887 19.041 L 162.887 19.041 L 162.887 19.041 Q 162.103 19.363 161.049 19.646 L 161.049 19.646 Z  M 1.054 30.189 L 1.054 30.189 Q 0.489 30.394 0.18 30.549 L 0.18 30.549 L 0.18 30.549 Q 0 30.651 0 30.806 L 0 30.806 L 0 30.806 Q 0 30.96 0.154 31.089 L 0.154 31.089 L 0.154 31.089 Q 0.257 31.166 0.36 31.204 L 0.36 31.204 L 0.36 31.204 Q 0.463 31.243 0.514 31.269 L 0.514 31.269 L 0.514 31.269 Q 0.977 31.371 1.183 31.371 L 1.183 31.371 L 1.183 31.371 Q 1.44 31.371 1.851 31.269 L 1.851 31.269 L 1.851 31.269 Q 3.111 30.703 4.32 30.703 L 4.32 30.703 L 4.757 30.729 L 4.757 30.729 Q 5.04 30.729 5.194 30.651 L 5.194 30.651 L 5.194 30.651 Q 5.4 30.6 5.4 30.446 L 5.4 30.446 L 5.426 30.394 L 5.426 30.394 Q 5.426 30.343 5.374 30.279 L 5.374 30.279 L 5.374 30.279 Q 5.323 30.214 5.271 30.189 L 5.271 30.189 L 5.271 30.189 Q 4.757 29.983 4.14 29.854 L 4.14 29.854 L 4.14 29.854 Q 3.831 29.777 3.111 29.777 L 3.111 29.777 L 3.111 29.366 L 3.111 29.366 Q 3.111 28.466 3.253 27.579 L 3.253 27.579 L 3.253 27.579 Q 3.394 26.691 3.651 25.534 L 3.651 25.534 L 3.883 24.403 L 3.883 24.403 Q 4.526 21.214 4.911 19.749 L 4.911 19.749 L 4.911 19.749 Q 6.557 13.243 8.511 5.991 L 8.511 5.991 L 8.949 4.346 L 8.949 4.346 Q 9.206 4.397 9.309 4.397 L 9.309 4.397 L 9.309 4.397 Q 9.463 4.371 9.617 4.384 L 9.617 4.384 L 9.617 4.384 Q 9.771 4.397 9.9 4.371 L 9.9 4.371 L 9.9 4.371 Q 10.157 4.294 10.157 4.114 L 10.157 4.114 L 10.157 4.114 Q 10.157 4.011 10.054 3.909 L 10.054 3.909 L 10.054 3.909 Q 9.823 3.703 9.514 3.574 L 9.514 3.574 L 9.514 3.574 Q 8.64 3.214 8.177 3.086 L 8.177 3.086 L 8.177 3.086 Q 7.869 2.931 7.457 2.931 L 7.457 2.931 L 7.457 2.931 Q 7.226 2.931 7.097 2.957 L 7.097 2.957 L 7.097 2.957 Q 6.814 3.034 6.249 3.137 L 6.249 3.137 L 6.249 3.137 Q 5.4 3.266 4.68 3.446 L 4.68 3.446 L 4.68 3.446 Q 4.577 3.471 4.474 3.561 L 4.474 3.561 L 4.474 3.561 Q 4.371 3.651 4.371 3.754 L 4.371 3.754 L 4.371 3.806 L 4.371 3.806 Q 4.371 3.883 4.577 4.166 L 4.577 4.166 L 4.577 4.166 Q 4.783 4.294 5.22 4.449 L 5.22 4.449 L 5.22 4.449 Q 5.374 4.5 5.619 4.526 L 5.619 4.526 L 5.619 4.526 Q 5.863 4.551 6.017 4.577 L 6.017 4.577 L 6.017 4.577 Q 5.297 6.377 4.693 8.203 L 4.693 8.203 L 4.693 8.203 Q 4.089 10.029 3.291 12.677 L 3.291 12.677 L 3.291 12.677 Q 2.443 15.557 1.839 18.026 L 1.839 18.026 L 1.839 18.026 Q 1.234 20.494 0.874 22.886 L 0.874 22.886 L 0.874 22.886 Q 0.591 24.789 0.591 26.511 L 0.591 26.511 L 0.591 26.511 Q 0.591 27.514 0.72 28.749 L 0.72 28.749 L 0.72 28.749 Q 0.849 29.494 1.054 30.189 L 1.054 30.189 Z  M 17.974 30.754 L 17.974 30.754 Q 17.897 30.754 17.871 30.729 L 17.871 30.729 L 17.871 30.729 Q 17.769 30.086 17.769 29.289 L 17.769 29.289 L 17.769 29.289 Q 17.769 28.491 17.871 27.849 L 17.871 27.849 L 17.871 27.849 Q 18.283 24.891 18.797 21.806 L 18.797 21.806 L 18.797 21.806 Q 18.926 20.829 19.041 19.8 L 19.041 19.8 L 19.041 19.8 Q 19.157 18.771 19.157 17.897 L 19.157 17.897 L 19.157 17.897 Q 19.157 16.689 18.771 15.609 L 18.771 15.609 L 18.771 15.609 Q 18.514 14.914 17.884 14.516 L 17.884 14.516 L 17.884 14.516 Q 17.254 14.117 16.534 14.117 L 16.534 14.117 L 16.534 14.117 Q 15.506 14.117 14.837 14.889 L 14.837 14.889 L 14.837 14.889 Q 13.963 15.891 13.474 16.869 L 13.474 16.869 L 13.474 16.869 Q 12.06 19.62 11.314 22.191 L 11.314 22.191 L 11.314 22.191 Q 11.109 22.911 10.646 24.351 L 10.646 24.351 L 10.157 25.894 L 10.157 25.894 Q 10.131 26.049 9.977 26.229 L 9.977 26.229 L 9.977 26.229 Q 10.029 25.251 10.08 24.763 L 10.08 24.763 L 10.08 24.763 Q 10.106 24.531 10.131 24.197 L 10.131 24.197 L 10.131 24.197 Q 10.157 23.863 10.157 23.426 L 10.157 23.426 L 10.157 23.426 Q 10.209 22.449 10.26 21.909 L 10.26 21.909 L 10.26 21.909 Q 10.414 19.44 10.44 18.206 L 10.44 18.206 L 10.44 18.206 Q 10.491 17.717 10.376 17.151 L 10.376 17.151 L 10.376 17.151 Q 10.26 16.586 10.234 16.406 L 10.234 16.406 L 10.234 16.406 Q 10.131 15.763 9.463 15.609 L 9.463 15.609 L 9.463 15.609 Q 9.051 15.429 8.64 15.429 L 8.64 15.429 L 8.64 15.429 Q 8.229 15.377 8.023 15.531 L 8.023 15.531 L 8.023 15.531 Q 7.817 15.686 7.714 16.097 L 7.714 16.097 L 7.714 16.097 Q 7.637 16.354 7.637 16.637 L 7.637 16.637 L 7.38 19.234 L 7.38 19.234 Q 7.149 21.111 6.994 23.117 L 6.994 23.117 L 6.994 23.117 Q 6.917 23.76 6.917 24.403 L 6.917 24.403 L 6.917 24.403 Q 6.917 25.303 7.123 26.331 L 7.123 26.331 L 7.123 26.331 Q 7.38 27.463 8.151 28.466 L 8.151 28.466 L 8.151 28.466 Q 8.331 28.671 8.653 28.8 L 8.653 28.8 L 8.653 28.8 Q 8.974 28.929 9.334 28.929 L 9.334 28.929 L 9.334 28.929 Q 10.209 28.929 10.62 28.234 L 10.62 28.234 L 10.62 28.234 Q 10.826 27.9 11.006 27.553 L 11.006 27.553 L 11.006 27.553 Q 11.186 27.206 11.263 26.897 L 11.263 26.897 L 11.263 26.897 Q 11.726 25.74 12.137 24.274 L 12.137 24.274 L 12.137 24.274 Q 12.626 22.577 13.037 21.369 L 13.037 21.369 L 13.037 21.369 Q 13.449 20.16 13.937 19.029 L 13.937 19.029 L 13.937 19.029 Q 14.837 17.023 15.763 15.737 L 15.763 15.737 L 15.763 15.737 Q 15.814 15.686 15.943 15.557 L 15.943 15.557 L 15.943 15.557 Q 16.071 15.429 16.251 15.377 L 16.251 15.377 L 16.251 16.329 L 15.891 19.646 L 15.891 19.646 Q 15.3 23.734 15.223 26.126 L 15.223 26.126 L 15.223 26.126 Q 15.171 27.206 15.171 27.746 L 15.171 27.746 L 15.171 27.746 Q 15.171 28.929 15.351 29.931 L 15.351 29.931 L 15.351 29.931 Q 15.506 30.909 15.943 31.654 L 15.943 31.654 L 15.943 31.654 Q 16.38 32.246 16.894 32.297 L 16.894 32.297 L 16.894 32.297 Q 17.023 32.323 17.254 32.323 L 17.254 32.323 L 17.254 32.323 Q 18.206 32.323 18.771 31.629 L 18.771 31.629 L 18.771 31.629 Q 19.311 30.96 19.491 30.446 L 19.491 30.446 L 19.491 30.446 Q 19.826 29.597 20.263 28.183 L 20.263 28.183 L 20.417 27.669 L 20.417 27.669 Q 20.469 27.54 20.507 27.36 L 20.507 27.36 L 20.507 27.36 Q 20.546 27.18 20.571 27.077 L 20.571 27.077 L 20.571 27.077 Q 20.623 26.949 20.674 26.73 L 20.674 26.73 L 20.674 26.73 Q 20.726 26.511 20.803 26.357 L 20.803 26.357 L 21.729 23.811 L 21.729 23.811 Q 22.32 22.191 22.474 21.754 L 22.474 21.754 L 22.474 21.754 Q 22.68 20.983 22.834 20.289 L 22.834 20.289 L 22.834 20.211 L 22.834 20.211 Q 22.834 19.929 22.5 19.929 L 22.5 19.929 L 22.5 19.929 Q 21.986 19.929 21.831 20.391 L 21.831 20.391 L 21.831 20.391 Q 21.754 20.597 21.664 20.88 L 21.664 20.88 L 21.664 20.88 Q 21.574 21.163 21.523 21.291 L 21.523 21.291 L 21.523 21.291 Q 21.446 21.6 21.24 22.166 L 21.24 22.166 L 21.24 22.166 Q 20.057 25.431 18.617 29.289 L 18.617 29.289 L 18.617 29.289 Q 18.437 29.777 18.231 30.163 L 18.231 30.163 L 17.974 30.754 Z  M 23.554 26.357 L 23.4 26.331 L 23.4 25.971 L 23.4 25.971 Q 23.4 25.611 23.451 25.431 L 23.451 25.431 L 23.451 25.431 Q 23.657 24.197 23.889 23.606 L 23.889 23.606 L 23.889 23.606 Q 24.48 21.651 25.92 19.826 L 25.92 19.826 L 25.92 19.826 Q 27.206 18.154 28.414 17.511 L 28.414 17.511 L 28.414 17.511 Q 28.98 17.229 29.186 17.229 L 29.186 17.229 L 29.186 17.229 Q 29.391 17.229 29.559 17.344 L 29.559 17.344 L 29.559 17.344 Q 29.726 17.46 30.034 17.769 L 30.034 17.769 L 30.034 17.769 Q 30.369 18.051 30.549 18.129 L 30.549 18.129 L 30.549 18.129 Q 30.703 18.18 30.831 18.18 L 30.831 18.18 L 30.831 18.18 Q 31.063 18.18 31.191 18.026 L 31.191 18.026 L 31.191 18.026 Q 31.346 17.871 31.346 17.666 L 31.346 17.666 L 31.346 17.666 Q 31.346 17.511 31.269 17.357 L 31.269 17.357 L 31.269 17.357 Q 31.037 16.946 30.78 16.689 L 30.78 16.689 L 30.78 16.689 Q 29.417 15.531 27.617 15.531 L 27.617 15.531 L 27.617 15.531 Q 25.766 15.531 24.274 16.946 L 24.274 16.946 L 24.274 16.946 Q 21.909 18.977 20.957 22.474 L 20.957 22.474 L 20.957 22.474 Q 20.751 23.297 20.751 24.043 L 20.751 24.043 L 20.751 24.043 Q 20.751 24.969 21.009 25.766 L 21.009 25.766 L 21.009 25.766 Q 21.266 26.589 21.96 27.09 L 21.96 27.09 L 21.96 27.09 Q 22.654 27.591 23.477 27.591 L 23.477 27.591 L 23.477 27.591 Q 24.48 27.591 25.251 26.846 L 25.251 26.846 L 25.251 26.846 Q 25.817 26.177 26.151 25.869 L 26.151 25.869 L 26.46 25.586 L 26.46 25.586 Q 26.383 25.971 26.254 26.229 L 26.254 26.229 L 26.254 26.229 Q 26.126 26.486 25.894 26.691 L 25.894 26.691 L 25.894 26.691 Q 23.786 28.337 21.754 30.137 L 21.754 30.137 L 21.754 30.137 Q 18.823 32.734 16.637 36.077 L 16.637 36.077 L 16.637 36.077 Q 16.02 37.106 15.789 37.646 L 15.789 37.646 L 15.789 37.646 Q 14.914 39.446 14.914 41.297 L 14.914 41.297 L 14.914 41.297 Q 14.914 42.146 15.249 42.75 L 15.249 42.75 L 15.249 42.75 Q 15.583 43.354 16.277 43.766 L 16.277 43.766 L 16.277 43.766 Q 16.586 43.92 17.357 44.151 L 17.357 44.151 L 17.357 44.151 Q 17.794 44.28 18.411 44.28 L 18.411 44.28 L 18.411 44.28 Q 19.826 44.28 21.06 43.406 L 21.06 43.406 L 21.06 43.406 Q 24.171 41.271 25.611 37.954 L 25.611 37.954 L 25.611 37.954 Q 26.049 36.951 26.344 35.974 L 26.344 35.974 L 26.344 35.974 Q 26.64 34.997 27.129 33.171 L 27.129 33.171 L 27.411 32.117 L 27.591 31.449 L 27.591 31.449 Q 28.234 29.109 28.607 27.874 L 28.607 27.874 L 28.607 27.874 Q 28.98 26.64 29.494 25.329 L 29.494 25.329 L 29.494 25.329 Q 29.623 24.84 30.111 24.454 L 30.111 24.454 L 30.111 24.454 Q 32.426 22.654 34.329 20.597 L 34.329 20.597 L 34.329 20.597 Q 34.38 20.494 34.457 20.43 L 34.457 20.43 L 34.457 20.43 Q 34.534 20.366 34.56 20.314 L 34.56 20.314 L 34.56 20.314 Q 34.277 19.877 34.046 19.877 L 34.046 19.877 L 34.046 19.877 Q 33.84 19.877 33.557 20.134 L 33.557 20.134 L 33.557 20.134 Q 33.274 20.417 31.449 22.037 L 31.449 22.037 L 30.677 22.731 L 30.677 22.731 Q 30.626 22.783 30.536 22.821 L 30.536 22.821 L 30.536 22.821 Q 30.446 22.86 30.369 22.937 L 30.369 22.937 L 30.369 22.937 Q 30.394 22.68 30.471 22.577 L 30.471 22.577 L 30.471 22.577 Q 30.754 21.574 31.191 20.289 L 31.191 20.289 L 31.191 20.289 Q 31.243 20.083 31.243 19.98 L 31.243 19.98 L 31.243 19.98 Q 31.243 19.8 31.14 19.671 L 31.14 19.671 L 31.14 19.671 Q 30.703 19.054 30.009 18.951 L 30.009 18.951 L 30.009 18.951 Q 29.957 18.926 29.854 18.926 L 29.854 18.926 L 29.854 18.926 Q 29.623 18.926 29.417 19.131 L 29.417 19.131 L 29.417 19.131 Q 29.083 19.466 28.826 19.941 L 28.826 19.941 L 28.826 19.941 Q 28.569 20.417 28.517 20.494 L 28.517 20.494 L 28.517 20.494 Q 28.44 20.649 28.286 20.983 L 28.286 20.983 L 28.286 20.983 Q 28.131 21.317 27.977 21.549 L 27.977 21.549 L 27.977 21.549 Q 26.486 23.709 24.069 25.971 L 24.069 25.971 L 24.069 25.971 Q 23.863 26.177 23.554 26.357 L 23.554 26.357 Z  M 17.434 42.891 L 17.434 42.891 Q 16.946 42.3 16.894 41.426 L 16.894 41.426 L 16.894 41.426 Q 16.74 38.803 18.309 36.309 L 18.309 36.309 L 18.309 36.309 Q 19.646 34.097 21.96 31.654 L 21.96 31.654 L 21.96 31.654 Q 23.451 30.086 25.56 28.286 L 25.56 28.286 L 25.56 28.286 Q 25.611 28.389 25.611 28.491 L 25.611 28.491 L 25.611 28.491 Q 25.303 29.417 24.737 31.32 L 24.737 31.32 L 24.737 31.32 Q 23.709 34.611 23.58 34.997 L 23.58 34.997 L 23.58 34.997 Q 22.654 37.903 20.957 40.114 L 20.957 40.114 L 20.957 40.114 Q 20.083 41.297 18.489 42.351 L 18.489 42.351 L 18.489 42.351 Q 18.386 42.429 17.434 42.891 L 17.434 42.891 Z  M 37.877 35.049 L 37.877 35.049 Q 37.826 34.637 37.826 34.457 L 37.826 34.457 L 37.826 34.457 Q 37.826 33.969 37.98 33.146 L 37.98 33.146 L 37.98 33.146 Q 38.469 30.189 39.317 26.794 L 39.317 26.794 L 39.317 26.794 Q 39.883 24.223 39.857 22.577 L 39.857 22.577 L 39.857 22.577 Q 39.754 20.906 38.88 20.057 L 38.88 20.057 L 38.88 20.057 Q 38.34 19.569 37.774 19.106 L 37.774 19.106 L 37.774 19.106 Q 37.62 18.951 37.35 18.759 L 37.35 18.759 L 37.35 18.759 Q 37.08 18.566 36.9 18.437 L 36.9 18.437 L 36.9 18.437 Q 35.846 17.589 35.846 16.329 L 35.846 16.329 L 35.846 16.329 Q 35.82 15.737 35.91 15.184 L 35.91 15.184 L 35.91 15.184 Q 36 14.631 36.18 13.809 L 36.18 13.809 L 36.18 13.809 Q 36.231 13.603 36.231 13.5 L 36.231 13.5 L 36.231 13.5 Q 36.231 13.166 35.82 12.986 L 35.82 12.986 L 35.82 12.986 Q 35.409 12.78 34.971 12.78 L 34.971 12.78 L 34.971 12.78 Q 34.303 12.78 33.763 13.474 L 33.763 13.474 L 33.763 13.474 Q 33.454 13.911 33.017 14.889 L 33.017 14.889 L 33.017 14.889 Q 32.76 15.429 32.76 16.071 L 32.76 16.071 L 32.76 16.071 Q 32.76 16.637 33.043 17.331 L 33.043 17.331 L 33.043 17.331 Q 33.454 18.154 33.994 18.591 L 33.994 18.591 L 33.994 18.591 Q 34.097 18.669 34.547 19.041 L 34.547 19.041 L 34.547 19.041 Q 34.997 19.414 35.434 19.671 L 35.434 19.671 L 35.434 19.671 Q 36.849 20.52 36.694 22.114 L 36.694 22.114 L 36.334 24.737 L 36.334 24.737 Q 36.206 25.483 35.897 26.923 L 35.897 26.923 L 35.897 26.923 Q 35.511 28.723 35.306 29.906 L 35.306 29.906 L 35.306 29.906 Q 35.074 31.166 34.946 32.914 L 34.946 32.914 L 34.946 32.914 Q 34.92 33.094 34.92 33.454 L 34.92 33.454 L 34.92 33.454 Q 34.92 34.251 35.126 34.869 L 35.126 34.869 L 35.126 34.869 Q 35.589 36.103 36.977 36.231 L 36.977 36.231 L 36.977 36.231 Q 38.777 36.283 39.78 34.894 L 39.78 34.894 L 39.78 34.894 Q 40.526 33.789 40.86 33.017 L 40.86 33.017 L 42.069 30.317 L 43.046 28.106 L 46.106 21.291 L 46.106 21.291 Q 46.183 21.111 46.594 20.006 L 46.594 20.006 L 46.594 20.006 Q 46.311 19.826 46.08 19.826 L 46.08 19.826 L 46.08 19.826 Q 45.771 19.826 45.617 20.186 L 45.617 20.186 L 43.766 23.966 L 43.534 24.506 L 43.534 24.506 Q 43.457 24.84 43.303 25.097 L 43.303 25.097 L 42.48 26.897 L 42.48 26.897 Q 41.503 29.109 40.834 30.497 L 40.834 30.497 L 40.834 30.497 Q 40.371 31.5 39.06 33.711 L 39.06 33.711 L 39.06 33.711 Q 38.571 34.534 37.877 35.049 L 37.877 35.049 Z  M 48.471 20.494 L 48.471 20.494 Q 48.78 20.417 49.217 20.366 L 49.217 20.366 L 49.217 20.366 Q 52.123 19.877 54.077 17.614 L 54.077 17.614 L 54.077 17.614 Q 54.514 17.203 54.694 16.457 L 54.694 16.457 L 54.694 16.457 Q 54.771 16.226 54.771 16.02 L 54.771 16.02 L 54.771 16.02 Q 54.771 15.531 54.437 15.171 L 54.437 15.171 L 54.437 15.171 Q 53.846 14.349 52.637 14.169 L 52.637 14.169 L 52.637 14.169 Q 52.38 14.117 51.891 14.117 L 51.891 14.117 L 51.891 14.117 Q 50.657 14.117 49.654 14.811 L 49.654 14.811 L 49.654 14.811 Q 48.857 15.351 47.777 16.329 L 47.777 16.329 L 47.777 16.329 Q 45.566 18.36 44.949 21.214 L 44.949 21.214 L 44.949 21.214 Q 44.794 21.831 44.794 22.449 L 44.794 22.449 L 44.794 22.449 Q 44.794 23.76 45.437 24.891 L 45.437 24.891 L 45.437 24.891 Q 45.926 25.817 46.787 26.319 L 46.787 26.319 L 46.787 26.319 Q 47.649 26.82 48.651 26.82 L 48.651 26.82 L 48.651 26.82 Q 49.809 26.82 50.76 26.177 L 50.76 26.177 L 50.76 26.177 Q 52.354 25.329 53.537 23.966 L 53.537 23.966 L 53.537 23.966 Q 54.72 22.603 56.211 20.469 L 56.211 20.469 L 56.211 20.469 Q 56.263 20.366 56.263 20.211 L 56.263 20.211 L 56.263 20.211 Q 56.263 19.929 56.031 19.929 L 56.031 19.929 L 56.031 19.929 Q 55.826 19.929 55.62 20.211 L 55.62 20.211 L 55.62 20.211 Q 54.103 22.346 52.007 24.197 L 52.007 24.197 L 52.007 24.197 Q 49.911 26.049 48.78 26.049 L 48.78 26.049 L 48.78 26.049 Q 48.266 26.049 48.034 25.611 L 48.034 25.611 L 48.034 25.611 Q 47.777 25.2 47.751 24.789 L 47.751 24.789 L 47.751 24.789 Q 47.726 24.557 47.726 24.094 L 47.726 24.094 L 47.726 24.094 Q 47.726 22.474 48.471 20.494 L 48.471 20.494 Z  M 48.78 19.646 L 49.191 18.849 L 49.191 18.849 Q 50.117 17.126 51.48 15.969 L 51.48 15.969 L 51.48 15.969 Q 51.969 15.583 52.637 15.274 L 52.637 15.274 L 52.637 15.274 Q 52.791 15.197 52.946 15.197 L 52.946 15.197 L 52.946 15.197 Q 53.357 15.197 53.434 15.737 L 53.434 15.737 L 53.434 15.737 Q 53.46 15.866 53.46 16.071 L 53.46 16.071 L 53.46 16.071 Q 53.46 16.56 53.151 16.997 L 53.151 16.997 L 53.151 16.997 Q 52.483 17.846 52.02 18.206 L 52.02 18.206 L 52.02 18.206 Q 51.403 18.72 50.619 19.041 L 50.619 19.041 L 50.619 19.041 Q 49.834 19.363 48.78 19.646 L 48.78 19.646 Z  M 57.214 14.014 L 56.854 15.069 L 56.854 15.069 Q 55.877 18.154 55.054 22.114 L 55.054 22.114 L 55.054 22.114 Q 54.514 25.097 54.566 27.077 L 54.566 27.077 L 54.566 27.077 Q 54.566 28.337 55.286 29.469 L 55.286 29.469 L 55.286 29.469 Q 55.671 30.086 56.263 30.446 L 56.263 30.446 L 56.263 30.446 Q 56.854 30.806 57.6 30.806 L 57.6 30.806 L 57.6 30.806 Q 59.143 30.806 60.146 29.829 L 60.146 29.829 L 60.146 29.829 Q 60.917 28.954 61.149 28.569 L 61.149 28.569 L 61.149 28.569 Q 62.846 25.74 64.054 22.037 L 64.054 22.037 L 64.054 22.037 Q 64.183 21.626 64.671 20.289 L 64.671 20.289 L 64.774 19.851 L 64.774 19.851 Q 64.466 19.749 64.363 19.749 L 64.363 19.749 L 64.363 19.749 Q 64.054 19.749 63.926 20.134 L 63.926 20.134 L 63.926 20.134 Q 63.566 20.957 63.411 21.369 L 63.411 21.369 L 63.026 22.269 L 63.026 22.269 Q 62.28 23.76 60.789 26.537 L 60.789 26.537 L 60.789 26.537 Q 60.326 27.463 59.554 28.594 L 59.554 28.594 L 59.554 28.594 Q 59.066 29.366 58.474 29.726 L 58.474 29.726 L 58.474 29.726 Q 58.191 29.391 58.101 29.006 L 58.101 29.006 L 58.101 29.006 Q 58.011 28.62 57.986 28.106 L 57.986 28.106 L 57.986 28.106 Q 57.96 27.797 57.96 27.154 L 57.96 27.154 L 57.96 27.154 Q 57.96 25.046 58.371 22.654 L 58.371 22.654 L 58.371 22.654 Q 59.297 17.923 60.943 13.834 L 60.943 13.834 L 60.943 13.834 Q 61.123 13.217 61.766 13.191 L 61.766 13.191 L 61.766 13.191 Q 62.614 13.166 64.311 13.011 L 64.311 13.011 L 64.311 13.011 Q 64.723 12.96 64.826 12.909 L 64.826 12.909 L 64.826 12.909 Q 65.109 12.831 65.263 12.741 L 65.263 12.741 L 65.263 12.741 Q 65.417 12.651 65.443 12.446 L 65.443 12.446 L 65.443 12.369 L 65.443 12.369 Q 65.443 12.214 65.34 12.099 L 65.34 12.099 L 65.34 12.099 Q 65.237 11.983 65.121 11.919 L 65.121 11.919 L 65.121 11.919 Q 65.006 11.854 64.954 11.829 L 64.954 11.829 L 64.954 11.829 Q 64.106 11.263 62.871 11.211 L 62.871 11.211 L 62.049 11.211 L 62.203 10.851 L 62.203 10.851 Q 62.357 10.363 62.691 9.669 L 62.691 9.669 L 62.691 9.669 Q 62.794 9.437 62.794 9.129 L 62.794 9.129 L 62.794 9.129 Q 62.794 8.537 62.203 8.177 L 62.203 8.177 L 62.203 8.177 Q 61.714 7.92 61.226 7.791 L 61.226 7.791 L 61.226 7.791 Q 61.02 7.74 60.686 7.74 L 60.686 7.74 L 60.686 7.74 Q 59.786 7.74 59.374 8.717 L 59.374 8.717 L 59.066 9.411 L 59.066 9.411 Q 58.68 10.337 58.346 11.186 L 58.346 11.186 L 58.346 11.186 Q 58.191 11.649 57.703 11.726 L 57.703 11.726 L 57.703 11.726 Q 57.163 11.777 56.083 12.034 L 56.083 12.034 L 56.083 12.034 Q 55.337 12.163 54.283 12.446 L 54.283 12.446 L 54.283 12.446 Q 53.769 12.549 53.769 12.883 L 53.769 12.883 L 53.769 12.883 Q 53.769 13.037 53.871 13.217 L 53.871 13.217 L 53.871 13.217 Q 54.103 13.68 54.591 14.117 L 54.591 14.117 L 54.591 14.117 Q 54.849 14.374 55.26 14.374 L 55.26 14.374 L 55.26 14.374 Q 55.414 14.374 55.491 14.349 L 55.491 14.349 L 55.491 14.349 Q 55.723 14.323 56.057 14.22 L 56.057 14.22 L 57.214 14.014 Z  M 66.78 20.494 L 66.78 20.494 Q 67.089 20.417 67.526 20.366 L 67.526 20.366 L 67.526 20.366 Q 70.431 19.877 72.386 17.614 L 72.386 17.614 L 72.386 17.614 Q 72.823 17.203 73.003 16.457 L 73.003 16.457 L 73.003 16.457 Q 73.08 16.226 73.08 16.02 L 73.08 16.02 L 73.08 16.02 Q 73.08 15.531 72.746 15.171 L 72.746 15.171 L 72.746 15.171 Q 72.154 14.349 70.946 14.169 L 70.946 14.169 L 70.946 14.169 Q 70.689 14.117 70.2 14.117 L 70.2 14.117 L 70.2 14.117 Q 68.966 14.117 67.963 14.811 L 67.963 14.811 L 67.963 14.811 Q 67.166 15.351 66.086 16.329 L 66.086 16.329 L 66.086 16.329 Q 63.874 18.36 63.257 21.214 L 63.257 21.214 L 63.257 21.214 Q 63.103 21.831 63.103 22.449 L 63.103 22.449 L 63.103 22.449 Q 63.103 23.76 63.746 24.891 L 63.746 24.891 L 63.746 24.891 Q 64.234 25.817 65.096 26.319 L 65.096 26.319 L 65.096 26.319 Q 65.957 26.82 66.96 26.82 L 66.96 26.82 L 66.96 26.82 Q 68.117 26.82 69.069 26.177 L 69.069 26.177 L 69.069 26.177 Q 70.663 25.329 71.846 23.966 L 71.846 23.966 L 71.846 23.966 Q 73.029 22.603 74.52 20.469 L 74.52 20.469 L 74.52 20.469 Q 74.571 20.366 74.571 20.211 L 74.571 20.211 L 74.571 20.211 Q 74.571 19.929 74.34 19.929 L 74.34 19.929 L 74.34 19.929 Q 74.134 19.929 73.929 20.211 L 73.929 20.211 L 73.929 20.211 Q 72.411 22.346 70.316 24.197 L 70.316 24.197 L 70.316 24.197 Q 68.22 26.049 67.089 26.049 L 67.089 26.049 L 67.089 26.049 Q 66.574 26.049 66.343 25.611 L 66.343 25.611 L 66.343 25.611 Q 66.086 25.2 66.06 24.789 L 66.06 24.789 L 66.06 24.789 Q 66.034 24.557 66.034 24.094 L 66.034 24.094 L 66.034 24.094 Q 66.034 22.474 66.78 20.494 L 66.78 20.494 Z  M 67.089 19.646 L 67.5 18.849 L 67.5 18.849 Q 68.426 17.126 69.789 15.969 L 69.789 15.969 L 69.789 15.969 Q 70.277 15.583 70.946 15.274 L 70.946 15.274 L 70.946 15.274 Q 71.1 15.197 71.254 15.197 L 71.254 15.197 L 71.254 15.197 Q 71.666 15.197 71.743 15.737 L 71.743 15.737 L 71.743 15.737 Q 71.769 15.866 71.769 16.071 L 71.769 16.071 L 71.769 16.071 Q 71.769 16.56 71.46 16.997 L 71.46 16.997 L 71.46 16.997 Q 70.791 17.846 70.329 18.206 L 70.329 18.206 L 70.329 18.206 Q 69.711 18.72 68.927 19.041 L 68.927 19.041 L 68.927 19.041 Q 68.143 19.363 67.089 19.646 L 67.089 19.646 Z  M 77.477 24.891 L 77.477 24.891 Q 77.554 24.891 77.58 24.917 L 77.58 24.917 L 77.58 24.917 Q 77.657 25.02 77.657 25.174 L 77.657 25.174 L 77.657 25.174 Q 77.889 26.614 78.043 28.029 L 78.043 28.029 L 78.043 28.029 Q 78.171 28.8 78.3 29.314 L 78.3 29.314 L 78.3 29.314 Q 78.429 29.829 78.66 30.317 L 78.66 30.317 L 78.66 30.317 Q 79.097 31.217 79.817 31.706 L 79.817 31.706 L 79.817 31.706 Q 80.537 32.194 81.489 32.194 L 81.489 32.194 L 81.489 32.194 Q 81.874 32.194 82.44 32.066 L 82.44 32.066 L 82.44 32.066 Q 83.211 31.86 83.597 31.294 L 83.597 31.294 L 83.597 31.294 Q 84.086 30.677 84.343 30.189 L 84.343 30.189 L 84.343 30.189 Q 84.754 29.52 85.397 28.106 L 85.397 28.106 L 85.397 28.106 Q 86.606 25.38 87.261 23.773 L 87.261 23.773 L 87.261 23.773 Q 87.917 22.166 88.431 20.417 L 88.431 20.417 L 88.431 20.417 Q 88.457 20.366 88.457 20.134 L 88.457 20.134 L 88.457 20.134 Q 88.226 20.031 88.02 20.031 L 88.02 20.031 L 88.02 20.031 Q 87.84 20.031 87.724 20.147 L 87.724 20.147 L 87.724 20.147 Q 87.609 20.263 87.48 20.546 L 87.48 20.546 L 85.371 25.791 L 85.371 25.791 Q 84.137 28.671 83.031 30.291 L 83.031 30.291 L 83.031 30.291 Q 82.671 30.806 82.44 30.986 L 82.44 30.986 L 82.44 30.986 Q 82.131 31.346 81.849 31.346 L 81.849 31.346 L 81.849 31.346 Q 81.489 31.346 81.257 30.729 L 81.257 30.729 L 81.257 30.729 Q 81.231 30.626 81.193 30.51 L 81.193 30.51 L 81.193 30.51 Q 81.154 30.394 81.154 30.317 L 81.154 30.317 L 81.051 29.134 L 81.051 29.134 Q 80.949 26.871 80.691 25.586 L 80.691 25.586 L 80.691 25.586 Q 80.434 24.583 79.843 23.991 L 79.843 23.991 L 79.843 23.991 Q 79.637 23.837 79.534 23.811 L 79.534 23.811 L 80.486 23.169 L 80.486 23.169 Q 81.9 22.243 82.414 21.857 L 82.414 21.857 L 82.414 21.857 Q 82.723 21.651 83.083 21.189 L 83.083 21.189 L 83.083 21.189 Q 83.417 20.7 83.597 20.263 L 83.597 20.263 L 83.597 20.263 Q 83.777 19.826 83.777 19.311 L 83.777 19.311 L 83.777 19.311 Q 83.777 18.669 83.366 18.296 L 83.366 18.296 L 83.366 18.296 Q 82.954 17.923 82.26 17.923 L 82.26 17.923 L 82.26 17.923 Q 81.514 17.923 80.794 18.514 L 80.794 18.514 L 80.794 18.514 Q 79.38 19.671 78.274 21.214 L 78.274 21.214 L 78.274 21.214 Q 78.146 21.394 77.4 22.629 L 77.4 22.629 L 76.5 24.069 L 76.5 24.069 Q 76.474 24.171 76.32 24.326 L 76.32 24.326 L 76.32 24.326 Q 76.423 23.606 76.526 23.053 L 76.526 23.053 L 76.526 23.053 Q 76.629 22.5 76.706 22.114 L 76.706 22.114 L 76.706 22.114 Q 76.834 21.574 76.963 20.751 L 76.963 20.751 L 76.963 20.751 Q 77.04 20.52 77.297 20.366 L 77.297 20.366 L 77.297 20.366 Q 77.863 19.98 78.197 19.671 L 78.197 19.671 L 78.197 19.671 Q 81.283 17.074 83.571 13.757 L 83.571 13.757 L 84.034 13.114 L 84.034 13.114 Q 84.986 11.726 85.487 10.916 L 85.487 10.916 L 85.487 10.916 Q 85.989 10.106 86.4 9.206 L 86.4 9.206 L 86.4 9.206 Q 87.069 7.869 87.454 6.917 L 87.454 6.917 L 87.454 6.917 Q 87.84 5.966 88.02 4.937 L 88.02 4.937 L 88.02 4.937 Q 88.174 3.96 88.174 3.471 L 88.174 3.471 L 88.174 3.471 Q 88.174 2.7 87.943 1.929 L 87.943 1.929 L 87.943 1.929 Q 87.634 0.823 86.631 0.411 L 86.631 0.411 L 86.631 0.411 Q 85.706 0 84.729 0 L 84.729 0 L 84.729 0 Q 83.417 0 82.311 0.771 L 82.311 0.771 L 82.311 0.771 Q 81.283 1.466 80.177 2.751 L 80.177 2.751 L 80.177 2.751 Q 78.069 5.22 76.654 8.897 L 76.654 8.897 L 76.654 8.897 Q 75.24 12.626 74.263 16.997 L 74.263 16.997 L 74.263 16.997 Q 73.646 19.517 73.26 22.706 L 73.26 22.706 L 73.26 22.706 Q 73.131 23.991 73.131 24.969 L 73.131 24.969 L 73.131 24.969 Q 73.131 26.357 73.363 28.389 L 73.363 28.389 L 73.363 28.389 Q 73.44 29.031 74.057 29.571 L 74.057 29.571 L 74.057 29.571 Q 74.289 29.777 74.649 29.777 L 74.649 29.777 L 74.649 29.777 Q 74.931 29.777 75.137 29.674 L 75.137 29.674 L 75.137 29.674 Q 75.831 29.469 75.857 28.954 L 75.857 28.954 L 75.857 28.954 Q 75.857 28.774 75.934 28.671 L 75.934 28.671 L 76.783 26.486 L 77.04 25.894 L 77.04 25.894 Q 77.349 25.226 77.477 24.891 L 77.477 24.891 Z  M 77.4 18.746 L 77.4 18.746 Q 77.58 17.666 77.683 17.229 L 77.683 17.229 L 77.683 17.229 Q 78.84 12.574 80.203 9.051 L 80.203 9.051 L 80.203 9.051 Q 81.463 5.991 82.671 4.166 L 82.671 4.166 L 82.671 4.166 Q 83.391 3.034 84.394 2.031 L 84.394 2.031 L 84.394 2.031 Q 84.471 1.98 84.793 1.71 L 84.793 1.71 L 84.793 1.71 Q 85.114 1.44 85.551 1.311 L 85.551 1.311 L 85.551 1.311 Q 85.757 1.234 85.886 1.234 L 85.886 1.234 L 85.886 1.234 Q 85.989 1.234 86.091 1.324 L 86.091 1.324 L 86.091 1.324 Q 86.194 1.414 86.297 1.594 L 86.297 1.594 L 86.297 1.594 Q 86.786 2.366 86.786 3.729 L 86.786 3.729 L 86.786 3.729 Q 86.786 4.834 86.297 6.249 L 86.297 6.249 L 86.297 6.249 Q 85.654 8.151 84.343 10.234 L 84.343 10.234 L 84.343 10.234 Q 83.494 11.623 82.723 12.754 L 82.723 12.754 L 81.977 13.911 L 81.977 13.911 Q 81.154 15.146 80.113 16.226 L 80.113 16.226 L 80.113 16.226 Q 79.071 17.306 77.657 18.514 L 77.657 18.514 L 77.657 18.514 Q 77.58 18.566 77.4 18.746 L 77.4 18.746 Z  M 78.737 22.731 L 78.737 22.731 Q 79.149 21.729 80.216 20.443 L 80.216 20.443 L 80.216 20.443 Q 81.283 19.157 82.054 18.771 L 82.054 18.771 L 82.054 18.771 Q 82.08 18.849 82.08 19.003 L 82.08 19.003 L 82.08 19.003 Q 82.08 19.234 81.977 19.414 L 81.977 19.414 L 81.977 19.414 Q 81.411 20.726 80.511 21.471 L 80.511 21.471 L 80.511 21.471 Q 80.434 21.523 79.714 22.037 L 79.714 22.037 L 78.737 22.731 Z  M 93.446 21.574 L 93.523 21.651 L 93.523 21.651 Q 93.497 21.729 93.471 21.806 L 93.471 21.806 L 93.471 21.806 Q 93.446 21.883 93.42 21.986 L 93.42 21.986 L 93.42 21.986 Q 92.211 24.994 91.697 27.334 L 91.697 27.334 L 91.697 27.334 Q 91.414 28.517 91.414 29.237 L 91.414 29.237 L 91.414 29.237 Q 91.414 29.52 91.44 29.674 L 91.44 29.674 L 91.44 29.674 Q 91.569 30.574 91.877 31.089 L 91.877 31.089 L 91.877 31.089 Q 92.109 31.474 92.533 31.706 L 92.533 31.706 L 92.533 31.706 Q 92.957 31.937 93.42 31.937 L 93.42 31.937 L 93.42 31.937 Q 93.651 31.937 93.78 31.911 L 93.78 31.911 L 93.78 31.911 Q 94.294 31.783 94.449 31.449 L 94.449 31.449 L 94.449 31.449 Q 94.834 30.857 95.04 30.369 L 95.04 30.369 L 95.04 30.369 Q 95.297 29.777 95.709 28.594 L 95.709 28.594 L 96.583 26.537 L 96.583 26.537 Q 97.2 25.02 97.689 23.889 L 97.689 23.889 L 97.689 23.889 Q 97.843 23.529 99.231 20.777 L 99.231 20.777 L 99.54 20.186 L 99.54 20.186 Q 99.591 20.057 99.604 19.929 L 99.604 19.929 L 99.604 19.929 Q 99.617 19.8 99.566 19.774 L 99.566 19.774 L 99.566 19.774 Q 99.36 19.569 99.129 19.671 L 99.129 19.671 L 99.129 19.671 Q 99.026 19.697 98.91 19.8 L 98.91 19.8 L 98.91 19.8 Q 98.794 19.903 98.743 20.006 L 98.743 20.006 L 98.357 20.7 L 98.357 20.7 Q 97.483 22.269 97.226 22.809 L 97.226 22.809 L 97.226 22.809 Q 96.249 24.891 94.346 29.057 L 94.346 29.057 L 94.063 29.571 L 94.063 29.391 L 94.063 29.391 Q 94.063 29.134 94.089 29.006 L 94.089 29.006 L 94.089 29.006 Q 94.166 28.774 94.5 27.913 L 94.5 27.913 L 94.5 27.913 Q 94.834 27.051 95.04 26.254 L 95.04 26.254 L 95.04 26.254 Q 95.734 24.017 96.48 20.931 L 96.48 20.931 L 96.48 20.931 Q 96.66 20.211 96.66 19.337 L 96.66 19.337 L 96.66 19.337 Q 96.66 18.771 96.313 18.399 L 96.313 18.399 L 96.313 18.399 Q 95.966 18.026 95.4 17.897 L 95.4 17.897 L 95.246 17.897 L 95.246 17.897 Q 94.809 17.897 94.629 18.206 L 94.629 18.206 L 94.629 18.206 Q 94.551 18.334 94.384 18.501 L 94.384 18.501 L 94.384 18.501 Q 94.217 18.669 94.14 18.771 L 94.14 18.771 L 90.077 23.889 L 90.077 23.889 Q 89.434 24.763 88.329 25.997 L 88.329 25.997 L 88.329 25.997 Q 88.303 26.049 88.187 26.113 L 88.187 26.113 L 88.187 26.113 Q 88.071 26.177 87.969 26.254 L 87.969 26.254 L 87.969 26.254 Q 88.071 25.817 88.2 25.406 L 88.2 25.406 L 88.2 25.406 Q 89.383 21.214 92.443 17.666 L 92.443 17.666 L 92.443 17.666 Q 93.189 16.74 93.96 16.277 L 93.96 16.277 L 93.96 16.277 Q 94.397 16.02 94.654 16.02 L 94.654 16.02 L 94.654 16.02 Q 94.834 16.02 94.976 16.161 L 94.976 16.161 L 94.976 16.161 Q 95.117 16.303 95.323 16.611 L 95.323 16.611 L 95.323 16.611 Q 95.657 17.049 95.863 17.151 L 95.863 17.151 L 95.863 17.151 Q 95.966 17.229 96.094 17.229 L 96.094 17.229 L 96.094 17.229 Q 96.249 17.229 96.339 17.113 L 96.339 17.113 L 96.339 17.113 Q 96.429 16.997 96.429 16.791 L 96.429 16.791 L 96.429 16.791 Q 96.506 16.354 96.12 15.891 L 96.12 15.891 L 96.12 15.891 Q 95.657 15.429 95.066 14.966 L 95.066 14.966 L 95.066 14.966 Q 94.294 14.426 93.497 14.426 L 93.497 14.426 L 93.497 14.426 Q 92.88 14.426 92.16 14.786 L 92.16 14.786 L 92.16 14.786 Q 91.08 15.3 90.026 16.586 L 90.026 16.586 L 90.026 16.586 Q 88.149 18.797 86.966 21.189 L 86.966 21.189 L 86.966 21.189 Q 86.4 22.32 86.079 23.323 L 86.079 23.323 L 86.079 23.323 Q 85.757 24.326 85.757 25.354 L 85.757 25.354 L 85.757 25.354 Q 85.757 26.254 86.04 26.974 L 86.04 26.974 L 86.04 26.974 Q 86.374 27.9 87.583 28.209 L 87.583 28.209 L 87.583 28.209 Q 87.686 28.234 87.866 28.234 L 87.866 28.234 L 87.866 28.234 Q 88.431 28.234 88.997 27.669 L 88.997 27.669 L 88.997 27.669 Q 89.537 27.077 90.386 25.971 L 90.386 25.971 L 90.386 25.971 Q 91.106 25.02 91.62 24.171 L 91.62 24.171 L 92.083 23.477 L 92.083 23.477 Q 92.571 22.757 93.034 22.14 L 93.034 22.14 L 93.446 21.574 Z " fill="rgb(0,0,0)"/></g></svg>