<svg width="20" height="20" xmlns="http://www.w3.org/2000/svg">
 <g id="svg_30">
    <path id="svg_22" d="m8.598051,13.286736c-0.15,-0.36 -0.48,-0.36 -0.82,-0.5a6.55,6.55 0 0 1 -1.34,-0.75a13.34,13.34 0 0 1 -2.48,-2.33a0.37,0.37 0 0 0 -0.36,-0.09a2.55,2.55 0 0 0 -2.1,2.24a3.94,3.94 0 0 0 1.72,3.42a4.47,4.47 0 0 0 4.07,1a2.26,2.26 0 0 0 1.33,-2.91c-0.14,-0.45 -0.85,-0.26 -0.71,0.19a1.55,1.55 0 0 1 -1.41,2.13a4.2,4.2 0 0 1 -3.1,-1.23a3.13,3.13 0 0 1 -1.18,-2.36a1.82,1.82 0 0 1 1.56,-1.78l-0.36,-0.1a13.87,13.87 0 0 0 2.24,2.16a10,10 0 0 0 1.18,0.78a6,6 0 0 1 1.11,0.49c0.2,0.44 0.84,0.07 0.65,-0.36z"/>
    <path id="svg_23" d="m5.178051,7.856736a2.48,2.48 0 1 1 3.51,0a2.51,2.51 0 0 1 -3.51,0c-0.35,-0.32 -0.87,0.2 -0.52,0.52a3.21,3.21 0 1 0 0,-4.54a3.27,3.27 0 0 0 0,4.54c0.32,0.37 0.84,-0.15 0.52,-0.52z"/>
    <path id="svg_24" d="m14.788051,1.236736c-1.64,-1 -3.94,-0.52 -4.36,1.55a0.35,0.35 0 0 0 0.09,0.35a10.28,10.28 0 0 1 3.1,4a1.06,1.06 0 0 0 1.12,0.85a2.24,2.24 0 0 0 1.49,-0.34a2.78,2.78 0 0 0 0.93,-3a5.61,5.61 0 0 0 -2.37,-3.38c-0.39,-0.27 -0.76,0.37 -0.37,0.64a4.85,4.85 0 0 1 2,2.83c0.25,1.07 0,2.52 -1.39,2.54c-0.67,0 -0.67,-0.29 -0.9,-0.81a8.66,8.66 0 0 0 -0.82,-1.38a14.19,14.19 0 0 0 -2.27,-2.44l0.09,0.36c0.33,-1.61 2,-1.88 3.29,-1.1c0.4,0.22 0.77,-0.42 0.37,-0.67z"/>
    <path id="svg_25" d="m19.638051,13.026736a6.92,6.92 0 0 0 -5.62,-4.07a0.35,0.35 0 0 0 -0.32,0.18a8.07,8.07 0 0 1 -3.57,3.69a0.37,0.37 0 0 0 -0.19,0.32a7.63,7.63 0 0 0 2.19,4.59c1,1.09 2.61,2.3 4.19,2.1a2.15,2.15 0 0 0 1.65,-1.06a3.43,3.43 0 0 0 -0.06,-2.5a3.1,3.1 0 0 1 -0.2,-0.89c0,-0.36 0.13,-0.37 0.48,-0.43a3.17,3.17 0 0 0 0.91,-0.16a1.28,1.28 0 0 0 0.58,-1.68c-0.17,-0.44 -0.88,-0.25 -0.71,0.2c0.43,1.15 -0.83,0.76 -1.41,1a0.87,0.87 0 0 0 -0.59,0.86a8.65,8.65 0 0 0 0.42,2.07c0.2,1 -0.24,1.87 -1.32,1.92c-1.32,0.05 -2.67,-1.07 -3.5,-2a6.78,6.78 0 0 1 -1.89,-4l-0.18,0.32a8.76,8.76 0 0 0 3.84,-4l-0.32,0.19a6.18,6.18 0 0 1 5,3.71c0.19,0.47 0.83,0.07 0.62,-0.36z"/>
    <path id="svg_26" d="m14.978051,10.256736a3.62,3.62 0 0 0 -1.06,-0.7a0.38,0.38 0 0 0 -0.5,0.14a9.18,9.18 0 0 1 -2.69,2.79a0.38,0.38 0 0 0 -0.17,0.41c0.4,1 1.23,2.23 2.36,2.41a0.91,0.91 0 0 0 1,-0.57a4.5,4.5 0 0 0 0.22,-0.82c0.11,-0.43 0.11,-0.5 0.49,-0.35c0.67,0.27 1.6,0.61 1.73,-0.44a4,4 0 0 0 -1.39,-2.87c-0.33,-0.34 -0.85,0.18 -0.52,0.52a3.72,3.72 0 0 1 1.16,1.93c0,0.66 -0.37,0.34 -0.75,0.16a1.33,1.33 0 0 0 -0.63,-0.22c-0.66,0 -0.75,0.9 -0.86,1.39c-0.17,0.72 -0.88,0.32 -1.24,0a3.81,3.81 0 0 1 -0.87,-1.3l-0.17,0.41a9.87,9.87 0 0 0 3,-3l-0.5,0.13a3,3 0 0 1 0.91,0.58c0.31,0.24 0.83,-0.28 0.48,-0.6z"/>
    <path id="svg_27" d="m7.338051,1.206736a11.11,11.11 0 0 1 3.59,2.29a9.71,9.71 0 0 1 2.67,3.58a3,3 0 0 1 -0.54,3.17a8.17,8.17 0 0 1 -2.95,2.59a3.53,3.53 0 0 1 -3.44,-0.64a12.89,12.89 0 0 1 -3.25,-3.17a10.78,10.78 0 0 1 -2.13,-6.76c0,-0.46 0,-1 0.44,-1.27a4.15,4.15 0 0 1 1.78,-0.26a12.39,12.39 0 0 1 3.83,0.47c0.45,0.14 0.64,-0.57 0.19,-0.71a12.7,12.7 0 0 0 -3.93,-0.49c-0.94,0 -2.42,0 -2.85,1c-0.49,1.17 -0.14,2.79 0.08,4a9.88,9.88 0 0 0 1.4,3.58a14.75,14.75 0 0 0 3.44,3.78c1.05,0.81 2.5,1.66 3.88,1.42a6.83,6.83 0 0 0 3.47,-2.34a4.76,4.76 0 0 0 1.57,-3.45a8,8 0 0 0 -2.54,-4.45a12.33,12.33 0 0 0 -4.52,-3.06c-0.44,-0.15 -0.63,0.56 -0.19,0.72z"/>
   </g>
</svg>