<svg id="Слой_1" data-name="Слой 1" xmlns="http://www.w3.org/2000/svg" viewBox="0 0 100 100"><defs><style>.cls-1,.cls-2,.cls-4{fill-rule:evenodd;}.cls-2{fill:#fff;}.cls-3{fill:red;}.cls-4{stroke:#000;stroke-miterlimit:10;stroke-width:0.2px;}</style></defs><title>Монтажная область 40</title><path class="cls-1" d="M53.49,40.79c-.41.38-1.32.19-2.1.25-.59.05-1,.32-1.41.2,0-.51.69-.54,1.19-.6A5.13,5.13,0,0,1,53.49,40.79Z"/><path class="cls-1" d="M50.69,41.19c-.56,0-1.18-.35-1.61.06.22.57.91.51,1.42.7-.07.29.16.51,0,.64-.37-.11-.51-.53-.89-.64,0,.08.05.15.07.22a1.73,1.73,0,0,1,.54.71,2.55,2.55,0,0,0,1.94.35c1-.18,1.45-1.44,1.52-2.49A18,18,0,0,1,50.69,41.19Zm.25.83a1.27,1.27,0,0,1,.49.06C51.46,42.5,50.88,42.38,50.94,42Zm1.27.57a2.12,2.12,0,0,0,.2-.57c.29,0,.41-.18.59-.32C53.05,41.91,52.58,42.52,52.21,42.59Z"/><path class="cls-1" d="M49.52,48.24a.24.24,0,0,1-.32,0,5.11,5.11,0,0,1-5.46,0A7.84,7.84,0,0,0,49,47.92C49.07,47.35,49.66,47.85,49.52,48.24Z"/><path class="cls-1" d="M47.13,48c-.3.26-.77.11-1.18.23s-.85.51-1.17,0C45.57,48.24,46.38,47.43,47.13,48Z"/><path class="cls-1" d="M48.06,49.26a1.91,1.91,0,0,1-2.86,0A17.08,17.08,0,0,0,48.06,49.26Z"/><path class="cls-1" d="M44.94,58.16A2,2,0,0,1,45,60,9,9,0,0,0,44.94,58.16Z"/><path class="cls-1" d="M43.89,61.11c-1.17.17-2-.56-1.76-1.75.34-1.38,2.69-1.68,2.5.3A3,3,0,0,1,43.89,61.11Zm-1.27-1a1,1,0,0,0,1.14.5,1.61,1.61,0,0,0,.44-1.5C43.57,58.42,42.47,58.92,42.62,60.06Z"/><path class="cls-1" d="M42.13,58.46a4,4,0,0,0-.26,1.8,1.77,1.77,0,0,0,1.62,1.4c.41,0,.59-.47,1-.45a1,1,0,0,1-.92.8c-1.49.14-2.63-2.14-1.49-3.55Z"/><path class="cls-1" d="M43.1,60c-.42-1,.84-1.46,1-.7A.64.64,0,0,1,43.1,60Zm.39-.3c.15,0,.25,0,.22-.2C43.58,59.46,43.55,59.57,43.49,59.66Z"/><path class="cls-1" d="M52.35,65.82a8.13,8.13,0,0,1-.39.9C51.62,66.43,52,65.66,52.35,65.82Z"/><path class="cls-1" d="M52.57,66.17a.82.82,0,0,1-.44.7A.55.55,0,0,1,52.57,66.17Z"/><path class="cls-1" d="M53,66.17c-.08.41-.2.77-.57.85A.88.88,0,0,1,53,66.17Z"/><path class="cls-1" d="M57.62,67.57a1.64,1.64,0,0,1-.57.9A.78.78,0,0,1,57.62,67.57Z"/><path class="cls-1" d="M56.39,68.92c.18.37-.19.59-.31,1-.2.6-.06,1.43-.44,1.9C55.16,70.88,55.63,69.2,56.39,68.92Z"/><path class="cls-1" d="M41,71c.09.15-.15.28-.27.4a6.65,6.65,0,0,0-1,1.45A1.83,1.83,0,0,1,41,71Z"/><path class="cls-1" d="M67.6,80.27v-.06c0-.45.06-.92.06-1.38,0-1.35,0-2.74,0-4,0-.24,0-.47,0-.71v0c0-.3,0-.59,0-.88C67.48,68.54,65.86,64.89,65,61a22.55,22.55,0,0,0-.84-2.8c-.32-.94-.57-1.94-.92-2.75s-1.07-1.16-1.93-1.71a14.36,14.36,0,0,0-1.49-1c-.57-.27-1.25-.42-1.88-.65s-1.24-.68-1.76-.85S55.32,51.11,55,51a7.69,7.69,0,0,1-1.22-.7c-.37-.2-.93-.46-1-.75s.16-.46.44-.75a20.87,20.87,0,0,0,1.75-2.4,3.17,3.17,0,0,0,2.59.45,3.9,3.9,0,0,0,2.59,0c2.14-.89,3.16-5.2,1.79-7.81a6.13,6.13,0,0,0,.27-1.45c0-.34-.18-.38-.27-.6a22.64,22.64,0,0,0,.14-6,21.35,21.35,0,0,0-.88-2.6,14,14,0,0,0-3.69-5.5c-.17,0,0-.43-.17-.5a16.61,16.61,0,0,0-3.77-2.81c-.52-.23-.94-.58-1.41-.8a8.48,8.48,0,0,0-1.22-.25,8.63,8.63,0,0,0-1.06-.3c-.6-.06-1.23,0-1.88,0a11,11,0,0,0-5.18.5c-1,.38-1.9.81-2.85,1.15a10.62,10.62,0,0,0-2.63,1.45A15.27,15.27,0,0,0,36,22.68a12.32,12.32,0,0,0-1.4,1.4,7.58,7.58,0,0,0-.4.9,10.47,10.47,0,0,1-.79.95,9.84,9.84,0,0,0-1.8,3.55,38.41,38.41,0,0,0-1,4.46c-.07.55,0,1.15-.14,1.75,0,.25-.18.31-.21.6a5.53,5.53,0,0,0,.26,1.9c-.44.87-1.18,1.28-1.62,2.25a5.24,5.24,0,0,0-.31,2.5,8.9,8.9,0,0,0,1.75,4.41,4.36,4.36,0,0,0,3.2.9c.34-.07.63-.67.88-.45.52.45-.54,1.61-.83,1.9a19.58,19.58,0,0,1-5.35,3.35c-.46-2.87-.55-7.21-3.16-7.6a3.34,3.34,0,0,0-4,3A7.65,7.65,0,0,0,22,52.9a4.49,4.49,0,0,0,4.91,2.21,9.15,9.15,0,0,0,2.72,8.45c-.47,3.39-.74,7.3-1.08,11a36.7,36.7,0,0,0,.26,6.89c.09.59.19,1.17.32,1.75a3.24,3.24,0,0,1,.21-.35c0-.75,0-1.5,0-2.29A115.24,115.24,0,0,1,30.56,64a6.21,6.21,0,0,0,1.79.15C32.54,66,32.7,68,34,68.42c1.51.51,2.49-.73,2.23-2.25a4.67,4.67,0,0,0-2.72-3.41c0-1.77.23-3.54,1.1-4.15.1,1.37.39,2.86,1.54,2.9.84,0,1.5-.9,1.62-1.8A3,3,0,0,0,36,56.61,3.48,3.48,0,0,1,38.23,54a5.25,5.25,0,0,1,2.24.26c.05.5.23.86.26,1.4a3.83,3.83,0,0,0-1.49.6c-.26,4.54.47,8.8.92,12.86-.22.3-.53.36-.79.6-1.24,1.13-2.07,2.85-3.11,4A14,14,0,0,0,36,70.47c-.49.36-.36,1.11-.35,1.8a14.13,14.13,0,0,1,0,2.15A6.29,6.29,0,0,1,35.12,76a15.46,15.46,0,0,0-.57,1.66c-.34,1.11-.65,2.23-.92,3.36a35.41,35.41,0,0,0-.43,5.44,80.63,80.63,0,0,1,2.49-10.1,10.13,10.13,0,0,1,.57-1.76c.38-.52.85-1,1.27-1.6,1-1.4,1.88-2.87,3.42-3.55.13.4.2.88.61,1,0-.37-.35-.69-.39-1.15.5-.23.38.58.66.75.28-.24-.17-.68,0-.9.36.09.21.77.4,1.05.22-.2.11-.76,0-1a14.46,14.46,0,0,1,2.28,0c-.05.25,0,.63.22.7.1-.12,0-.45,0-.65a5.21,5.21,0,0,0,.57.1c0,.71.46.78,1,.8-.13.33-.61.18-.88.2a8.59,8.59,0,0,0-2.1.45c-1.29.43-2.49.59-3,1.75,0,.51-.06.83.22,1-.14.17-.41.18-.49.4.16.45.7.22,1.06.15a1.84,1.84,0,0,1,1.22,0c-.22.32.06,1.2-.17,1.5-.37,0,0-.94-.31-1-.34,0-.18.66-.22,1-.38.19-1.43.11-1.31.7s1.23,0,1.79,0a7.85,7.85,0,0,1,2.15.66c-.06.39-.07.85-.35,1,.07-.27.16-.67,0-.85a7.41,7.41,0,0,0-.22.9c-1.16-.09-2.71-.38-3.38.4.1.4.46.12.7.1.74-.08,1.73,0,2.42-.05a.6.6,0,0,1,0,1c-.1-.11,0-.45-.17-.45s-.06.5-.18.65c-.89,0-2.34.48-3.16.1a2.86,2.86,0,0,1-.7-.85c-.7-1-.79-2.52-1.18-3.76-.07,1.57.18,3.83,1,4.76-.1.18-.19.38-.44.4a4.82,4.82,0,0,0-.53,1.9,32.07,32.07,0,0,1-.66,4.51c.26-.49.5-1,.71-1.49.18-.87.31-1.76.54-2.61a2.82,2.82,0,0,1,.9-2.11c1.58-.13,4.07.37,4.48-1.25,1.9.12,4.55.75,5.79-.25a4.6,4.6,0,0,1,.44-.25c.71-.5.81-1.25,1-2.3.25-1.75.39-3.41.62-5.06,1.93,1.48,3.85,3.4,7.14,3.5a5.27,5.27,0,0,1,.35,1.56,20.12,20.12,0,0,0,.88,2.3c.08.2.14.41.21.62q1,2.25,1.73,4.6l.12,0c-.22-.93-.43-1.85-.61-2.77a13.33,13.33,0,0,0-1.14-3.4,27.78,27.78,0,0,1-1.19-3.36c-.89-.67-2-.57-3-1A11.44,11.44,0,0,1,53.8,72a18.56,18.56,0,0,1-2-1.9,7.28,7.28,0,0,1-1.67-2.3c1.15.94,1.85,2.39,3.51,2.75-.64-.64-1.34-1.21-2-1.85a1.7,1.7,0,0,0,.08-1c-.28,0-.33.31-.35.65a8.7,8.7,0,0,1-1.14-1.2,2,2,0,0,1-.66-1.65c.76.35,1.16,1.11,1.8,1.6a1.07,1.07,0,0,0-.17.95c.24-.1.21-.49.35-.7.94.67,1.57,1.7,3,1.85a14.26,14.26,0,0,0-2.19-1.85C51.64,66.7,51,66,50.25,65.32c.14-.28.44-.37.48-.76a27.21,27.21,0,0,0,3.51,2.16,4.15,4.15,0,0,0,1.75.6c-.46-.89-1.53-1.08-2.41-1.55s-1.69-1.14-2.5-1.56c.06-.31.29-.44.4-.7a7.67,7.67,0,0,1,1.79.7c.14.13-.41.28-.3.7.29.11.34-.46.57-.6a9.61,9.61,0,0,0,3,1.21,15.17,15.17,0,0,0,3.25.9,1.57,1.57,0,0,0-1.4-1.26c-.51-.86-.64-2.14-1.41-2.7-1-.22-2.3.29-2.72-.55a1.52,1.52,0,0,0,.62.05c.18,0,0,.33.17.3.34-.63,1.29-.56,1.84-.95a1,1,0,0,0,0,.6c.21,0,.24-.3.27-.55.93.76,1.84,1.54,2.8,2.25.81,2,1.5,3.92,2.37,5.81.44.94,1,1.7,1.49,2.55a14,14,0,0,1,1.19,3c.91,3,1.77,6,2.45,9.27l.32.3,0-1C67.73,82.4,67.64,81.35,67.6,80.27Zm-26.26-7c0-.41-.33-1.15,0-1.3a4.47,4.47,0,0,1,.26,1.3ZM53.23,51.15c.38.07.49.44.79.6,0,.21-.15.29-.18.5-.3-.19-.53-.46-.83-.65C53.08,51.45,53.21,51.36,53.23,51.15Zm-.44.8c.3.17.48.49.79.65a3,3,0,0,1-.35.55c-.24-.24-.38-.59-.61-.85C52.64,52.14,52.78,52.13,52.79,52Zm-6.45,2.11c-2-.13-3.19-1.57-4.47-2.71a6.92,6.92,0,0,1-.61-.6c-.17-.18-.44-.42-.44-.7.28,0,.48.28.7.45s.5.38.75.55c1.1.79,2.22,2,4.12,1.9A5.3,5.3,0,0,0,48,52.6a6.25,6.25,0,0,0,1-.75,35.18,35.18,0,0,0,3.16-2.05l.13-.1a5.59,5.59,0,0,1,.31.65,5.51,5.51,0,0,1-2.81,2.85A6.53,6.53,0,0,1,46.34,54.06Zm1.5,1.15c-.25,0-.39-.1-.4-.35h.31C47.76,55,47.83,55.06,47.84,55.21ZM47.18,55c-.09.21-.45-.07-.66-.05C46.63,54.85,47.14,54.77,47.18,55Zm-1.58-.1c-.07.17-.34.11-.53.15v-.35C45.23,54.75,45.51,54.69,45.6,54.86Zm-.92.2h-.26a5.63,5.63,0,0,1,.08-.61c.06.06.16,0,.22.11A1.56,1.56,0,0,1,44.68,55.06Zm-.48-.76c-.06.27-.1.56-.18.81h-.26c0-.33.14-.58.17-.9C44.07,54.18,44.1,54.28,44.2,54.3ZM41,51.55c-.29.2-.7.7-1,.55C40.35,51.93,40.68,51.52,41,51.55Zm-1.23.25c-.43-.47.46-.59.66-.95a.67.67,0,0,1,.3.45C40.39,51.41,40.18,51.82,39.81,51.8Zm1.58.1c-.32.18-.79,1.11-1,.55C40.7,52.31,41,51.88,41.39,51.9Zm.44.4a7.07,7.07,0,0,0-.75.7c-.13,0-.13-.11-.26-.1C41.11,52.69,41.47,52,41.83,52.3Zm-.44,1.55c.09.68.79,2.13,0,2.51-.15-.71-.29-1.44-.44-2.15C41,54,41.3,54,41.39,53.85Zm0-.65c0-.24.44-.39.53-.7.19.07.25.29.44.35-.11.31-.35.47-.48.75C41.88,53.36,41.6,53.13,41.43,53.2Zm1.19-.1c.13,0,.11.14.22.15a6.42,6.42,0,0,1-.79,1.1C41.91,53.72,42.47,53.56,42.62,53.1Zm.35.35c.13,0,.17.11.26.15a11.6,11.6,0,0,0-.66,1.56,2.38,2.38,0,0,1-.39-.2A9.78,9.78,0,0,1,43,53.45Zm.48.35.26.2c-.1.38-.24.73-.35,1.11-.21,0-.3,0-.48,0C43.06,54.69,43.25,54.25,43.45,53.8Zm4.82,1c0,.24.2.31.22.55-.06-.08-.22,0-.35,0a1.84,1.84,0,0,1-.13-.45C48.06,54.8,48.17,54.8,48.27,54.81Zm.18-.1c.16,0,.19-.09.35-.05a3.44,3.44,0,0,0,.44.75C48.8,55.58,48.54,55.1,48.45,54.71Zm.57-.1c0-.12.13-.06.13-.16a9,9,0,0,1,.75,1.11C49.32,55.56,49.33,54.9,49,54.61Zm.44-.26c.12,0,.11-.07.22-.05a9.25,9.25,0,0,1,.74,1.26C49.92,55.36,49.7,54.84,49.46,54.35Zm.52-.19a.37.37,0,0,0,.27-.1,4.44,4.44,0,0,1,.66,1.3C50.51,55.24,50.24,54.59,50,54.16Zm.53-.16c.05-.17.3-.12.35-.3.3.32.45.79.75,1.11,0,.13-.18.16-.27.25C51,54.79,50.82,54.32,50.51,54Zm.62-.4c.45-.63.71.49,1,.8-.09,0-.14.11-.21.16C51.57,54.34,51.45,53.85,51.13,53.6Zm.61-.45c0-.13.2-.13.26-.25.21.35.46.65.66,1a.9.9,0,0,0-.18.16C52.13,53.88,52,53.43,51.74,53.15Zm.61-.55c.24.23.33.63.57.85C52.86,53.45,52.34,52.86,52.35,52.6Zm-2.58-2c-.51.31-1.05.6-1.58.95a3.48,3.48,0,0,1-3.38.35,12.86,12.86,0,0,1-2.37-1.65c-2.25-1.69-4.7-3.57-5.61-6.65,3.8.39,6.48-.92,8.94-2.21.55,1.2.39,3.11.44,4.76a2.22,2.22,0,0,1-1,0c-.11-.2,0-.67-.13-.8-.41.15-.41,1.28,0,1.4s.49-.23.87-.2.49.39.75.4.28-.28.57-.35.6.12.79,0,.51-.58.22-.85c-.32-.06-.23.33-.4.45h-1a.72.72,0,0,1-.14.26c-.48-.19-.33-1-.3-1.65.05-1.33,0-2.86-.49-3.61a23.9,23.9,0,0,0,6.32-5.8c.69,1.22,1,2.88,1.88,3.9,0,.08-.2-.06-.26-.1-.69,0-1.47,0-2.19,0-1.33.09-2.74.17-3.16,1.25.29.21.62-.14.92-.2a29.36,29.36,0,0,1,3-.2,8.16,8.16,0,0,1,2.2-.15,9.21,9.21,0,0,0,1.4,1.25C55.07,45.61,53,48.62,49.77,50.6Zm-13.6-5.05c-.46-.11-1.4.33-1.49-.4.37-.11.79-.17.92-.55-.32-.26-.84.06-1.14.15a21.66,21.66,0,0,0-1.1-2.21,24.63,24.63,0,0,1,2.68,1,9.91,9.91,0,0,0,1.45,3.05c-.65.54-1.93.77-2.33-.35C35.65,46.22,36.24,46.05,36.17,45.55ZM53.1,26.68c0-.34.33,0,.48,0,0,2.85-.23,5.25-1.18,7.06a13.94,13.94,0,0,1-2.46,2.85,11.21,11.21,0,0,1-3.16,2.15c-.77.37-1.58.79-2.41,1.15s-1.75.57-2.63.9a9.82,9.82,0,0,1-6.49.35,9.13,9.13,0,0,1,1.84-.1A18.71,18.71,0,0,0,42,40a20.61,20.61,0,0,0,7.81-4.3,11,11,0,0,0,2.76-3.45C53.19,30.84,53.16,28.54,53.1,26.68ZM60.33,33a11.26,11.26,0,0,1,.84,2.65,22.39,22.39,0,0,0-2.5-4.61c-.89-1.47-1.75-2.93-2.59-4.5,0,0,0,0,.05,0s.25,0,.39-.05A29.61,29.61,0,0,1,60.33,33Zm-3-6.06a2.61,2.61,0,0,1,.53.7A6.59,6.59,0,0,1,57.35,27Zm1,1.4A6.15,6.15,0,0,0,60.16,30,25,25,0,0,1,61,33.74,25.9,25.9,0,0,0,58.32,28.38Zm-3.6.35c-.25-.34-.69-.68-.61-1.25.1-.1.3.2.44.35a27.81,27.81,0,0,1,5.13,9.41s0,0,0,0c-.39.07-.53-.85-.74-1.45A27,27,0,0,0,54.72,28.73Zm3.64,6.61c-1.3-1.76-2.55-4-3.9-5.91-.19-.27-.5-.54-.35-.95A34.62,34.62,0,0,1,58.36,35.34Zm-.52-3.46c1,1.44,1.92,3.42,3.24,4.66a2.56,2.56,0,0,1-.35,1.65c-.47-.29-.6-1-.79-1.5A21,21,0,0,0,57.84,31.88Zm-1.67-4.3c1.27,2.62,3,5,4.38,7.56a87.64,87.64,0,0,1-5.08-8.36C55.86,26.49,56,27.26,56.17,27.58Zm.79,2.7c-.56-.58-1.29-1.7-2-2.5-.29-.34-.67-.51-.92-.9.14-.17.71,0,1.06-.05C55.68,28,56.34,29.14,57,30.28ZM57,34a18.86,18.86,0,0,1-2.28-3.46c-.24-.42-.63-.76-.66-1.3A51.38,51.38,0,0,0,57,34Zm-.53,0c0,.05,0,0,0,0a15.35,15.35,0,0,1-1.89-2.51,1.88,1.88,0,0,1-.48-1.3A23.25,23.25,0,0,0,56.43,34Zm1.67,2.4c-.28.16-.77.09-.84.5-1.58-1.27-2.43-3.36-3.5-5.21,0-.22.1-.4.13-.65A17.26,17.26,0,0,0,58.1,36.44Zm-1.49.6c.16.16.41.16.48.45-.07,0-.06.16-.09.25a7.13,7.13,0,0,1-1.93-2.2c-.24-.37-.57-.77-.88-1.25s-.84-1.34-.57-2c0,0,.05,0,.05.05A16.3,16.3,0,0,0,56.61,37Zm-4-2.1c0-.17.12-.22.17-.35a15.29,15.29,0,0,0,3.73,4.25A9.07,9.07,0,0,1,52.62,34.94Zm3.81,4.65a9.4,9.4,0,0,0-.17.95,7.28,7.28,0,0,1-2.46-2.8A11.31,11.31,0,0,0,56.43,39.59Zm-3.37-5.45c.06-.3.2-.5.26-.8A19.78,19.78,0,0,0,56.48,38,11.64,11.64,0,0,1,53.06,34.14Zm-11.58,1.8A27.56,27.56,0,0,0,46,34.49,16.56,16.56,0,0,0,49.55,32a29.83,29.83,0,0,0,2.72-3.36,7,7,0,0,1-1.8,3.15,11,11,0,0,1-3.77,2.66c-1.46.57-3,1.09-4.7,1.6a17.48,17.48,0,0,1-5.17,1,10,10,0,0,1-2.85-.2,5.21,5.21,0,0,0-2.55-.45c0-.33-.07-.51,0-.85a16.44,16.44,0,0,0,4.21.45,14,14,0,0,0,2.76,0,19.68,19.68,0,0,0,8.34-3.35,15.87,15.87,0,0,0,2.89-3.16A21,21,0,0,0,52.09,26c.21.08.34.24.57.3-1,3.63-3.42,5.73-6.18,7.36a20.56,20.56,0,0,1-4.83,1.7,31.44,31.44,0,0,1-4,.85,2.38,2.38,0,0,0-1.27.3A12.66,12.66,0,0,0,41.48,35.94ZM49.77,33c-1.56,2-4.26,3-7.2,4.1a19.55,19.55,0,0,1-9.47,1.3,1.82,1.82,0,0,1-1.67-1.5,7.38,7.38,0,0,1,2.64.6,10.67,10.67,0,0,0,2.45.2,17.4,17.4,0,0,0,5.53-1.15C44.81,35.59,48.09,34.83,49.77,33Zm-18.34,5.1c.12-.19.2.1.27.15a7.58,7.58,0,0,0,4.95.9,28.34,28.34,0,0,0,8.25-2.4c.51-.21.93-.58,1.4-.75.27-.1.56-.09.83-.2a8.36,8.36,0,0,0,1.8-1.25,10.11,10.11,0,0,0,3.69-5.71,7.85,7.85,0,0,1-1.28,4.51,13.41,13.41,0,0,1-3.11,2.85,18.2,18.2,0,0,1-3.81,2.05,34.28,34.28,0,0,1-4.57,1.2c-1.2.27-2.41.31-3.77.5-.39.06-.79.17-1.18.2A6,6,0,0,1,32.53,40c-.24-.11-.48-.57-.66-.85S31.4,38.61,31.43,38.09Zm1.28,2.65c.2.08.48.06.7.15s.36.33.52.4a12.38,12.38,0,0,0,1.85.5c2.9.72,5.65-.28,8-1.15.75-.28,1.45-.62,2.15-1a12.52,12.52,0,0,0,3.72-2.15c-.76,1.2-2.27,1.85-3.72,2.85a11.48,11.48,0,0,1-1.8,1,11.57,11.57,0,0,1-2,.8c-.49.11-1,.06-1.53.15a12.69,12.69,0,0,1-2.15.35c-2,.06-3.79.05-5.26-.85a2.36,2.36,0,0,1-1-1.35C32.29,40.42,32.44,40.64,32.71,40.74Zm23.37,5.11c-.28,0-.66.06-.88-.05a26.4,26.4,0,0,0,1.1-3.16c.36-1.63.43-3.52,1.18-4.65-.19-.24,0-.54,0-.9h.57a9.48,9.48,0,0,1,1.28,2.2,1.77,1.77,0,0,0-.27.55c-.4-.5-.44-1.42-1.18-1.55,0,.81.67,1.37.92,2.1-.45-.07-.62-.46-1-.6a.84.84,0,0,0,.79,1.15,2.26,2.26,0,0,1-.22.65c-.37,0-.72,0-.88.25.08.3.42.29.66.4-.21.7-.44,1.37-.7,2C56.87,44.65,56.61,45.4,56.08,45.85Zm1,.1a27,27,0,0,0,2.85-7.11c0-.06,0-.09,0-.1s.08-.05.08,0a8.83,8.83,0,0,1-.39,3C59.11,43.66,58.47,45.18,57.09,46Zm3.73-.6a3.87,3.87,0,0,1-1,1,2.5,2.5,0,0,1-1.62-.1,2.88,2.88,0,0,0,2.59-1.55,5.89,5.89,0,0,0,.74-2.76c-.8,1.47-1,3.62-2.94,3.81,1.17-1.7,1.59-4.23,2.11-6.66,0,0,0,0,0,0,0,.41.34.39.53.55A6.33,6.33,0,0,1,60.82,45.35Zm.44-6.26c-.22-.4.12-.7.17-1.1.08,0,.11.09.13,0A1.56,1.56,0,0,1,61.26,39.09Zm.26-5.1c0-.22,0,.32,0,0A15.24,15.24,0,0,0,61,30.58,5.8,5.8,0,0,1,61.52,34Zm-1.58-5.26c-1-.61-1.78-2.88-3.2-3-.16,0-.32.1-.48.1s-.36-.1-.53-.1c-.51,0-1,.12-1.62.05a7.4,7.4,0,0,1-2-.85c-.72-.34-1.47-.49-2-.8a3.57,3.57,0,0,0-1.49-.7c-.44,0-1,.2-1.53.25a10,10,0,0,1-2.85-.2c.49.8,2.23.45,3.29.45-1.35,1-3.54.28-5.09.1-1.76-.21-2.46,1.23-3.69,1.8-1.06.49-2,.72-3,1.15,1.23-.77,2.46-1.49,3.77-2.25a11.41,11.41,0,0,1,2-1.05,17.88,17.88,0,0,1,2.41-.5,22.48,22.48,0,0,1,7.89,0,10.72,10.72,0,0,1,2.46.45c.15.06.24.22.39.3.62.33,1.21.5,1.71.8a11.71,11.71,0,0,1,3.73,3.9C60.11,28.69,60.31,29,59.94,28.73Zm-26.66.75c.14-.88,1.37-1.39,2.28-1.7.68-.23,1.39-.45,2-.7a12,12,0,0,0,1.93-.85c.57-.36,1.13-1.06,1.58-1.2,1.27-.42,2.34.38,3.51.35C41.2,27.19,36.41,27.38,33.28,29.48Zm11.57-3.95c.22-.14,1,0,1.41,0C43,27.94,38.5,29,33.8,29.73,37,27.78,41.7,27.54,44.85,25.53ZM33.76,30.18a19.59,19.59,0,0,0,3.64-.7c3.58-.72,6.91-1.91,9.21-3.95a3.57,3.57,0,0,0,1.14-.4c-1.94,2.59-5.18,3.85-8.69,4.95a25,25,0,0,1-6.49,1.05c.06-.34.25-.9.57-1A2.56,2.56,0,0,1,33.76,30.18Zm-.35,1.3c.61,0,1.44,0,2.19-.1a16.8,16.8,0,0,0,3.77-.85c3.59-1.14,6.66-2.48,9-5.25.26-.32.46-.86.79-1a.37.37,0,0,1,.3.15c0,.24-.18.36-.3.5-.41.49-.89,1-1.36,1.45-.61.64-1,1.51-1.62,2.15a10,10,0,0,1-4.21,2.2,24.27,24.27,0,0,1-6.36.9,24.88,24.88,0,0,1-3.34.05C32.41,31.24,32.94,31.52,33.41,31.48ZM59,26.23a10.94,10.94,0,0,0-5.92-3.4c-3.78-.83-8.78-.91-12,.55a27.14,27.14,0,0,0-2.76,1.5,31.57,31.57,0,0,0-4,2.7,16,16,0,0,1,2.37-2A19.2,19.2,0,0,1,46.08,22a21.64,21.64,0,0,1,7.59.7A9.27,9.27,0,0,1,59,26.23Zm-3.86-4.75a1.46,1.46,0,0,1-1.06-.66C54.37,20.89,54.76,21.3,55.12,21.48Zm-2.28-1.31c.22,0,.32.16.52.2a.93.93,0,0,0,.18.45c-.16.1-.44-.1-.62-.15A1.37,1.37,0,0,1,52.84,20.17Zm-.57-.4c.13,0,.08.14.21.1,0,.26-.07.35,0,.6C52.05,20.53,52.31,20,52.27,19.77Zm-.66-.35c.14,0,.19.12.35.1a3.83,3.83,0,0,0-.09.8c-.11-.07-.29-.07-.39-.15A3.45,3.45,0,0,1,51.61,19.42Zm-1.36-.35a3.07,3.07,0,0,0,1,.25c0,.31-.13.45-.13.75-.41-.12-.87-.2-1.31-.3C49.93,19.55,50.09,19.31,50.25,19.07ZM49.81,19a1.23,1.23,0,0,1-1.45.65C48.7,19.3,49.08,18.79,49.81,19ZM48.41,19c-.33.29-.6.66-1.19.65C47.55,19.33,47.69,18.83,48.41,19Zm-1.23-.1a2.19,2.19,0,0,1-1.41.85C46.27,19.49,46.6,18.83,47.18,18.87Zm-1,0a4.63,4.63,0,0,1-2.42,1.2C44.51,19.66,44.75,18.62,46.13,18.87Zm-1.89.1a5.39,5.39,0,0,1-2.76,1.5A5.67,5.67,0,0,1,44.24,19Zm-3.6,1.35c0,.13-.24.22-.39.3a5,5,0,0,0-1.49,1.16,14.31,14.31,0,0,0-2.41,1.4A8.62,8.62,0,0,1,40.64,20.32ZM34,26.38a12.47,12.47,0,0,1,.87-1.2,8,8,0,0,1,1.1-.8,19.42,19.42,0,0,1,3.25-1.95,18.76,18.76,0,0,1,2.23-1.05,18.74,18.74,0,0,1,2.72-.51c.89-.14,1.8-.38,2.68-.5a11.34,11.34,0,0,1,3.15.3c1,.19,2,.35,2.9.6A12.5,12.5,0,0,1,55,22.38a7,7,0,0,1,2.89,1.95c.06.06,0,0,0,0a17.31,17.31,0,0,0-3.47-2,20,20,0,0,0-5.61-.85,18.34,18.34,0,0,0-10.39,2.4,21.92,21.92,0,0,0-3.91,2.75,5.23,5.23,0,0,0-.74.9c-.24.34-.53.59-.75.9a13.94,13.94,0,0,0-1,2.3A9.33,9.33,0,0,1,34,26.38ZM31.7,33.64a21.25,21.25,0,0,0,10.7-1.1,12.79,12.79,0,0,0,5.48-4.11,7.6,7.6,0,0,0,1.36-2.1s0,0,0-.1c-.93.81-1.51,1.95-2.37,2.85-3.2,3.38-8.75,5-15.17,4.26a9.78,9.78,0,0,0,.22-1c1.92-.12,3.8-.24,5.7-.41.62-.05,1.23-.2,1.8-.2.25,0,.5.11.74.1a5.45,5.45,0,0,0,1.63-.5,12.62,12.62,0,0,0,4.34-2.1,26.19,26.19,0,0,0,1.67-2.3,9.83,9.83,0,0,0,1.88-2.25,11.12,11.12,0,0,0,1.27.7,12.57,12.57,0,0,1-3.46,4.5c-.46.42-.91.88-1.36,1.25a19.35,19.35,0,0,1-3,1.76c-3.1,1.65-7.21,2.19-11.71,1.7A4.28,4.28,0,0,1,31.7,33.64Zm-.35,1.45c.1-.36.45-.07.61-.05a21,21,0,0,0,11.58-1.8A18.18,18.18,0,0,0,50.64,27c.21-.33.35-1,.62-1.3s.18-.06.48.1A20.1,20.1,0,0,1,46,32.58c-.15.06-.11.35-.26.41a18.07,18.07,0,0,1-5.44,2.2c-.66.16-1.37.41-2,.5a16.74,16.74,0,0,1-2.63,0,20.57,20.57,0,0,1-4-.35C31.56,35.26,31.31,35.29,31.35,35.09ZM31,36.49c.11,0,0,.77,0,.35C31,36.66,31,36.65,31,36.49Zm-.22,1.75A3.22,3.22,0,0,1,30.56,37,7.45,7.45,0,0,1,30.82,38.24Zm.09,8.61a5.53,5.53,0,0,1-1-1.75,6.55,6.55,0,0,1-.62-3.51,5.58,5.58,0,0,1,.79-1.9c1,2.14,2,4.2,2.85,6.46-.74-.22-1.44-.14-1.93-.55-.87-.76-1-2.22-1.09-3.86-.32.24-.17.8-.13,1.15.25,2.25,1,3.52,2.85,4,.35.09.93-.1,1,.4C32.63,47.22,31.6,47.34,30.91,46.85ZM33.14,45c-.54-1.15-1-2.31-1.58-3.46a7.11,7.11,0,0,1-.92-2.65c.09-.18.2,0,.4,0,.25,1.48.7,2.73,1.71,3.35.55,1.66,1.3,3.09,2,4.61C34,46.66,33.53,45.81,33.14,45Zm-4.38,8.3a17.33,17.33,0,0,0,4.91-3.15,3.35,3.35,0,0,0,1.23-2,.07.07,0,0,1,.09.05,3.31,3.31,0,0,1-1.14,2.3,17,17,0,0,1-4.13,2.8c-.49.25-1,.7-1.53.55C28.08,53.46,28.59,53.38,28.76,53.3Zm-.57,1.26a20,20,0,0,0,6-3.71A3.31,3.31,0,0,0,35.29,48c.53-.08,1,.27,1.54.15s.82-.56,1.18-.7c.7.78,1.52,1.43,2.28,2.15a6.72,6.72,0,0,0-.13.7c-1.5.74-3,1.6-4.69,2.35-1.41.65-3.34,1.55-4.08,3.06a13.43,13.43,0,0,0-.83,2.85c-.23,1-.43,2-.62,3.1-.23,0-.37-.4-.57-.7a6.68,6.68,0,0,1-1.27-3C28,56.79,28.31,55.71,28.19,54.56Zm2.54,8.9a3.83,3.83,0,0,1-1.53-1.1,10,10,0,0,1-1-1.5,8,8,0,0,1-1.05-3.6c-.05-1.88.21-4.07.08-6.11s-.63-4.28-1.93-4.8a2.79,2.79,0,0,0-2.37.35c-1.14.75-1.45,2.29-1.05,4.15a5.12,5.12,0,0,0,1.67,2.7,3.67,3.67,0,0,0,1.75.66,13.87,13.87,0,0,1,1.58,0c0,.47-.49.38-.7.4a4.58,4.58,0,0,1-2.06-.26,5.36,5.36,0,0,1-2.5-3.25c-.72-2.74.27-5,2.59-5.2,3.36-.3,3.56,4.59,3.5,8.31,0,1-.14,2-.13,2.95a7.21,7.21,0,0,0,1.19,3.7,4.48,4.48,0,0,0,2.45,2.2c.31.1.65,0,1.14.3C32.06,63.7,31.18,63.6,30.73,63.46ZM26.87,53.6a3.26,3.26,0,0,1-3.81-1.35c-.85-1.18-1.34-4-.27-5a2.67,2.67,0,0,1,2.33-.45c.84.3,1.15,1.72,1.36,2.85A19.1,19.1,0,0,1,26.87,53.6Zm7.33,4.56a3.4,3.4,0,0,0-.49.55c-1,1.76-1,5.83-.26,7.66.21.48.7,1.21,1.36,1,.95-.24.22-2-.09-2.46s-1.21-.72-1.14-1.45a2.69,2.69,0,0,1,1.62,1.35c.42.72,1,2.84-.26,3.11-.74.16-1.31-.46-1.62-1-1.11-1.92-.94-6.77.22-8.56a2.93,2.93,0,0,1,.92-.85h0C34.61,57.86,34.31,58,34.2,58.16Zm-.57,6.5a2.78,2.78,0,0,1,1.27,2.21C34.13,67.66,33.6,65.67,33.63,64.66Zm-1.36-2.1a3.46,3.46,0,0,1-1.41-.15c.4-2,.73-4,1.1-6,2-2.07,4.92-3.06,7.32-4.66a1.51,1.51,0,0,1,.53.8c-3.15-.17-4.56,1.64-5.17,4.36C32.88,57.66,32.34,59.84,32.27,62.56Zm7.85-9a5.55,5.55,0,0,0-2.55.15c-1.66.57-2.53,3.16-2.28,5.41.06.51.49,1.38.88,1.4s.65-.49.7-.9A3.29,3.29,0,0,0,36,57.26c1.26.05,1.94,3,.83,3.6s-1.73-.84-1.84-1.75a7.59,7.59,0,0,1,.4-3.25A5.87,5.87,0,0,1,36.7,53.7a3.75,3.75,0,0,1,2.06-.6,2.21,2.21,0,0,1,2.1.56C40.6,53.85,40.36,53.61,40.12,53.55Zm-4.3,4.61a1.28,1.28,0,0,1,.35,1.75A3.09,3.09,0,0,1,35.82,58.16Zm5-1.55c.19,0,.13.35.31.4.68.06,1.11-.17,1.23-.75,1.06-.19,2.17-.16,3.24-.25,1.38-.12,2.52.43,3.82.6a9.92,9.92,0,0,1,3.11.45,5.09,5.09,0,0,1-3,.3,47.42,47.42,0,0,0-7.67-.25c-.8.07-1.73.52-2-.35A4.82,4.82,0,0,1,40.86,56.61Zm0,12.21c-.61-3.69-.84-7.78-1.36-11.56.18.06.47.42.7.6.07,3.22.4,6.7.74,9.91C41,68.09,41.18,68.57,40.91,68.82Zm4.69.75c0-.12-.08-.11,0-.25.2.11.58,0,.7.25Zm-3.29,3.75a11.19,11.19,0,0,1-.13-1.7c.11,0,.24,0,.31-.1.17.58.17,1.37.3,2A2.55,2.55,0,0,1,42.31,73.32Zm.22,2.2a3.27,3.27,0,0,0,0-1.4c1.06.63,2.28,1.08,3.38,1.66-.1.1,0,.44-.09.55A27.94,27.94,0,0,1,42.53,75.52Zm8.95-4.85c-.14,1.38-.37,3.06-.57,4.6-.16,1.23-.26,2.07-.93,2.56.38-2.51,1-4.71,1.28-7.36C51.36,70.5,51.37,70.64,51.48,70.67ZM50,65.12a.76.76,0,0,1-.35-.61.55.55,0,0,1,.66-.05C50.31,64.77,50,64.79,50,65.12ZM50,64c0,.1-.2,0-.21.15C49.6,64,49.91,63.88,50,64Zm.88,0c-.26-.05,0-.55.22-.55C51,63.63,50.86,63.75,50.86,64Zm.48-2.4c0,.3,0,.69-.21.85-.18-.89.26-2.2.08-3.25a16.06,16.06,0,0,0-.52,3.3c0,.16.15.12.22.2a1.69,1.69,0,0,0-.57,1c-.32-.06-.33-.25-.62-.2s-.59.92-.35,1.35c-.76.77.09,1.83.57,2.36a1.57,1.57,0,0,0,.18,1.6,45.14,45.14,0,0,0-.53,4.85,6.28,6.28,0,0,0,.61-2.25c-.2,2.14-.62,4.46-1,6.61-1.08.71-3.36.35-4.78.25-.08-.1.17-.24.26-.45a6.09,6.09,0,0,0,.18-.8c.58,0,1.61.45,2.23.25s.74-1.22.14-1.76a32.86,32.86,0,0,0-4.21-1.9c-.14-.68-.22-1.41-.31-2.15.58-.06,1.14-.43,1.93-.55s1.4.07,1.84-.25a1.28,1.28,0,0,0,.13-1.55c-.33-.46-1.57-.34-2.41-.5a5.05,5.05,0,0,0-1.84-.2,32.12,32.12,0,0,0-.53-3.76c-.1,1.25.3,2.63.26,3.81-.07,0-.25-.06-.26,0-.32-2.15-.65-4.81-.88-7.26-.12-1.33-.62-2.62.18-3.35,3.37-.41,6.9.2,10.39.25C52,58.94,51.51,60.56,51.34,61.61ZM46.39,76a3.58,3.58,0,0,0,.74.25c-.08.11-.23.14-.3.25s-.19-.21-.4-.19C46.46,76.17,46.39,76.14,46.39,76ZM52.27,62c.22-1.27.49-2.72.61-4.05a4.18,4.18,0,0,0,.44-.4.07.07,0,0,1,.09.05c-.37,1.79-.63,3.68-1,5.45C51.89,63,52.2,62.31,52.27,62ZM66.91,78.33c-.43-1.23-.91-2.47-1.4-3.76s-.84-2.53-1.4-3.7c-.32-.67-.79-1.23-1.1-1.9s-.63-1.35-.92-2a16.78,16.78,0,0,0-1.93-4,18.52,18.52,0,0,0-2.81-2.2c-.17-.59,0-1.57-.39-1.9a2,2,0,0,0,0,1.7,11.45,11.45,0,0,1-3.2.85c.09.19,0,.68.08,1,.28,1,1.9,1.09,3,1a10.71,10.71,0,0,1,.48,1.45,14.34,14.34,0,0,1-4.43-1.45c.45-1.66.57-4.3,1-6,0-.19.19-.41.17-.6,0-.58-.78-.63-1.22-.75a5.78,5.78,0,0,0-1.63-.3c1.27-1,2.62-2,3.25-3.76,0,0,0,0,0,.05A7.92,7.92,0,0,1,57,52.9a18.9,18.9,0,0,0,2.1.76A24.36,24.36,0,0,1,62.57,56a97.78,97.78,0,0,1,2.9,10.36c.46,1.77.77,3.61,1.14,5.55A34.21,34.21,0,0,1,66.91,78.33Z"/><path class="cls-1" d="M63.2,25.32a3.73,3.73,0,0,0,1.29-1.27c.12-.25.15-.55.26-.81a13.88,13.88,0,0,1,2.54-3.86,6.57,6.57,0,0,1,4.15-2.16,5.91,5.91,0,0,1,1,0c.61.08,1.24,0,1.8.08a8.21,8.21,0,0,1,5.16,3.05A8,8,0,0,1,81,24.55c.17,2.72-.44,4.54-1.62,5.91a6.7,6.7,0,0,1-3.57,2.16,10.59,10.59,0,0,1-7-1.16,8.83,8.83,0,0,1-3.24-3.09A14.74,14.74,0,0,0,64.86,27a5,5,0,0,1-3.09-.51C62,25.74,62.69,25.67,63.2,25.32Z"/><path class="cls-2" d="M65.48,23.78c1-2.22,2.51-4.44,4.78-5.4a8.94,8.94,0,0,1,3.9-.27c3.52.63,6.19,3.33,5.93,7.83a6.21,6.21,0,0,1-2,4.48,5.92,5.92,0,0,1-2.54,1.27,12,12,0,0,1-2.87,0,8.48,8.48,0,0,1-4.52-1.93,9.19,9.19,0,0,1-1.62-1.62c-.74-.95-1.07-2.25-2.94-1.93C64.21,25.59,65.64,25.11,65.48,23.78Zm11-4.13h-.11c0,.4.5.49.74.7.94.82,1.68,3.06,1.58,5a9.69,9.69,0,0,1-1.4,4.52,1,1,0,0,0,.48-.23c.89-.76,1.29-2.67,1.36-4.25a7.93,7.93,0,0,0-1.62-5.05A9.44,9.44,0,0,0,76.48,19.65Zm-9.09,8.49a6.13,6.13,0,0,0,2,1.93,7.38,7.38,0,0,0,1.11.5,2.24,2.24,0,0,0,1.1.31c-.11-.29-.36-.26-.55-.35a21.86,21.86,0,0,1-3.53-2.43C67.45,28.09,67.44,28.14,67.39,28.14Z"/><path class="cls-3" d="M48.57,73.58a.7.7,0,0,1-.23.11,1.09,1.09,0,0,1-.26,0l-1.3,0a.17.17,0,0,1-.1,0,.22.22,0,0,1,0-.08l-.31-1.27a.88.88,0,0,1,0-.51.94.94,0,0,1,.79-.63.87.87,0,0,1,.83.42.79.79,0,0,1,.08.29.76.76,0,0,1,.3,0,.88.88,0,0,1,.62.69A1,1,0,0,1,48.57,73.58Z"/><path class="cls-4" d="M73.51,18.74a1.22,1.22,0,0,0-.68-.15c-.15,0-.25-.05-.38,0a.67.67,0,0,0-.3.3,2.08,2.08,0,0,0-.15.39c-.11.36-.2.72-.29,1.09a.27.27,0,0,0,0,.12,2.62,2.62,0,0,1-.09.56c0,.21-.09.41-.12.62s0,.45-.07.67,0,.24.17.33.05.14,0,.18-.2.07-.26.2a2.55,2.55,0,0,0-.11.69,1.21,1.21,0,0,1,0,.19,2.3,2.3,0,0,0,0,.26c0,.19,0,.39,0,.58s0,.45,0,.68c0,0,0,0,0,.05a5.77,5.77,0,0,1,0,.72c0,.16,0,.31,0,.46s0,.29,0,.44,0,.45,0,.68,0,.49,0,.74,0,.36.06.54a3.12,3.12,0,0,0,.11.61.2.2,0,0,1,0,.07c0,.07,0,.11.09.14a1.53,1.53,0,0,0,.39.14,1,1,0,0,0,.6,0,.49.49,0,0,0,.15-.19,7.4,7.4,0,0,0,.33-1c.07-.23.13-.47.19-.71a1.53,1.53,0,0,0,.07-.36,3.33,3.33,0,0,1,.1-.55,8.22,8.22,0,0,0,.15-.84c0-.22.06-.43.09-.64l.09-.58c0-.1,0-.2,0-.3l.09-.7c0-.24.05-.48.08-.72a.16.16,0,0,0-.05-.11.7.7,0,0,0-.24-.17s-.08,0-.07-.07,0-.1.08-.11l.14-.05c.08,0,.17-.05.17-.15s0-.24,0-.36,0-.44,0-.66,0-.44,0-.66c0-.4-.08-.8-.1-1.2S73.82,19,73.51,18.74Zm-2,4.31s0,0,.07,0,0,0,0,0a1,1,0,0,1,0,.17C71.47,23.17,71.45,23.1,71.52,23.05Zm2.19.72c0,.28,0,.56-.11.84s-.07.47-.1.7-.08.48-.11.72,0,.34-.07.51a1.17,1.17,0,0,1,0,.26c0,.26-.11.51-.16.76l-.09.51c0,.07,0,.13,0,.19-.06.24-.12.49-.19.73s-.13.38-.2.58a1.82,1.82,0,0,0-.07.25.13.13,0,0,1-.1.09.89.89,0,0,1-.43,0h-.1a.34.34,0,0,1-.32-.29c0-.1,0-.21-.07-.32s-.07-.46-.1-.68,0-.37,0-.55c0,0,0-.07,0-.11l0-.62c0-.26,0-.51,0-.77,0-.09,0-.18,0-.27,0-.26,0-.53,0-.79s0-.27,0-.4a14.16,14.16,0,0,1,.09-1.72l0,0a1.31,1.31,0,0,0,.27.12.76.76,0,0,0,.36.08h0l.57.13a1.61,1.61,0,0,0,.62,0l.46-.08A.14.14,0,0,1,73.71,23.77Zm0-.32-.1.05a2.44,2.44,0,0,1-.81,0l-.51-.1c-.13,0-.5,0-.52-.21a.9.9,0,0,1,.06-.43,6,6,0,0,1,.67.17c.29.06.59,0,.88.05a1.09,1.09,0,0,0,0,.36s0,.06.05.06,0,0,.07,0,0-.05.07-.08A.13.13,0,0,1,73.69,23.45Zm.07-2.06c0,.21,0,.41,0,.62a3.68,3.68,0,0,1,0,.47.32.32,0,0,1-.17.33,1.62,1.62,0,0,1-.79,0l-.27,0c-.39,0-.94-.13-1-.46a3.86,3.86,0,0,1,.09-.84,1.67,1.67,0,0,0,.06-.44,1.6,1.6,0,0,1,0-.21c0-.14,0-.27.08-.41s0-.19.07-.29.06-.3.1-.45a5.11,5.11,0,0,1,.22-.66c.18-.4.43-.3.79-.25.21,0,.34,0,.44.23a2.3,2.3,0,0,1,.14.87,4.76,4.76,0,0,1,.07.84C73.68,20.94,73.75,21.16,73.76,21.39Z"/><path class="cls-1" d="M72.68,26.6a.28.28,0,0,0-.19,0,.8.8,0,0,0-.17.15.54.54,0,0,1-.16.14A.33.33,0,0,1,72,27a.11.11,0,0,1-.12-.12c0-.09.06-.11.13-.12s.22-.06.1-.13-.2,0-.26.08a.22.22,0,0,0,0,.29.35.35,0,0,0,.41.06.49.49,0,0,0,.14-.11c.07-.08.15-.2.26-.21a.15.15,0,0,1,.16.07.16.16,0,0,1,0,.2s-.08,0-.11,0,0,.06,0,.07a.24.24,0,0,0,.26-.22A.24.24,0,0,0,72.68,26.6Z"/><path class="cls-1" d="M72.88,26.1s-.18,0-.14,0l0,0s0,0,.07,0a.17.17,0,0,1,0,.1.14.14,0,0,1-.12.1.88.88,0,0,1-.28,0l-.33-.05c-.06,0-.13-.05-.13-.13s.06-.08.12-.09.08,0,.08,0-.16-.06-.2,0a.21.21,0,0,0-.12.19c0,.2.35.23.49.24a1,1,0,0,0,.54,0,.23.23,0,0,0,.08-.23A.19.19,0,0,0,72.88,26.1Z"/><path class="cls-1" d="M73.09,24.94a1,1,0,0,0-.24.11h0l-.15.09s-.09.12-.13.1,0-.12-.07-.14a.41.41,0,0,0-.34-.13c-.19,0-.21.21-.16.35s0,.06,0,.07a9.17,9.17,0,0,0,1,.11s0,0,0,0,0-.08,0-.09a1.1,1.1,0,0,0-.18,0,1.26,1.26,0,0,1-.27,0c0-.05.13-.13.18-.16a.8.8,0,0,1,.32-.13s.1,0,.08-.1S73.11,24.94,73.09,24.94Zm-1,.37V25.2a.14.14,0,0,1,.17-.12.26.26,0,0,1,.21.25Z"/><path class="cls-1" d="M73.19,24.39h0a7.12,7.12,0,0,0-.8,0c-.1,0-.29,0-.3.14s.25.16.32.18a5.09,5.09,0,0,0,.77.19,0,0,0,0,0,0-.09l-.44-.1a.52.52,0,0,0,0-.21h.41A.06.06,0,0,0,73.19,24.39Zm-.53.18s0,.08,0,.12l-.38-.11c-.07,0-.08-.06,0-.07l.24,0h.13Z"/><path class="cls-1" d="M73,25.57h0a0,0,0,0,0,0,0,5.47,5.47,0,0,0-.81,0c-.09,0-.29,0-.3.14s.26.16.32.18a4.94,4.94,0,0,0,.78.19c.06,0,.06-.08,0-.09l-.43-.1a.42.42,0,0,0,0-.22l.41,0C73.1,25.69,73.12,25.58,73,25.57Zm-.52.17a.56.56,0,0,0,0,.13l-.37-.11c-.08,0-.08-.06,0-.07l.25,0h.12A.15.15,0,0,0,72.51,25.74Z"/><path class="cls-1" d="M72.82,27.16h0s0,0,0,0a7.12,7.12,0,0,0-.8,0c-.1,0-.29,0-.31.14s.26.16.33.18a5.09,5.09,0,0,0,.77.19c.06,0,.07-.08,0-.09l-.43-.1a.52.52,0,0,0,0-.21h.41A.06.06,0,0,0,72.82,27.16Zm-.53.18a.48.48,0,0,1,0,.12l-.37-.11c-.07,0-.08-.06,0-.07l.24,0h.13Z"/><path class="cls-1" d="M72.78,27.71l-.61,0a1.61,1.61,0,0,0-.49.07,0,0,0,0,0,0,.08,5,5,0,0,1,.65.23,3.05,3.05,0,0,1-.66.08c-.05,0-.07.07,0,.08s.85.35,1,.37a0,0,0,0,0,0-.08,7.18,7.18,0,0,1-.74-.29c.2,0,.4-.06.59-.09a.05.05,0,0,0,0-.1,3.06,3.06,0,0,0-.66-.24c.13,0,.28,0,.39,0l.53,0C72.86,27.82,72.84,27.71,72.78,27.71Z"/><path d="M75.29,26.7l.07-.16a1.4,1.4,0,0,1,.35-.54,1.7,1.7,0,0,1,.59-.31c.29-.1.49-.17.59-.22a1,1,0,0,0,.24-.19.93.93,0,0,0,.15-.26.6.6,0,0,0,0-.54.9.9,0,0,0-.49-.38,2.17,2.17,0,0,0-.5-.13,2.9,2.9,0,0,0-.59,0l0-.51a2.79,2.79,0,0,1,1.34.18,1.44,1.44,0,0,1,.79.64,1.08,1.08,0,0,1,0,.93,1.21,1.21,0,0,1-.22.37,1.13,1.13,0,0,1-.31.26,3.72,3.72,0,0,1-.67.26,1.89,1.89,0,0,0-.57.27.94.94,0,0,0-.27.4l0,.11Zm-.5.86c.11-.28.29-.37.55-.26a.33.33,0,0,1,.23.21.43.43,0,0,1,0,.35.44.44,0,0,1-.22.27.36.36,0,0,1-.32,0,.39.39,0,0,1-.24-.21A.46.46,0,0,1,74.79,27.56Z"/></svg>